<svg id="Capa_1" data-name="Capa 1" xmlns="http://www.w3.org/2000/svg" viewBox="0 0 595.28 841.89"><defs><style>.cls-1{fill:#1d1c1a;}.cls-2{fill:#207841;}</style></defs><rect class="cls-1" width="595.28" height="841.89"/><path class="cls-2" d="M134.88,46.35H120.1c.93-.71,2-.6,3.08-.78s1.25-.53.68-1.39a3.68,3.68,0,0,1-.47-.78c-.89-2.78-3.08-4-5.59-5.1-2.87-1.32-5.37-.16-8,.42a20.48,20.48,0,0,0-6.73,2.75,6.14,6.14,0,0,1-2.61.77c-.3,0-.64.16-.8-.2s.2-.52.44-.67c1.7-1,3.4-2,5.09-3,.25-.15.58-.23.63-.65-.62-.39-1.24.38-2.17-.11l4.39-2.7c1.64-1,3.43-1.76,4.5-3.64.65-1.15,2.16-1.61,3.3-2.36,3.91-2.57,7.84-5.08,11.74-7.66a10.18,10.18,0,0,0,2.72-3c2.35-3.53,5-4.56,8.68-3.54a5,5,0,0,1,2.47,1.44,3.31,3.31,0,0,0,3,1,5.81,5.81,0,0,1,4.48,1.44c-.11.42-.41.35-.72.28a8.87,8.87,0,0,0-3,0c-2.92.38-4.16,1.68-4.17,4.61,0,7.2-3.89,12-9.61,15.71a11,11,0,0,1-2.24,1.24c-1.06.38-1.2.82-.78,1.89.85,2.15,2.12,3.52,4.57,3.48A2.77,2.77,0,0,1,134.88,46.35Zm-7.63-.85c.63,0,1.17-.09.7-1-.62-1.15-1.2-2.31-1.79-3.47-.41-.8-1-.67-1.66-.39-.83.35-.43.9-.22,1.37a19.67,19.67,0,0,0,1.16,2.29A2,2,0,0,0,127.25,45.5Z"/><path class="cls-2" d="M184.15,110.53H169.37c.94-.71,2-.6,3.08-.78s1.25-.52.69-1.39a3.12,3.12,0,0,1-.47-.78c-.89-2.78-3.08-4-5.59-5.1-2.88-1.32-5.37-.16-8,.42a20.24,20.24,0,0,0-6.72,2.76,6.32,6.32,0,0,1-2.62.76c-.29,0-.63.16-.79-.2s.2-.52.44-.66l5.09-3c.24-.15.58-.22.63-.64-.62-.39-1.24.37-2.18-.11l4.39-2.71c1.65-1,3.44-1.76,4.5-3.64.66-1.15,2.17-1.61,3.31-2.36C169,90.49,173,88,176.87,85.4a10.2,10.2,0,0,0,2.72-3.05c2.36-3.53,4.95-4.56,8.69-3.54a5.11,5.11,0,0,1,2.47,1.44,3.3,3.3,0,0,0,3,1,5.86,5.86,0,0,1,4.48,1.44c-.11.42-.41.35-.72.28a9.12,9.12,0,0,0-3,0c-2.93.39-4.16,1.69-4.17,4.61,0,7.2-3.9,12-9.62,15.72a11.4,11.4,0,0,1-2.24,1.24c-1.06.38-1.2.81-.77,1.89.85,2.14,2.11,3.51,4.57,3.47A2.86,2.86,0,0,1,184.15,110.53Zm-7.62-.85c.63,0,1.16-.08.7-1-.62-1.14-1.2-2.31-1.8-3.47-.4-.79-1-.66-1.65-.38-.83.35-.44.89-.22,1.36a21.3,21.3,0,0,0,1.15,2.29A2,2,0,0,0,176.53,109.68Z"/><path class="cls-2" d="M233.43,46.35H218.65c.93-.71,2-.6,3.08-.78s1.25-.53.69-1.39a3.31,3.31,0,0,1-.47-.78c-.89-2.78-3.08-4-5.59-5.1-2.88-1.32-5.37-.16-8,.42a20.43,20.43,0,0,0-6.72,2.75,6.23,6.23,0,0,1-2.62.77c-.29,0-.64.16-.79-.2s.19-.52.44-.67c1.69-1,3.39-2,5.09-3,.24-.15.58-.23.63-.65-.63-.39-1.25.38-2.18-.11l4.39-2.7c1.65-1,3.44-1.76,4.5-3.64.65-1.15,2.17-1.61,3.31-2.36,3.9-2.57,7.84-5.08,11.73-7.66a10.18,10.18,0,0,0,2.72-3c2.36-3.53,4.95-4.56,8.69-3.54A5.12,5.12,0,0,1,240,16.07a3.3,3.3,0,0,0,3,1,5.82,5.82,0,0,1,4.48,1.44c-.12.42-.42.35-.73.28a8.81,8.81,0,0,0-3,0c-2.93.38-4.16,1.68-4.17,4.61,0,7.2-3.9,12-9.62,15.71a11,11,0,0,1-2.24,1.24c-1.06.38-1.2.82-.77,1.89.85,2.15,2.11,3.52,4.57,3.48A2.76,2.76,0,0,1,233.43,46.35Zm-7.63-.85c.63,0,1.17-.09.7-1-.61-1.15-1.2-2.31-1.79-3.47-.4-.8-1-.67-1.66-.39-.82.35-.43.9-.22,1.37A21.37,21.37,0,0,0,224,44.35,2,2,0,0,0,225.8,45.5Z"/><path class="cls-2" d="M282.71,110.53H267.93c.93-.71,2-.6,3.08-.78s1.25-.52.68-1.39a3.44,3.44,0,0,1-.47-.78c-.89-2.78-3.08-4-5.59-5.1-2.87-1.32-5.37-.16-8,.42a20.29,20.29,0,0,0-6.73,2.76,6.28,6.28,0,0,1-2.61.76c-.3,0-.64.16-.8-.2s.2-.52.44-.66l5.09-3c.25-.15.58-.22.63-.64-.62-.39-1.24.37-2.17-.11l4.39-2.71c1.64-1,3.43-1.76,4.5-3.64.65-1.15,2.17-1.61,3.31-2.36,3.9-2.56,7.83-5.08,11.73-7.65a10.34,10.34,0,0,0,2.72-3.05c2.35-3.53,5-4.56,8.68-3.54a5.11,5.11,0,0,1,2.47,1.44,3.31,3.31,0,0,0,3,1,5.85,5.85,0,0,1,4.48,1.44c-.11.42-.41.35-.72.28a9.13,9.13,0,0,0-3,0c-2.92.39-4.16,1.69-4.17,4.61,0,7.2-3.89,12-9.61,15.72a12,12,0,0,1-2.24,1.24c-1.06.38-1.2.81-.78,1.89.85,2.14,2.12,3.51,4.58,3.47A2.87,2.87,0,0,1,282.71,110.53Zm-7.63-.85c.63,0,1.17-.08.7-1-.62-1.14-1.2-2.31-1.79-3.47-.41-.79-1-.66-1.66-.38-.83.35-.43.89-.22,1.36a19.67,19.67,0,0,0,1.16,2.29A2,2,0,0,0,275.08,109.68Z"/><path class="cls-2" d="M332,46.35H317.2c.94-.71,2.05-.6,3.08-.78s1.26-.53.69-1.39a3.31,3.31,0,0,1-.47-.78c-.89-2.78-3.08-4-5.59-5.1-2.87-1.32-5.37-.16-8,.42a20.52,20.52,0,0,0-6.72,2.75,6.19,6.19,0,0,1-2.62.77c-.29,0-.63.16-.79-.2s.2-.52.44-.67c1.69-1,3.4-2,5.09-3,.24-.15.58-.23.63-.65-.62-.39-1.24.38-2.18-.11,1.58-1,3-1.83,4.39-2.7,1.65-1,3.44-1.76,4.5-3.64.66-1.15,2.17-1.61,3.31-2.36,3.9-2.57,7.84-5.08,11.74-7.66a10.14,10.14,0,0,0,2.71-3c2.36-3.53,4.95-4.56,8.69-3.54a5,5,0,0,1,2.47,1.44,3.31,3.31,0,0,0,3,1A5.82,5.82,0,0,1,346,18.55c-.11.42-.41.35-.72.28a8.87,8.87,0,0,0-3,0c-2.93.38-4.16,1.68-4.17,4.61,0,7.2-3.9,12-9.62,15.71a10.45,10.45,0,0,1-2.24,1.24c-1.06.38-1.2.82-.77,1.89.85,2.15,2.11,3.52,4.57,3.48A2.74,2.74,0,0,1,332,46.35Zm-7.62-.85c.63,0,1.16-.09.7-1-.62-1.15-1.2-2.31-1.8-3.47-.4-.8-1-.67-1.65-.39-.83.35-.44.9-.22,1.37a21.3,21.3,0,0,0,1.15,2.29A2,2,0,0,0,324.36,45.5Z"/><path class="cls-2" d="M381.26,110.53H366.48c.93-.71,2-.6,3.08-.78s1.25-.52.69-1.39a3.12,3.12,0,0,1-.47-.78c-.89-2.78-3.08-4-5.59-5.1-2.88-1.32-5.37-.16-8,.42a20.24,20.24,0,0,0-6.72,2.76,6.36,6.36,0,0,1-2.62.76c-.29,0-.64.16-.79-.2s.19-.52.44-.66l5.09-3c.24-.15.58-.22.63-.64-.63-.39-1.25.37-2.18-.11l4.39-2.71c1.65-1,3.44-1.76,4.5-3.64.65-1.15,2.17-1.61,3.31-2.36,3.9-2.56,7.84-5.08,11.73-7.65a10.2,10.2,0,0,0,2.72-3.05c2.36-3.53,4.95-4.56,8.69-3.54a5.2,5.2,0,0,1,2.47,1.44,3.3,3.3,0,0,0,3,1,5.86,5.86,0,0,1,4.48,1.44c-.11.42-.42.35-.73.28a9.06,9.06,0,0,0-3,0c-2.93.39-4.16,1.69-4.17,4.61,0,7.2-3.9,12-9.62,15.72a12,12,0,0,1-2.24,1.24c-1.06.38-1.2.81-.77,1.89.85,2.14,2.11,3.51,4.57,3.47A2.87,2.87,0,0,1,381.26,110.53Zm-7.63-.85c.63,0,1.17-.08.71-1-.62-1.14-1.21-2.31-1.8-3.47-.4-.79-1-.66-1.66-.38s-.43.89-.22,1.36a21.37,21.37,0,0,0,1.16,2.29A2,2,0,0,0,373.63,109.68Z"/><path class="cls-2" d="M430.54,46.35H415.76c.93-.71,2.05-.6,3.08-.78s1.25-.53.68-1.39a3.68,3.68,0,0,1-.47-.78c-.89-2.78-3.08-4-5.59-5.1-2.87-1.32-5.37-.16-8,.42a20.48,20.48,0,0,0-6.73,2.75,6.14,6.14,0,0,1-2.61.77c-.3,0-.64.16-.8-.2s.2-.52.44-.67c1.7-1,3.4-2,5.09-3,.25-.15.58-.23.63-.65-.62-.39-1.24.38-2.17-.11l4.39-2.7c1.65-1,3.43-1.76,4.5-3.64.65-1.15,2.17-1.61,3.31-2.36,3.9-2.57,7.83-5.08,11.73-7.66a10.18,10.18,0,0,0,2.72-3c2.36-3.53,4.95-4.56,8.68-3.54a5,5,0,0,1,2.47,1.44,3.31,3.31,0,0,0,3,1,5.84,5.84,0,0,1,4.49,1.44c-.12.42-.42.35-.73.28a8.87,8.87,0,0,0-3,0c-2.92.38-4.15,1.68-4.17,4.61,0,7.2-3.89,12-9.61,15.71a11,11,0,0,1-2.24,1.24c-1.06.38-1.2.82-.78,1.89.85,2.15,2.12,3.52,4.58,3.48A2.76,2.76,0,0,1,430.54,46.35Zm-7.63-.85c.63,0,1.17-.09.7-1-.62-1.15-1.2-2.31-1.79-3.47-.41-.8-1-.67-1.66-.39-.83.35-.43.9-.22,1.37a19.67,19.67,0,0,0,1.16,2.29A2,2,0,0,0,422.91,45.5Z"/><path class="cls-2" d="M479.81,110.53H465c.94-.71,2.05-.6,3.08-.78s1.26-.52.69-1.39a3.12,3.12,0,0,1-.47-.78c-.89-2.78-3.08-4-5.59-5.1-2.87-1.32-5.37-.16-8,.42a20.33,20.33,0,0,0-6.72,2.76,6.28,6.28,0,0,1-2.62.76c-.29,0-.63.16-.79-.2s.2-.52.44-.66l5.09-3c.25-.15.58-.22.63-.64-.62-.39-1.24.37-2.18-.11l4.4-2.71c1.64-1,3.43-1.76,4.49-3.64.66-1.15,2.17-1.61,3.31-2.36,3.9-2.56,7.84-5.08,11.74-7.65a10.48,10.48,0,0,0,2.72-3.05c2.35-3.53,4.95-4.56,8.68-3.54a5.11,5.11,0,0,1,2.47,1.44,3.31,3.31,0,0,0,3,1,5.86,5.86,0,0,1,4.48,1.44c-.11.42-.41.35-.72.28a9.12,9.12,0,0,0-3,0c-2.93.39-4.16,1.69-4.17,4.61,0,7.2-3.9,12-9.61,15.72a11.77,11.77,0,0,1-2.25,1.24c-1.06.38-1.2.81-.77,1.89.85,2.14,2.11,3.51,4.57,3.47A2.84,2.84,0,0,1,479.81,110.53Zm-7.62-.85c.63,0,1.16-.08.7-1-.62-1.14-1.2-2.31-1.8-3.47-.4-.79-1-.66-1.65-.38-.83.35-.44.89-.22,1.36a21.3,21.3,0,0,0,1.15,2.29A2,2,0,0,0,472.19,109.68Z"/><path class="cls-2" d="M136.66,559.81H121.88c.93-.71,2.05-.59,3.08-.78s1.25-.52.69-1.38a3.52,3.52,0,0,1-.47-.78c-.89-2.79-3.08-4-5.59-5.11-2.88-1.31-5.37-.16-8,.42a20.24,20.24,0,0,0-6.72,2.76,6.23,6.23,0,0,1-2.62.77c-.29,0-.63.16-.79-.21s.19-.52.44-.66l5.09-3.05c.24-.14.58-.22.63-.64-.63-.39-1.24.38-2.18-.11l4.39-2.71c1.65-1,3.44-1.76,4.5-3.63.66-1.16,2.17-1.62,3.31-2.37,3.9-2.56,7.84-5.08,11.73-7.65a10.2,10.2,0,0,0,2.72-3c2.36-3.53,5-4.56,8.69-3.53a5.06,5.06,0,0,1,2.47,1.43,3.3,3.3,0,0,0,3,1A5.9,5.9,0,0,1,150.7,532c-.11.43-.41.35-.72.29a8.87,8.87,0,0,0-3,0c-2.93.39-4.16,1.69-4.17,4.61,0,7.21-3.9,12-9.62,15.72a11.4,11.4,0,0,1-2.24,1.24c-1.06.38-1.2.82-.77,1.89.85,2.14,2.11,3.51,4.57,3.48A2.78,2.78,0,0,1,136.66,559.81ZM129,559c.63,0,1.16-.08.7-.94-.62-1.15-1.2-2.32-1.8-3.48-.4-.79-1-.66-1.65-.38-.83.35-.44.89-.22,1.37a22.11,22.11,0,0,0,1.15,2.28A2,2,0,0,0,129,559Z"/><path class="cls-2" d="M235.22,559.81H220.44c.93-.71,2-.59,3.08-.78s1.25-.52.68-1.38a4,4,0,0,1-.47-.78c-.89-2.79-3.08-4-5.59-5.11-2.87-1.31-5.37-.16-8,.42a20.29,20.29,0,0,0-6.73,2.76,6.14,6.14,0,0,1-2.61.77c-.3,0-.64.16-.8-.21s.2-.52.44-.66l5.09-3.05c.25-.14.58-.22.63-.64-.62-.39-1.24.38-2.17-.11l4.39-2.71c1.64-1,3.43-1.76,4.5-3.63.65-1.16,2.16-1.62,3.3-2.37,3.91-2.56,7.84-5.08,11.74-7.65a10.34,10.34,0,0,0,2.72-3c2.35-3.53,5-4.56,8.68-3.53a5,5,0,0,1,2.47,1.43,3.31,3.31,0,0,0,3,1,5.88,5.88,0,0,1,4.48,1.44c-.11.43-.41.35-.72.29a8.87,8.87,0,0,0-3,0c-2.92.39-4.16,1.69-4.17,4.61,0,7.21-3.89,12-9.61,15.72a12,12,0,0,1-2.24,1.24c-1.06.38-1.2.82-.78,1.89.85,2.14,2.12,3.51,4.57,3.48A2.81,2.81,0,0,1,235.22,559.81Zm-7.63-.85c.63,0,1.17-.08.7-.94-.62-1.15-1.2-2.32-1.79-3.48-.41-.79-1-.66-1.66-.38-.83.35-.43.89-.22,1.37a20.36,20.36,0,0,0,1.16,2.28A2,2,0,0,0,227.59,559Z"/><path class="cls-2" d="M333.77,559.81H319c.93-.71,2.05-.59,3.08-.78s1.25-.52.69-1.38a3.52,3.52,0,0,1-.47-.78c-.89-2.79-3.08-4-5.59-5.11-2.88-1.31-5.37-.16-8,.42a20.24,20.24,0,0,0-6.72,2.76,6.23,6.23,0,0,1-2.62.77c-.29,0-.64.16-.79-.21s.19-.52.44-.66l5.09-3.05c.24-.14.58-.22.63-.64-.63-.39-1.25.38-2.18-.11l4.39-2.71c1.65-1,3.44-1.76,4.5-3.63.65-1.16,2.17-1.62,3.31-2.37,3.9-2.56,7.84-5.08,11.73-7.65a10.34,10.34,0,0,0,2.72-3c2.36-3.53,5-4.56,8.69-3.53a5.1,5.1,0,0,1,2.47,1.43,3.3,3.3,0,0,0,3,1,5.9,5.9,0,0,1,4.48,1.44c-.12.43-.42.35-.73.29a8.81,8.81,0,0,0-3,0c-2.93.39-4.16,1.69-4.17,4.61,0,7.21-3.9,12-9.62,15.72A12,12,0,0,1,328,553.9c-1.06.38-1.2.82-.77,1.89.85,2.14,2.11,3.51,4.57,3.48A2.79,2.79,0,0,1,333.77,559.81Zm-7.63-.85c.63,0,1.17-.08.7-.94-.61-1.15-1.2-2.32-1.79-3.48-.4-.79-1-.66-1.66-.38-.82.35-.43.89-.22,1.37a22.2,22.2,0,0,0,1.16,2.28A2,2,0,0,0,326.14,559Z"/><path class="cls-2" d="M432.32,559.81H417.54c.94-.71,2-.59,3.08-.78s1.26-.52.69-1.38a3.52,3.52,0,0,1-.47-.78c-.89-2.79-3.08-4-5.59-5.11-2.87-1.31-5.37-.16-8,.42a20.33,20.33,0,0,0-6.72,2.76,6.19,6.19,0,0,1-2.62.77c-.29,0-.63.16-.79-.21s.2-.52.44-.66l5.09-3.05c.24-.14.58-.22.63-.64-.62-.39-1.24.38-2.18-.11l4.39-2.71c1.65-1,3.44-1.76,4.5-3.63.66-1.16,2.17-1.62,3.31-2.37,3.9-2.56,7.84-5.08,11.74-7.65a10.3,10.3,0,0,0,2.71-3c2.36-3.53,5-4.56,8.69-3.53a5,5,0,0,1,2.47,1.43,3.31,3.31,0,0,0,3,1,5.9,5.9,0,0,1,4.48,1.44c-.11.43-.41.35-.72.29a8.87,8.87,0,0,0-3,0c-2.93.39-4.16,1.69-4.17,4.61,0,7.21-3.9,12-9.62,15.72a11.4,11.4,0,0,1-2.24,1.24c-1.06.38-1.2.82-.77,1.89.85,2.14,2.11,3.51,4.57,3.48A2.77,2.77,0,0,1,432.32,559.81ZM424.7,559c.63,0,1.16-.08.7-.94-.62-1.15-1.2-2.32-1.8-3.48-.4-.79-1-.66-1.65-.38-.83.35-.44.89-.22,1.37a22.11,22.11,0,0,0,1.15,2.28A2,2,0,0,0,424.7,559Z"/><path class="cls-2" d="M134.88,174.71H120.1c.93-.71,2-.59,3.08-.78s1.25-.52.68-1.38a4,4,0,0,1-.47-.78c-.89-2.79-3.08-4-5.59-5.11-2.87-1.31-5.37-.16-8,.43a20.27,20.27,0,0,0-6.73,2.75,6.14,6.14,0,0,1-2.61.77c-.3,0-.64.16-.8-.21s.2-.51.44-.66c1.7-1,3.4-2,5.09-3,.25-.15.58-.23.63-.65-.62-.39-1.24.38-2.17-.11l4.39-2.71c1.64-1,3.43-1.76,4.5-3.63.65-1.16,2.16-1.62,3.3-2.37,3.91-2.56,7.84-5.08,11.74-7.65a10.42,10.42,0,0,0,2.72-3c2.35-3.54,5-4.57,8.68-3.54a5,5,0,0,1,2.47,1.43,3.31,3.31,0,0,0,3,1,5.88,5.88,0,0,1,4.48,1.44c-.11.43-.41.35-.72.29a9.13,9.13,0,0,0-3,0c-2.92.39-4.16,1.69-4.17,4.62,0,7.2-3.89,12-9.61,15.71a12,12,0,0,1-2.24,1.24c-1.06.38-1.2.82-.78,1.89.85,2.14,2.12,3.51,4.57,3.48A2.81,2.81,0,0,1,134.88,174.71Zm-7.63-.85c.63,0,1.17-.08.7-.94-.62-1.15-1.2-2.32-1.79-3.48-.41-.79-1-.66-1.66-.38-.83.35-.43.89-.22,1.37a18.77,18.77,0,0,0,1.16,2.28A2,2,0,0,0,127.25,173.86Z"/><path class="cls-2" d="M184.15,238.9H169.37c.94-.71,2-.6,3.08-.78s1.25-.53.69-1.39a3.31,3.31,0,0,1-.47-.78c-.89-2.78-3.08-4-5.59-5.11-2.88-1.31-5.37-.15-8,.43a20.43,20.43,0,0,0-6.72,2.75,6.19,6.19,0,0,1-2.62.77c-.29,0-.63.16-.79-.2s.2-.52.44-.67c1.69-1,3.4-2,5.09-3,.24-.15.58-.23.63-.65-.62-.39-1.24.38-2.18-.11l4.39-2.7c1.65-1,3.44-1.76,4.5-3.64.66-1.15,2.17-1.61,3.31-2.36,3.9-2.57,7.84-5.08,11.73-7.66a10,10,0,0,0,2.72-3c2.36-3.53,4.95-4.56,8.69-3.54a5,5,0,0,1,2.47,1.44,3.3,3.3,0,0,0,3,1,5.82,5.82,0,0,1,4.48,1.44c-.11.42-.41.35-.72.28a8.87,8.87,0,0,0-3,0c-2.93.38-4.16,1.68-4.17,4.61,0,7.2-3.9,12-9.62,15.71A10.45,10.45,0,0,1,178.4,233c-1.06.38-1.2.82-.77,1.89.85,2.14,2.11,3.52,4.57,3.48A2.75,2.75,0,0,1,184.15,238.9Zm-7.62-.85c.63,0,1.16-.09.7-1-.62-1.15-1.2-2.31-1.8-3.47-.4-.8-1-.67-1.65-.39-.83.35-.44.9-.22,1.37a20.26,20.26,0,0,0,1.15,2.28A2,2,0,0,0,176.53,238.05Z"/><path class="cls-2" d="M233.43,174.71H218.65c.93-.71,2-.59,3.08-.78s1.25-.52.69-1.38a3.52,3.52,0,0,1-.47-.78c-.89-2.79-3.08-4-5.59-5.11-2.88-1.31-5.37-.16-8,.43a20.22,20.22,0,0,0-6.72,2.75,6.23,6.23,0,0,1-2.62.77c-.29,0-.64.16-.79-.21s.19-.51.44-.66c1.69-1,3.39-2,5.09-3,.24-.15.58-.23.63-.65-.63-.39-1.25.38-2.18-.11l4.39-2.71c1.65-1,3.44-1.76,4.5-3.63.65-1.16,2.17-1.62,3.31-2.37,3.9-2.56,7.84-5.08,11.73-7.65a10.42,10.42,0,0,0,2.72-3c2.36-3.54,4.95-4.57,8.69-3.54a5.1,5.1,0,0,1,2.47,1.43,3.3,3.3,0,0,0,3,1,5.9,5.9,0,0,1,4.48,1.44c-.12.43-.42.35-.73.29a9.06,9.06,0,0,0-3,0c-2.93.39-4.16,1.69-4.17,4.62,0,7.2-3.9,12-9.62,15.71a12,12,0,0,1-2.24,1.24c-1.06.38-1.2.82-.77,1.89.85,2.14,2.11,3.51,4.57,3.48A2.79,2.79,0,0,1,233.43,174.71Zm-7.63-.85c.63,0,1.17-.08.7-.94-.61-1.15-1.2-2.32-1.79-3.48-.4-.79-1-.66-1.66-.38-.82.35-.43.89-.22,1.37a20.33,20.33,0,0,0,1.16,2.28A2,2,0,0,0,225.8,173.86Z"/><path class="cls-2" d="M282.71,238.9H267.93c.93-.71,2-.6,3.08-.78s1.25-.53.68-1.39a3.68,3.68,0,0,1-.47-.78c-.89-2.78-3.08-4-5.59-5.11-2.87-1.31-5.37-.15-8,.43a20.48,20.48,0,0,0-6.73,2.75,6.14,6.14,0,0,1-2.61.77c-.3,0-.64.16-.8-.2s.2-.52.44-.67c1.7-1,3.4-2,5.09-3,.25-.15.58-.23.63-.65-.62-.39-1.24.38-2.17-.11l4.39-2.7c1.64-1,3.43-1.76,4.5-3.64.65-1.15,2.17-1.61,3.31-2.36,3.9-2.57,7.83-5.08,11.73-7.66a10.18,10.18,0,0,0,2.72-3c2.35-3.53,5-4.56,8.68-3.54a5,5,0,0,1,2.47,1.44,3.31,3.31,0,0,0,3,1,5.81,5.81,0,0,1,4.48,1.44c-.11.42-.41.35-.72.28a8.87,8.87,0,0,0-3,0c-2.92.38-4.16,1.68-4.17,4.61,0,7.2-3.89,12-9.61,15.71A11,11,0,0,1,277,233c-1.06.38-1.2.82-.78,1.89.85,2.14,2.12,3.52,4.58,3.48A2.76,2.76,0,0,1,282.71,238.9Zm-7.63-.85c.63,0,1.17-.09.7-1-.62-1.15-1.2-2.31-1.79-3.47-.41-.8-1-.67-1.66-.39-.83.35-.43.9-.22,1.37a18.77,18.77,0,0,0,1.16,2.28A2,2,0,0,0,275.08,238.05Z"/><path class="cls-2" d="M332,174.71H317.2c.94-.71,2.05-.59,3.08-.78s1.26-.52.69-1.38a3.52,3.52,0,0,1-.47-.78c-.89-2.79-3.08-4-5.59-5.11-2.87-1.31-5.37-.16-8,.43a20.3,20.3,0,0,0-6.72,2.75,6.19,6.19,0,0,1-2.62.77c-.29,0-.63.16-.79-.21s.2-.51.44-.66c1.69-1,3.4-2,5.09-3,.24-.15.58-.23.63-.65-.62-.39-1.24.38-2.18-.11,1.58-1,3-1.83,4.39-2.71,1.65-1,3.44-1.76,4.5-3.63.66-1.16,2.17-1.62,3.31-2.37,3.9-2.56,7.84-5.08,11.74-7.65a10.39,10.39,0,0,0,2.71-3c2.36-3.54,4.95-4.57,8.69-3.54a5,5,0,0,1,2.47,1.43,3.31,3.31,0,0,0,3,1,5.9,5.9,0,0,1,4.48,1.44c-.11.43-.41.35-.72.29a9.12,9.12,0,0,0-3,0c-2.93.39-4.16,1.69-4.17,4.62,0,7.2-3.9,12-9.62,15.71a11.4,11.4,0,0,1-2.24,1.24c-1.06.38-1.2.82-.77,1.89.85,2.14,2.11,3.51,4.57,3.48A2.77,2.77,0,0,1,332,174.71Zm-7.62-.85c.63,0,1.16-.08.7-.94-.62-1.15-1.2-2.32-1.8-3.48-.4-.79-1-.66-1.65-.38-.83.35-.44.89-.22,1.37a20.26,20.26,0,0,0,1.15,2.28A2,2,0,0,0,324.36,173.86Z"/><path class="cls-2" d="M381.26,238.9H366.48c.93-.71,2-.6,3.08-.78s1.25-.53.69-1.39a3.31,3.31,0,0,1-.47-.78c-.89-2.78-3.08-4-5.59-5.11-2.88-1.31-5.37-.15-8,.43a20.43,20.43,0,0,0-6.72,2.75,6.23,6.23,0,0,1-2.62.77c-.29,0-.64.16-.79-.2s.19-.52.44-.67c1.69-1,3.39-2,5.09-3,.24-.15.58-.23.63-.65-.63-.39-1.25.38-2.18-.11l4.39-2.7c1.65-1,3.44-1.76,4.5-3.64.65-1.15,2.17-1.61,3.31-2.36,3.9-2.57,7.84-5.08,11.73-7.66a10,10,0,0,0,2.72-3c2.36-3.53,4.95-4.56,8.69-3.54a5.12,5.12,0,0,1,2.47,1.44,3.3,3.3,0,0,0,3,1,5.82,5.82,0,0,1,4.48,1.44c-.11.42-.42.35-.73.28a8.81,8.81,0,0,0-3,0c-2.93.38-4.16,1.68-4.17,4.61,0,7.2-3.9,12-9.62,15.71a11,11,0,0,1-2.24,1.24c-1.06.38-1.2.82-.77,1.89.85,2.14,2.11,3.52,4.57,3.48A2.76,2.76,0,0,1,381.26,238.9Zm-7.63-.85c.63,0,1.17-.09.71-1-.62-1.15-1.21-2.31-1.8-3.47-.4-.8-1-.67-1.66-.39s-.43.9-.22,1.37a20.33,20.33,0,0,0,1.16,2.28A2,2,0,0,0,373.63,238.05Z"/><path class="cls-2" d="M430.54,174.71H415.76c.93-.71,2.05-.59,3.08-.78s1.25-.52.68-1.38a4,4,0,0,1-.47-.78c-.89-2.79-3.08-4-5.59-5.11-2.87-1.31-5.37-.16-8,.43a20.27,20.27,0,0,0-6.73,2.75,6.14,6.14,0,0,1-2.61.77c-.3,0-.64.16-.8-.21s.2-.51.44-.66c1.7-1,3.4-2,5.09-3,.25-.15.58-.23.63-.65-.62-.39-1.24.38-2.17-.11l4.39-2.71c1.65-1,3.43-1.76,4.5-3.63.65-1.16,2.17-1.62,3.31-2.37,3.9-2.56,7.83-5.08,11.73-7.65a10.42,10.42,0,0,0,2.72-3c2.36-3.54,4.95-4.57,8.68-3.54a5,5,0,0,1,2.47,1.43,3.31,3.31,0,0,0,3,1,5.92,5.92,0,0,1,4.49,1.44c-.12.43-.42.35-.73.29a9.13,9.13,0,0,0-3,0c-2.92.39-4.15,1.69-4.17,4.62,0,7.2-3.89,12-9.61,15.71a12,12,0,0,1-2.24,1.24c-1.06.38-1.2.82-.78,1.89.85,2.14,2.12,3.51,4.58,3.48A2.79,2.79,0,0,1,430.54,174.71Zm-7.63-.85c.63,0,1.17-.08.7-.94-.62-1.15-1.2-2.32-1.79-3.48-.41-.79-1-.66-1.66-.38-.83.35-.43.89-.22,1.37a18.77,18.77,0,0,0,1.16,2.28A2,2,0,0,0,422.91,173.86Z"/><path class="cls-2" d="M479.81,238.9H465c.94-.71,2.05-.6,3.08-.78s1.26-.53.69-1.39a3.31,3.31,0,0,1-.47-.78c-.89-2.78-3.08-4-5.59-5.11-2.87-1.31-5.37-.15-8,.43A20.52,20.52,0,0,0,448,234a6.14,6.14,0,0,1-2.62.77c-.29,0-.63.16-.79-.2s.2-.52.44-.67c1.7-1,3.4-2,5.09-3,.25-.15.58-.23.63-.65-.62-.39-1.24.38-2.18-.11l4.4-2.7c1.64-1,3.43-1.76,4.49-3.64.66-1.15,2.17-1.61,3.31-2.36,3.9-2.57,7.84-5.08,11.74-7.66a10.31,10.31,0,0,0,2.72-3c2.35-3.53,4.95-4.56,8.68-3.54a5,5,0,0,1,2.47,1.44,3.31,3.31,0,0,0,3,1,5.82,5.82,0,0,1,4.48,1.44c-.11.42-.41.35-.72.28a8.87,8.87,0,0,0-3,0c-2.93.38-4.16,1.68-4.17,4.61,0,7.2-3.9,12-9.61,15.71a10.77,10.77,0,0,1-2.25,1.24c-1.06.38-1.2.82-.77,1.89.85,2.14,2.11,3.52,4.57,3.48A2.74,2.74,0,0,1,479.81,238.9Zm-7.62-.85c.63,0,1.16-.09.7-1-.62-1.15-1.2-2.31-1.8-3.47-.4-.8-1-.67-1.65-.39-.83.35-.44.9-.22,1.37a20.26,20.26,0,0,0,1.15,2.28A2,2,0,0,0,472.19,238.05Z"/><path class="cls-2" d="M134.88,303.08H120.1c.93-.71,2-.6,3.08-.78s1.25-.53.68-1.39a3.44,3.44,0,0,1-.47-.78c-.89-2.78-3.08-4-5.59-5.1-2.87-1.32-5.37-.16-8,.42a20.29,20.29,0,0,0-6.73,2.76,6.28,6.28,0,0,1-2.61.76c-.3,0-.64.16-.8-.2s.2-.52.44-.67q2.55-1.52,5.09-3c.25-.15.58-.22.63-.64-.62-.4-1.24.37-2.17-.11l4.39-2.71c1.64-1,3.43-1.76,4.5-3.64.65-1.15,2.16-1.61,3.3-2.36,3.91-2.57,7.84-5.08,11.74-7.65a10.34,10.34,0,0,0,2.72-3.05c2.35-3.53,5-4.56,8.68-3.54a5,5,0,0,1,2.47,1.44,3.31,3.31,0,0,0,3,1,5.85,5.85,0,0,1,4.48,1.44c-.11.42-.41.35-.72.28a9.13,9.13,0,0,0-3,0c-2.92.39-4.16,1.69-4.17,4.61,0,7.2-3.89,12-9.61,15.72a12,12,0,0,1-2.24,1.24c-1.06.38-1.2.81-.78,1.88.85,2.15,2.12,3.52,4.57,3.48A2.88,2.88,0,0,1,134.88,303.08Zm-7.63-.85c.63,0,1.17-.08.7-1-.62-1.14-1.2-2.31-1.79-3.47-.41-.79-1-.66-1.66-.38-.83.35-.43.89-.22,1.36a19.67,19.67,0,0,0,1.16,2.29A2,2,0,0,0,127.25,302.23Z"/><path class="cls-2" d="M184.15,367.26H169.37c.94-.71,2-.59,3.08-.78s1.25-.52.69-1.38a3.52,3.52,0,0,1-.47-.78c-.89-2.79-3.08-4-5.59-5.11-2.88-1.31-5.37-.16-8,.43a20.22,20.22,0,0,0-6.72,2.75,6.19,6.19,0,0,1-2.62.77c-.29,0-.63.16-.79-.21s.2-.52.44-.66l5.09-3.05c.24-.14.58-.22.63-.64-.62-.39-1.24.38-2.18-.11,1.58-1,3-1.83,4.39-2.71,1.65-1,3.44-1.76,4.5-3.63.66-1.16,2.17-1.62,3.31-2.37,3.9-2.56,7.84-5.08,11.73-7.65a10.2,10.2,0,0,0,2.72-3.05c2.36-3.53,4.95-4.56,8.69-3.53a5,5,0,0,1,2.47,1.43,3.3,3.3,0,0,0,3,1,5.9,5.9,0,0,1,4.48,1.44c-.11.43-.41.35-.72.29a8.87,8.87,0,0,0-3,0c-2.93.39-4.16,1.69-4.17,4.62,0,7.2-3.9,12-9.62,15.71a11.4,11.4,0,0,1-2.24,1.24c-1.06.38-1.2.82-.77,1.89.85,2.14,2.11,3.51,4.57,3.48A2.78,2.78,0,0,1,184.15,367.26Zm-7.62-.85c.63,0,1.16-.08.7-.94-.62-1.15-1.2-2.32-1.8-3.48-.4-.79-1-.66-1.65-.38-.83.35-.44.89-.22,1.37a22.11,22.11,0,0,0,1.15,2.28A2,2,0,0,0,176.53,366.41Z"/><path class="cls-2" d="M233.43,303.08H218.65c.93-.71,2-.6,3.08-.78s1.25-.53.69-1.39a3.12,3.12,0,0,1-.47-.78c-.89-2.78-3.08-4-5.59-5.1-2.88-1.32-5.37-.16-8,.42a20.24,20.24,0,0,0-6.72,2.76A6.36,6.36,0,0,1,199,299c-.29,0-.64.16-.79-.2s.19-.52.44-.67l5.09-3c.24-.15.58-.22.63-.64-.63-.4-1.25.37-2.18-.11l4.39-2.71c1.65-1,3.44-1.76,4.5-3.64.65-1.15,2.17-1.61,3.31-2.36,3.9-2.57,7.84-5.08,11.73-7.65a10.34,10.34,0,0,0,2.72-3.05c2.36-3.53,4.95-4.56,8.69-3.54A5.12,5.12,0,0,1,240,272.8a3.3,3.3,0,0,0,3,1,5.86,5.86,0,0,1,4.48,1.44c-.12.42-.42.35-.73.28a9.06,9.06,0,0,0-3,0c-2.93.39-4.16,1.69-4.17,4.61,0,7.2-3.9,12-9.62,15.72a12,12,0,0,1-2.24,1.24c-1.06.38-1.2.81-.77,1.88.85,2.15,2.11,3.52,4.57,3.48A2.87,2.87,0,0,1,233.43,303.08Zm-7.63-.85c.63,0,1.17-.08.7-1-.61-1.14-1.2-2.31-1.79-3.47-.4-.79-1-.66-1.66-.38-.82.35-.43.89-.22,1.36a21.37,21.37,0,0,0,1.16,2.29A2,2,0,0,0,225.8,302.23Z"/><path class="cls-2" d="M282.71,367.26H267.93c.93-.71,2-.59,3.08-.78s1.25-.52.68-1.38a4,4,0,0,1-.47-.78c-.89-2.79-3.08-4-5.59-5.11-2.87-1.31-5.37-.16-8,.43a20.27,20.27,0,0,0-6.73,2.75,6.14,6.14,0,0,1-2.61.77c-.3,0-.64.16-.8-.21s.2-.52.44-.66l5.09-3.05c.25-.14.58-.22.63-.64-.62-.39-1.24.38-2.17-.11l4.39-2.71c1.64-1,3.43-1.76,4.5-3.63.65-1.16,2.17-1.62,3.31-2.37,3.9-2.56,7.83-5.08,11.73-7.65a10.34,10.34,0,0,0,2.72-3.05c2.35-3.53,5-4.56,8.68-3.53A5,5,0,0,1,289.3,337a3.31,3.31,0,0,0,3,1,5.88,5.88,0,0,1,4.48,1.44c-.11.43-.41.35-.72.29a8.87,8.87,0,0,0-3,0c-2.92.39-4.16,1.69-4.17,4.62,0,7.2-3.89,12-9.61,15.71a12,12,0,0,1-2.24,1.24c-1.06.38-1.2.82-.78,1.89.85,2.14,2.12,3.51,4.58,3.48A2.79,2.79,0,0,1,282.71,367.26Zm-7.63-.85c.63,0,1.17-.08.7-.94-.62-1.15-1.2-2.32-1.79-3.48-.41-.79-1-.66-1.66-.38-.83.35-.43.89-.22,1.37a20.36,20.36,0,0,0,1.16,2.28A2,2,0,0,0,275.08,366.41Z"/><path class="cls-2" d="M332,303.08H317.2c.94-.71,2.05-.6,3.08-.78s1.26-.53.69-1.39a3.12,3.12,0,0,1-.47-.78c-.89-2.78-3.08-4-5.59-5.1-2.87-1.32-5.37-.16-8,.42a20.33,20.33,0,0,0-6.72,2.76,6.32,6.32,0,0,1-2.62.76c-.29,0-.63.16-.79-.2s.2-.52.44-.67c1.69-1,3.4-2,5.09-3,.24-.15.58-.22.63-.64-.62-.4-1.24.37-2.18-.11l4.39-2.71c1.65-1,3.44-1.76,4.5-3.64.66-1.15,2.17-1.61,3.31-2.36,3.9-2.57,7.84-5.08,11.74-7.65a10.3,10.3,0,0,0,2.71-3.05c2.36-3.53,4.95-4.56,8.69-3.54a5,5,0,0,1,2.47,1.44,3.31,3.31,0,0,0,3,1,5.86,5.86,0,0,1,4.48,1.44c-.11.42-.41.35-.72.28a9.12,9.12,0,0,0-3,0c-2.93.39-4.16,1.69-4.17,4.61,0,7.2-3.9,12-9.62,15.72a11.4,11.4,0,0,1-2.24,1.24c-1.06.38-1.2.81-.77,1.88.85,2.15,2.11,3.52,4.57,3.48A2.84,2.84,0,0,1,332,303.08Zm-7.62-.85c.63,0,1.16-.08.7-1-.62-1.14-1.2-2.31-1.8-3.47-.4-.79-1-.66-1.65-.38-.83.35-.44.89-.22,1.36a21.3,21.3,0,0,0,1.15,2.29A2,2,0,0,0,324.36,302.23Z"/><path class="cls-2" d="M381.26,367.26H366.48c.93-.71,2-.59,3.08-.78s1.25-.52.69-1.38a3.52,3.52,0,0,1-.47-.78c-.89-2.79-3.08-4-5.59-5.11-2.88-1.31-5.37-.16-8,.43a20.22,20.22,0,0,0-6.72,2.75,6.23,6.23,0,0,1-2.62.77c-.29,0-.64.16-.79-.21s.19-.52.44-.66l5.09-3.05c.24-.14.58-.22.63-.64-.63-.39-1.25.38-2.18-.11l4.39-2.71c1.65-1,3.44-1.76,4.5-3.63.65-1.16,2.17-1.62,3.31-2.37,3.9-2.56,7.84-5.08,11.73-7.65a10.2,10.2,0,0,0,2.72-3.05c2.36-3.53,4.95-4.56,8.69-3.53a5.1,5.1,0,0,1,2.47,1.43,3.3,3.3,0,0,0,3,1,5.9,5.9,0,0,1,4.48,1.44c-.11.43-.42.35-.73.29a8.81,8.81,0,0,0-3,0c-2.93.39-4.16,1.69-4.17,4.62,0,7.2-3.9,12-9.62,15.71a12,12,0,0,1-2.24,1.24c-1.06.38-1.2.82-.77,1.89.85,2.14,2.11,3.51,4.57,3.48A2.79,2.79,0,0,1,381.26,367.26Zm-7.63-.85c.63,0,1.17-.08.71-.94-.62-1.15-1.21-2.32-1.8-3.48-.4-.79-1-.66-1.66-.38s-.43.89-.22,1.37a22.2,22.2,0,0,0,1.16,2.28A2,2,0,0,0,373.63,366.41Z"/><path class="cls-2" d="M430.54,303.08H415.76c.93-.71,2.05-.6,3.08-.78s1.25-.53.68-1.39a3.44,3.44,0,0,1-.47-.78c-.89-2.78-3.08-4-5.59-5.1-2.87-1.32-5.37-.16-8,.42a20.29,20.29,0,0,0-6.73,2.76,6.28,6.28,0,0,1-2.61.76c-.3,0-.64.16-.8-.2s.2-.52.44-.67q2.55-1.52,5.09-3c.25-.15.58-.22.63-.64-.62-.4-1.24.37-2.17-.11l4.39-2.71c1.65-1,3.43-1.76,4.5-3.64.65-1.15,2.17-1.61,3.31-2.36,3.9-2.57,7.83-5.08,11.73-7.65A10.34,10.34,0,0,0,426,274.9c2.36-3.53,4.95-4.56,8.68-3.54a5,5,0,0,1,2.47,1.44,3.31,3.31,0,0,0,3,1,5.88,5.88,0,0,1,4.49,1.44c-.12.42-.42.35-.73.28a9.13,9.13,0,0,0-3,0c-2.92.39-4.15,1.69-4.17,4.61,0,7.2-3.89,12-9.61,15.72a12,12,0,0,1-2.24,1.24c-1.06.38-1.2.81-.78,1.88.85,2.15,2.12,3.52,4.58,3.48A2.87,2.87,0,0,1,430.54,303.08Zm-7.63-.85c.63,0,1.17-.08.7-1-.62-1.14-1.2-2.31-1.79-3.47-.41-.79-1-.66-1.66-.38-.83.35-.43.89-.22,1.36a19.67,19.67,0,0,0,1.16,2.29A2,2,0,0,0,422.91,302.23Z"/><path class="cls-2" d="M479.81,367.26H465c.94-.71,2.05-.59,3.08-.78s1.26-.52.69-1.38a3.52,3.52,0,0,1-.47-.78c-.89-2.79-3.08-4-5.59-5.11-2.87-1.31-5.37-.16-8,.43a20.3,20.3,0,0,0-6.72,2.75,6.14,6.14,0,0,1-2.62.77c-.29,0-.63.16-.79-.21s.2-.52.44-.66l5.09-3.05c.25-.14.58-.22.63-.64-.62-.39-1.24.38-2.18-.11,1.58-1,3-1.83,4.4-2.71,1.64-1,3.43-1.76,4.49-3.63.66-1.16,2.17-1.62,3.31-2.37,3.9-2.56,7.84-5.08,11.74-7.65a10.48,10.48,0,0,0,2.72-3.05c2.35-3.53,4.95-4.56,8.68-3.53a5,5,0,0,1,2.47,1.43,3.31,3.31,0,0,0,3,1,5.9,5.9,0,0,1,4.48,1.44c-.11.43-.41.35-.72.29a8.87,8.87,0,0,0-3,0c-2.93.39-4.16,1.69-4.17,4.62,0,7.2-3.9,12-9.61,15.71a11.77,11.77,0,0,1-2.25,1.24c-1.06.38-1.2.82-.77,1.89.85,2.14,2.11,3.51,4.57,3.48A2.77,2.77,0,0,1,479.81,367.26Zm-7.62-.85c.63,0,1.16-.08.7-.94-.62-1.15-1.2-2.32-1.8-3.48-.4-.79-1-.66-1.65-.38-.83.35-.44.89-.22,1.37a22.11,22.11,0,0,0,1.15,2.28A2,2,0,0,0,472.19,366.41Z"/><path class="cls-2" d="M134.88,431.45H120.1c.93-.72,2-.6,3.08-.79s1.25-.52.68-1.38a3.68,3.68,0,0,1-.47-.78c-.89-2.78-3.08-4-5.59-5.11-2.87-1.31-5.37-.15-8,.43a20.48,20.48,0,0,0-6.73,2.75,6.14,6.14,0,0,1-2.61.77c-.3,0-.64.16-.8-.2s.2-.52.44-.67c1.7-1,3.4-2,5.09-3,.25-.15.58-.23.63-.65-.62-.39-1.24.38-2.17-.11l4.39-2.7c1.64-1,3.43-1.77,4.5-3.64.65-1.16,2.16-1.61,3.3-2.36,3.91-2.57,7.84-5.08,11.74-7.66a10.18,10.18,0,0,0,2.72-3c2.35-3.53,5-4.56,8.68-3.54a5,5,0,0,1,2.47,1.44,3.27,3.27,0,0,0,3,1,5.85,5.85,0,0,1,4.48,1.45c-.11.42-.41.34-.72.28a9.13,9.13,0,0,0-3,0c-2.92.39-4.16,1.69-4.17,4.62,0,7.2-3.89,12-9.61,15.71a11,11,0,0,1-2.24,1.24c-1.06.38-1.2.82-.78,1.89.85,2.14,2.12,3.52,4.57,3.48A2.77,2.77,0,0,1,134.88,431.45Zm-7.63-.85c.63,0,1.17-.09.7-1-.62-1.15-1.2-2.31-1.79-3.48-.41-.79-1-.66-1.66-.38-.83.35-.43.9-.22,1.37a18.77,18.77,0,0,0,1.16,2.28A2,2,0,0,0,127.25,430.6Z"/><path class="cls-2" d="M184.15,495.63H169.37c.94-.71,2-.6,3.08-.78s1.25-.53.69-1.39a3.31,3.31,0,0,1-.47-.78c-.89-2.78-3.08-4-5.59-5.1-2.88-1.32-5.37-.16-8,.42a20.43,20.43,0,0,0-6.72,2.75,6.19,6.19,0,0,1-2.62.77c-.29,0-.63.16-.79-.2s.2-.52.44-.67c1.69-1,3.4-2,5.09-3,.24-.15.58-.22.63-.64-.62-.4-1.24.37-2.18-.11l4.39-2.71c1.65-1,3.44-1.76,4.5-3.64.66-1.15,2.17-1.61,3.31-2.36,3.9-2.57,7.84-5.08,11.73-7.65a10.2,10.2,0,0,0,2.72-3.05c2.36-3.53,4.95-4.56,8.69-3.54a5,5,0,0,1,2.47,1.44,3.3,3.3,0,0,0,3,1,5.86,5.86,0,0,1,4.48,1.44c-.11.42-.41.35-.72.28a8.87,8.87,0,0,0-3,0c-2.93.38-4.16,1.69-4.17,4.61,0,7.2-3.9,12-9.62,15.72a11.4,11.4,0,0,1-2.24,1.24c-1.06.38-1.2.81-.77,1.88.85,2.15,2.11,3.52,4.57,3.48A2.86,2.86,0,0,1,184.15,495.63Zm-7.62-.85c.63,0,1.16-.08.7-.95-.62-1.14-1.2-2.31-1.8-3.47-.4-.79-1-.66-1.65-.38-.83.35-.44.89-.22,1.36a21.3,21.3,0,0,0,1.15,2.29A2,2,0,0,0,176.53,494.78Z"/><path class="cls-2" d="M233.43,431.45H218.65c.93-.72,2-.6,3.08-.79s1.25-.52.69-1.38a3.31,3.31,0,0,1-.47-.78c-.89-2.78-3.08-4-5.59-5.11-2.88-1.31-5.37-.15-8,.43a20.43,20.43,0,0,0-6.72,2.75,6.23,6.23,0,0,1-2.62.77c-.29,0-.64.16-.79-.2s.19-.52.44-.67c1.69-1,3.39-2,5.09-3,.24-.15.58-.23.63-.65-.63-.39-1.25.38-2.18-.11l4.39-2.7c1.65-1,3.44-1.77,4.5-3.64.65-1.16,2.17-1.61,3.31-2.36,3.9-2.57,7.84-5.08,11.73-7.66a10.18,10.18,0,0,0,2.72-3c2.36-3.53,4.95-4.56,8.69-3.54a5,5,0,0,1,2.47,1.44,3.26,3.26,0,0,0,3,1,5.86,5.86,0,0,1,4.48,1.45c-.12.42-.42.34-.73.28a9.06,9.06,0,0,0-3,0c-2.93.39-4.16,1.69-4.17,4.62,0,7.2-3.9,12-9.62,15.71a11,11,0,0,1-2.24,1.24c-1.06.38-1.2.82-.77,1.89.85,2.14,2.11,3.52,4.57,3.48A2.76,2.76,0,0,1,233.43,431.45Zm-7.63-.85c.63,0,1.17-.09.7-1-.61-1.15-1.2-2.31-1.79-3.48-.4-.79-1-.66-1.66-.38-.82.35-.43.9-.22,1.37a20.33,20.33,0,0,0,1.16,2.28A2,2,0,0,0,225.8,430.6Z"/><path class="cls-2" d="M282.71,495.63H267.93c.93-.71,2-.6,3.08-.78s1.25-.53.68-1.39a3.68,3.68,0,0,1-.47-.78c-.89-2.78-3.08-4-5.59-5.1-2.87-1.32-5.37-.16-8,.42a20.48,20.48,0,0,0-6.73,2.75,6.14,6.14,0,0,1-2.61.77c-.3,0-.64.16-.8-.2s.2-.52.44-.67q2.55-1.51,5.09-3c.25-.15.58-.22.63-.64-.62-.4-1.24.37-2.17-.11l4.39-2.71c1.64-1,3.43-1.76,4.5-3.64.65-1.15,2.17-1.61,3.31-2.36,3.9-2.57,7.83-5.08,11.73-7.65a10.34,10.34,0,0,0,2.72-3.05c2.35-3.53,5-4.56,8.68-3.54a5,5,0,0,1,2.47,1.44,3.31,3.31,0,0,0,3,1,5.85,5.85,0,0,1,4.48,1.44c-.11.42-.41.35-.72.28a8.87,8.87,0,0,0-3,0c-2.92.38-4.16,1.69-4.17,4.61,0,7.2-3.89,12-9.61,15.72a12,12,0,0,1-2.24,1.24c-1.06.38-1.2.81-.78,1.88.85,2.15,2.12,3.52,4.58,3.48A2.87,2.87,0,0,1,282.71,495.63Zm-7.63-.85c.63,0,1.17-.08.7-.95-.62-1.14-1.2-2.31-1.79-3.47-.41-.79-1-.66-1.66-.38-.83.35-.43.89-.22,1.36a19.67,19.67,0,0,0,1.16,2.29A2,2,0,0,0,275.08,494.78Z"/><path class="cls-2" d="M332,431.45H317.2c.94-.72,2.05-.6,3.08-.79s1.26-.52.69-1.38a3.31,3.31,0,0,1-.47-.78c-.89-2.78-3.08-4-5.59-5.11-2.87-1.31-5.37-.15-8,.43a20.52,20.52,0,0,0-6.72,2.75,6.19,6.19,0,0,1-2.62.77c-.29,0-.63.16-.79-.2s.2-.52.44-.67c1.69-1,3.4-2,5.09-3,.24-.15.58-.23.63-.65-.62-.39-1.24.38-2.18-.11l4.39-2.7c1.65-1,3.44-1.77,4.5-3.64.66-1.16,2.17-1.61,3.31-2.36,3.9-2.57,7.84-5.08,11.74-7.66a10.14,10.14,0,0,0,2.71-3c2.36-3.53,4.95-4.56,8.69-3.54a5,5,0,0,1,2.47,1.44,3.27,3.27,0,0,0,3,1,5.86,5.86,0,0,1,4.48,1.45c-.11.42-.41.34-.72.28a9.12,9.12,0,0,0-3,0c-2.93.39-4.16,1.69-4.17,4.62,0,7.2-3.9,12-9.62,15.71a10.45,10.45,0,0,1-2.24,1.24c-1.06.38-1.2.82-.77,1.89.85,2.14,2.11,3.52,4.57,3.48A2.74,2.74,0,0,1,332,431.45Zm-7.62-.85c.63,0,1.16-.09.7-1-.62-1.15-1.2-2.31-1.8-3.48-.4-.79-1-.66-1.65-.38-.83.35-.44.9-.22,1.37a20.26,20.26,0,0,0,1.15,2.28A2,2,0,0,0,324.36,430.6Z"/><path class="cls-2" d="M381.26,495.63H366.48c.93-.71,2-.6,3.08-.78s1.25-.53.69-1.39a3.31,3.31,0,0,1-.47-.78c-.89-2.78-3.08-4-5.59-5.1-2.88-1.32-5.37-.16-8,.42a20.43,20.43,0,0,0-6.72,2.75,6.23,6.23,0,0,1-2.62.77c-.29,0-.64.16-.79-.2s.19-.52.44-.67l5.09-3c.24-.15.58-.22.63-.64-.63-.4-1.25.37-2.18-.11l4.39-2.71c1.65-1,3.44-1.76,4.5-3.64.65-1.15,2.17-1.61,3.31-2.36,3.9-2.57,7.84-5.08,11.73-7.65a10.2,10.2,0,0,0,2.72-3.05c2.36-3.53,4.95-4.56,8.69-3.54a5.12,5.12,0,0,1,2.47,1.44,3.3,3.3,0,0,0,3,1,5.86,5.86,0,0,1,4.48,1.44c-.11.42-.42.35-.73.28a8.81,8.81,0,0,0-3,0c-2.93.38-4.16,1.69-4.17,4.61,0,7.2-3.9,12-9.62,15.72a12,12,0,0,1-2.24,1.24c-1.06.38-1.2.81-.77,1.88.85,2.15,2.11,3.52,4.57,3.48A2.87,2.87,0,0,1,381.26,495.63Zm-7.63-.85c.63,0,1.17-.08.71-.95-.62-1.14-1.21-2.31-1.8-3.47-.4-.79-1-.66-1.66-.38s-.43.89-.22,1.36a21.37,21.37,0,0,0,1.16,2.29A2,2,0,0,0,373.63,494.78Z"/><path class="cls-2" d="M430.54,431.45H415.76c.93-.72,2.05-.6,3.08-.79s1.25-.52.68-1.38a3.68,3.68,0,0,1-.47-.78c-.89-2.78-3.08-4-5.59-5.11-2.87-1.31-5.37-.15-8,.43a20.48,20.48,0,0,0-6.73,2.75,6.14,6.14,0,0,1-2.61.77c-.3,0-.64.16-.8-.2s.2-.52.44-.67c1.7-1,3.4-2,5.09-3,.25-.15.58-.23.63-.65-.62-.39-1.24.38-2.17-.11l4.39-2.7c1.65-1,3.43-1.77,4.5-3.64.65-1.16,2.17-1.61,3.31-2.36,3.9-2.57,7.83-5.08,11.73-7.66a10.18,10.18,0,0,0,2.72-3c2.36-3.53,4.95-4.56,8.68-3.54a5,5,0,0,1,2.47,1.44,3.27,3.27,0,0,0,3,1,5.89,5.89,0,0,1,4.49,1.45c-.12.42-.42.34-.73.28a9.13,9.13,0,0,0-3,0c-2.92.39-4.15,1.69-4.17,4.62,0,7.2-3.89,12-9.61,15.71a11,11,0,0,1-2.24,1.24c-1.06.38-1.2.82-.78,1.89.85,2.14,2.12,3.52,4.58,3.48A2.76,2.76,0,0,1,430.54,431.45Zm-7.63-.85c.63,0,1.17-.09.7-1-.62-1.15-1.2-2.31-1.79-3.48-.41-.79-1-.66-1.66-.38-.83.35-.43.9-.22,1.37a18.77,18.77,0,0,0,1.16,2.28A2,2,0,0,0,422.91,430.6Z"/><path class="cls-2" d="M479.81,495.63H465c.94-.71,2.05-.6,3.08-.78s1.26-.53.69-1.39a3.31,3.31,0,0,1-.47-.78c-.89-2.78-3.08-4-5.59-5.1-2.87-1.32-5.37-.16-8,.42a20.52,20.52,0,0,0-6.72,2.75,6.14,6.14,0,0,1-2.62.77c-.29,0-.63.16-.79-.2s.2-.52.44-.67q2.55-1.51,5.09-3c.25-.15.58-.22.63-.64-.62-.4-1.24.37-2.18-.11l4.4-2.71c1.64-1,3.43-1.76,4.49-3.64.66-1.15,2.17-1.61,3.31-2.36,3.9-2.57,7.84-5.08,11.74-7.65a10.48,10.48,0,0,0,2.72-3.05c2.35-3.53,4.95-4.56,8.68-3.54a5,5,0,0,1,2.47,1.44,3.31,3.31,0,0,0,3,1,5.86,5.86,0,0,1,4.48,1.44c-.11.42-.41.35-.72.28a8.87,8.87,0,0,0-3,0c-2.93.38-4.16,1.69-4.17,4.61,0,7.2-3.9,12-9.61,15.72a11.77,11.77,0,0,1-2.25,1.24c-1.06.38-1.2.81-.77,1.88.85,2.15,2.11,3.52,4.57,3.48A2.84,2.84,0,0,1,479.81,495.63Zm-7.62-.85c.63,0,1.16-.08.7-.95-.62-1.14-1.2-2.31-1.8-3.47-.4-.79-1-.66-1.65-.38-.83.35-.44.89-.22,1.36a21.3,21.3,0,0,0,1.15,2.29A2,2,0,0,0,472.19,494.78Z"/><path class="cls-2" d="M529.09,46.35H514.31c.93-.71,2.05-.6,3.08-.78s1.25-.53.69-1.39a3.31,3.31,0,0,1-.47-.78c-.89-2.78-3.08-4-5.59-5.1-2.88-1.32-5.37-.16-8,.42a20.43,20.43,0,0,0-6.72,2.75,6.23,6.23,0,0,1-2.62.77c-.29,0-.63.16-.79-.2s.19-.52.44-.67c1.69-1,3.39-2,5.09-3,.24-.15.58-.23.63-.65-.63-.39-1.24.38-2.18-.11l4.39-2.7c1.65-1,3.44-1.76,4.5-3.64.65-1.15,2.17-1.61,3.31-2.36,3.9-2.57,7.84-5.08,11.73-7.66a10,10,0,0,0,2.72-3c2.36-3.53,5-4.56,8.69-3.54a5.12,5.12,0,0,1,2.47,1.44,3.3,3.3,0,0,0,3,1,5.82,5.82,0,0,1,4.48,1.44c-.11.42-.42.35-.73.28a8.81,8.81,0,0,0-3,0c-2.93.38-4.16,1.68-4.17,4.61,0,7.2-3.9,12-9.62,15.71a11,11,0,0,1-2.24,1.24c-1.06.38-1.2.82-.77,1.89.85,2.15,2.11,3.52,4.57,3.48A2.76,2.76,0,0,1,529.09,46.35Zm-7.62-.85c.63,0,1.16-.09.7-1-.62-1.15-1.21-2.31-1.8-3.47-.4-.8-1-.67-1.66-.39-.82.35-.43.9-.22,1.37a23.4,23.4,0,0,0,1.16,2.29A2,2,0,0,0,521.47,45.5Z"/><path class="cls-2" d="M578.37,110.53H563.59c.93-.71,2-.6,3.08-.78s1.25-.52.68-1.39a3.41,3.41,0,0,1-.46-.78c-.9-2.78-3.09-4-5.59-5.1-2.88-1.32-5.38-.16-8,.42a20.15,20.15,0,0,0-6.72,2.76,6.36,6.36,0,0,1-2.62.76c-.29,0-.64.16-.8-.2s.2-.52.45-.66l5.08-3c.25-.15.59-.22.63-.64-.62-.39-1.24.37-2.17-.11l4.39-2.71c1.65-1,3.43-1.76,4.5-3.64.65-1.15,2.17-1.61,3.31-2.36,3.9-2.56,7.83-5.08,11.73-7.65a10.34,10.34,0,0,0,2.72-3.05c2.36-3.53,5-4.56,8.68-3.54A5.11,5.11,0,0,1,585,80.25a3.31,3.31,0,0,0,3,1,5.88,5.88,0,0,1,4.49,1.44c-.12.42-.42.35-.73.28a9.06,9.06,0,0,0-3,0c-2.93.39-4.16,1.69-4.18,4.61,0,7.2-3.89,12-9.61,15.72a12,12,0,0,1-2.24,1.24c-1.06.38-1.2.81-.78,1.89.85,2.14,2.12,3.51,4.58,3.47A2.87,2.87,0,0,1,578.37,110.53Zm-7.63-.85c.63,0,1.17-.08.7-1-.62-1.14-1.2-2.31-1.79-3.47-.41-.79-1-.66-1.66-.38-.82.35-.43.89-.22,1.36a19.67,19.67,0,0,0,1.16,2.29A2,2,0,0,0,570.74,109.68Z"/><path class="cls-2" d="M530.88,559.81H516.1c.93-.71,2-.59,3.08-.78s1.25-.52.68-1.38a4,4,0,0,1-.47-.78c-.89-2.79-3.08-4-5.59-5.11-2.87-1.31-5.37-.16-8,.42a20.15,20.15,0,0,0-6.72,2.76,6.23,6.23,0,0,1-2.62.77c-.3,0-.64.16-.8-.21s.2-.52.44-.66l5.09-3.05c.25-.14.59-.22.63-.64-.62-.39-1.24.38-2.17-.11l4.39-2.71c1.65-1,3.43-1.76,4.5-3.63.65-1.16,2.17-1.62,3.31-2.37,3.9-2.56,7.83-5.08,11.73-7.65a10.34,10.34,0,0,0,2.72-3c2.36-3.53,4.95-4.56,8.68-3.53a5,5,0,0,1,2.47,1.43,3.31,3.31,0,0,0,3,1,5.92,5.92,0,0,1,4.49,1.44c-.12.43-.42.35-.73.29a8.87,8.87,0,0,0-3,0c-2.92.39-4.15,1.69-4.17,4.61,0,7.21-3.89,12-9.61,15.72a12,12,0,0,1-2.24,1.24c-1.06.38-1.2.82-.78,1.89.85,2.14,2.12,3.51,4.58,3.48A2.79,2.79,0,0,1,530.88,559.81Zm-7.63-.85c.63,0,1.17-.08.7-.94-.62-1.15-1.2-2.32-1.79-3.48-.41-.79-1-.66-1.66-.38-.83.35-.43.89-.22,1.37a20.36,20.36,0,0,0,1.16,2.28A2,2,0,0,0,523.25,559Z"/><path class="cls-2" d="M529.09,174.71H514.31c.93-.71,2.05-.59,3.08-.78s1.25-.52.69-1.38a3.52,3.52,0,0,1-.47-.78c-.89-2.79-3.08-4-5.59-5.11-2.88-1.31-5.37-.16-8,.43a20.22,20.22,0,0,0-6.72,2.75,6.23,6.23,0,0,1-2.62.77c-.29,0-.63.16-.79-.21s.19-.51.44-.66c1.69-1,3.39-2,5.09-3,.24-.15.58-.23.63-.65-.63-.39-1.24.38-2.18-.11,1.57-1,3-1.83,4.39-2.71,1.65-1,3.44-1.76,4.5-3.63.65-1.16,2.17-1.62,3.31-2.37,3.9-2.56,7.84-5.08,11.73-7.65a10.28,10.28,0,0,0,2.72-3c2.36-3.54,5-4.57,8.69-3.54a5.1,5.1,0,0,1,2.47,1.43,3.3,3.3,0,0,0,3,1,5.9,5.9,0,0,1,4.48,1.44c-.11.43-.42.35-.73.29a9.07,9.07,0,0,0-3,0c-2.93.39-4.16,1.69-4.17,4.62,0,7.2-3.9,12-9.62,15.71a12,12,0,0,1-2.24,1.24c-1.06.38-1.2.82-.77,1.89.85,2.14,2.11,3.51,4.57,3.48A2.79,2.79,0,0,1,529.09,174.71Zm-7.62-.85c.63,0,1.16-.08.7-.94-.62-1.15-1.21-2.32-1.8-3.48-.4-.79-1-.66-1.66-.38-.82.35-.43.89-.22,1.37a22.16,22.16,0,0,0,1.16,2.28A2,2,0,0,0,521.47,173.86Z"/><path class="cls-2" d="M578.37,238.9H563.59c.93-.71,2-.6,3.08-.78s1.25-.53.68-1.39a3.63,3.63,0,0,1-.46-.78c-.9-2.78-3.09-4-5.59-5.11-2.88-1.31-5.38-.15-8,.43a20.34,20.34,0,0,0-6.72,2.75,6.23,6.23,0,0,1-2.62.77c-.29,0-.64.16-.8-.2s.2-.52.45-.67l5.08-3c.25-.15.59-.23.63-.65-.62-.39-1.24.38-2.17-.11l4.39-2.7c1.65-1,3.43-1.76,4.5-3.64.65-1.15,2.17-1.61,3.31-2.36,3.9-2.57,7.83-5.08,11.73-7.66a10.18,10.18,0,0,0,2.72-3c2.36-3.53,5-4.56,8.68-3.54a5,5,0,0,1,2.47,1.44,3.31,3.31,0,0,0,3,1,5.84,5.84,0,0,1,4.49,1.44c-.12.42-.42.35-.73.28a8.81,8.81,0,0,0-3,0c-2.93.38-4.16,1.68-4.18,4.61,0,7.2-3.89,12-9.61,15.71a11,11,0,0,1-2.24,1.24c-1.06.38-1.2.82-.78,1.89.85,2.14,2.12,3.52,4.58,3.48A2.76,2.76,0,0,1,578.37,238.9Zm-7.63-.85c.63,0,1.17-.09.7-1-.62-1.15-1.2-2.31-1.79-3.47-.41-.8-1-.67-1.66-.39-.82.35-.43.9-.22,1.37a18.77,18.77,0,0,0,1.16,2.28A2,2,0,0,0,570.74,238.05Z"/><path class="cls-2" d="M529.09,303.08H514.31c.93-.71,2.05-.6,3.08-.78s1.25-.53.69-1.39a3.12,3.12,0,0,1-.47-.78c-.89-2.78-3.08-4-5.59-5.1-2.88-1.32-5.37-.16-8,.42a20.24,20.24,0,0,0-6.72,2.76,6.36,6.36,0,0,1-2.62.76c-.29,0-.63.16-.79-.2s.19-.52.44-.67l5.09-3c.24-.15.58-.22.63-.64-.63-.4-1.24.37-2.18-.11l4.39-2.71c1.65-1,3.44-1.76,4.5-3.64.65-1.15,2.17-1.61,3.31-2.36,3.9-2.57,7.84-5.08,11.73-7.65a10.2,10.2,0,0,0,2.72-3.05c2.36-3.53,5-4.56,8.69-3.54a5.12,5.12,0,0,1,2.47,1.44,3.3,3.3,0,0,0,3,1,5.86,5.86,0,0,1,4.48,1.44c-.11.42-.42.35-.73.28a9.07,9.07,0,0,0-3,0c-2.93.39-4.16,1.69-4.17,4.61,0,7.2-3.9,12-9.62,15.72a12,12,0,0,1-2.24,1.24c-1.06.38-1.2.81-.77,1.88.85,2.15,2.11,3.52,4.57,3.48A2.87,2.87,0,0,1,529.09,303.08Zm-7.62-.85c.63,0,1.16-.08.7-1-.62-1.14-1.21-2.31-1.8-3.47-.4-.79-1-.66-1.66-.38-.82.35-.43.89-.22,1.36a23.4,23.4,0,0,0,1.16,2.29A2,2,0,0,0,521.47,302.23Z"/><path class="cls-2" d="M578.37,367.26H563.59c.93-.71,2-.59,3.08-.78s1.25-.52.68-1.38a3.89,3.89,0,0,1-.46-.78c-.9-2.79-3.09-4-5.59-5.11-2.88-1.31-5.38-.16-8,.43a20.13,20.13,0,0,0-6.72,2.75,6.23,6.23,0,0,1-2.62.77c-.29,0-.64.16-.8-.21s.2-.52.45-.66l5.08-3.05c.25-.14.59-.22.63-.64-.62-.39-1.24.38-2.17-.11l4.39-2.71c1.65-1,3.43-1.76,4.5-3.63.65-1.16,2.17-1.62,3.31-2.37,3.9-2.56,7.83-5.08,11.73-7.65a10.34,10.34,0,0,0,2.72-3.05c2.36-3.53,5-4.56,8.68-3.53A5,5,0,0,1,585,337a3.31,3.31,0,0,0,3,1,5.92,5.92,0,0,1,4.49,1.44c-.12.43-.42.35-.73.29a8.81,8.81,0,0,0-3,0c-2.93.39-4.16,1.69-4.18,4.62,0,7.2-3.89,12-9.61,15.71a12,12,0,0,1-2.24,1.24c-1.06.38-1.2.82-.78,1.89.85,2.14,2.12,3.51,4.58,3.48A2.79,2.79,0,0,1,578.37,367.26Zm-7.63-.85c.63,0,1.17-.08.7-.94-.62-1.15-1.2-2.32-1.79-3.48-.41-.79-1-.66-1.66-.38-.82.35-.43.89-.22,1.37a20.36,20.36,0,0,0,1.16,2.28A2,2,0,0,0,570.74,366.41Z"/><path class="cls-2" d="M529.09,431.45H514.31c.93-.72,2.05-.6,3.08-.79s1.25-.52.69-1.38a3.31,3.31,0,0,1-.47-.78c-.89-2.78-3.08-4-5.59-5.11-2.88-1.31-5.37-.15-8,.43a20.43,20.43,0,0,0-6.72,2.75,6.23,6.23,0,0,1-2.62.77c-.29,0-.63.16-.79-.2s.19-.52.44-.67c1.69-1,3.39-2,5.09-3,.24-.15.58-.23.63-.65-.63-.39-1.24.38-2.18-.11l4.39-2.7c1.65-1,3.44-1.77,4.5-3.64.65-1.16,2.17-1.61,3.31-2.36,3.9-2.57,7.84-5.08,11.73-7.66a10,10,0,0,0,2.72-3c2.36-3.53,5-4.56,8.69-3.54a5,5,0,0,1,2.47,1.44,3.26,3.26,0,0,0,3,1,5.86,5.86,0,0,1,4.48,1.45c-.11.42-.42.34-.73.28a9.07,9.07,0,0,0-3,0c-2.93.39-4.16,1.69-4.17,4.62,0,7.2-3.9,12-9.62,15.71a11,11,0,0,1-2.24,1.24c-1.06.38-1.2.82-.77,1.89.85,2.14,2.11,3.52,4.57,3.48A2.76,2.76,0,0,1,529.09,431.45Zm-7.62-.85c.63,0,1.16-.09.7-1-.62-1.15-1.21-2.31-1.8-3.48-.4-.79-1-.66-1.66-.38-.82.35-.43.9-.22,1.37a22.16,22.16,0,0,0,1.16,2.28A2,2,0,0,0,521.47,430.6Z"/><path class="cls-2" d="M578.37,495.63H563.59c.93-.71,2-.6,3.08-.78s1.25-.53.68-1.39a3.63,3.63,0,0,1-.46-.78c-.9-2.78-3.09-4-5.59-5.1-2.88-1.32-5.38-.16-8,.42a20.34,20.34,0,0,0-6.72,2.75,6.23,6.23,0,0,1-2.62.77c-.29,0-.64.16-.8-.2s.2-.52.45-.67l5.08-3c.25-.15.59-.22.63-.64-.62-.4-1.24.37-2.17-.11l4.39-2.71c1.65-1,3.43-1.76,4.5-3.64.65-1.15,2.17-1.61,3.31-2.36,3.9-2.57,7.83-5.08,11.73-7.65a10.34,10.34,0,0,0,2.72-3.05c2.36-3.53,5-4.56,8.68-3.54a5,5,0,0,1,2.47,1.44,3.31,3.31,0,0,0,3,1,5.88,5.88,0,0,1,4.49,1.44c-.12.42-.42.35-.73.28a8.81,8.81,0,0,0-3,0c-2.93.38-4.16,1.69-4.18,4.61,0,7.2-3.89,12-9.61,15.72a12,12,0,0,1-2.24,1.24c-1.06.38-1.2.81-.78,1.88.85,2.15,2.12,3.52,4.58,3.48A2.87,2.87,0,0,1,578.37,495.63Zm-7.63-.85c.63,0,1.17-.08.7-.95-.62-1.14-1.2-2.31-1.79-3.47-.41-.79-1-.66-1.66-.38-.82.35-.43.89-.22,1.36a19.67,19.67,0,0,0,1.16,2.29A2,2,0,0,0,570.74,494.78Z"/><path class="cls-2" d="M85.6,623H70.82c.93-.71,2.05-.6,3.08-.78s1.25-.52.69-1.39a3.12,3.12,0,0,1-.47-.78c-.9-2.78-3.08-4-5.59-5.1-2.88-1.32-5.37-.16-8,.42a20.24,20.24,0,0,0-6.72,2.76,6.53,6.53,0,0,1-2.62.77c-.29,0-.64.15-.8-.21s.2-.52.45-.66l5.09-3c.24-.14.58-.22.63-.64-.63-.39-1.25.37-2.18-.11l4.39-2.71c1.65-1,3.43-1.76,4.5-3.64.65-1.15,2.17-1.61,3.31-2.36,3.9-2.56,7.83-5.08,11.73-7.65a10.34,10.34,0,0,0,2.72-3c2.36-3.53,4.95-4.56,8.69-3.54a5.12,5.12,0,0,1,2.46,1.44,3.31,3.31,0,0,0,3,1,5.88,5.88,0,0,1,4.49,1.44c-.12.42-.42.35-.73.28a9.06,9.06,0,0,0-3,0c-2.93.39-4.16,1.69-4.17,4.61,0,7.2-3.9,12-9.62,15.72a12,12,0,0,1-2.24,1.24c-1.06.38-1.2.82-.78,1.89.86,2.14,2.12,3.51,4.58,3.47A2.87,2.87,0,0,1,85.6,623ZM78,622.18c.63,0,1.17-.08.7-.95-.61-1.14-1.2-2.31-1.79-3.47-.4-.79-1-.66-1.66-.38-.82.35-.43.89-.22,1.37A22.2,22.2,0,0,0,76.16,621,2,2,0,0,0,78,622.18Z"/><path class="cls-2" d="M134.88,687.21H120.1c.93-.71,2-.59,3.08-.78s1.25-.52.68-1.38a4,4,0,0,1-.47-.78c-.89-2.79-3.08-4-5.59-5.11-2.87-1.31-5.37-.16-8,.43a20.27,20.27,0,0,0-6.73,2.75,6.14,6.14,0,0,1-2.61.77c-.3,0-.64.16-.8-.21s.2-.51.44-.66c1.7-1,3.4-2,5.09-3,.25-.15.58-.23.63-.65-.62-.39-1.24.38-2.17-.11l4.39-2.7c1.64-1,3.43-1.77,4.5-3.64.65-1.16,2.16-1.61,3.3-2.36,3.91-2.57,7.84-5.09,11.74-7.66a10.3,10.3,0,0,0,2.72-3c2.35-3.54,5-4.56,8.68-3.54a5,5,0,0,1,2.47,1.44,3.33,3.33,0,0,0,3,1,5.88,5.88,0,0,1,4.48,1.44c-.11.43-.41.35-.72.29a9.13,9.13,0,0,0-3,0c-2.92.39-4.16,1.69-4.17,4.62,0,7.2-3.89,12-9.61,15.71a11.45,11.45,0,0,1-2.24,1.24c-1.06.38-1.2.82-.78,1.89.85,2.14,2.12,3.51,4.57,3.48A2.81,2.81,0,0,1,134.88,687.21Zm-7.63-.85c.63,0,1.17-.08.7-.94-.62-1.15-1.2-2.32-1.79-3.48-.41-.79-1-.66-1.66-.38-.83.35-.43.89-.22,1.37a18.77,18.77,0,0,0,1.16,2.28A2,2,0,0,0,127.25,686.36Z"/><path class="cls-2" d="M184.15,623H169.37c.94-.71,2-.6,3.08-.78s1.25-.52.69-1.39a3.12,3.12,0,0,1-.47-.78c-.89-2.78-3.08-4-5.59-5.1-2.88-1.32-5.37-.16-8,.42a20.24,20.24,0,0,0-6.72,2.76,6.48,6.48,0,0,1-2.62.77c-.29,0-.63.15-.79-.21s.2-.52.44-.66l5.09-3c.24-.14.58-.22.63-.64-.62-.39-1.24.37-2.18-.11l4.39-2.71c1.65-1,3.44-1.76,4.5-3.64.66-1.15,2.17-1.61,3.31-2.36,3.9-2.56,7.84-5.08,11.73-7.65a10.2,10.2,0,0,0,2.72-3c2.36-3.53,4.95-4.56,8.69-3.54a5.11,5.11,0,0,1,2.47,1.44,3.3,3.3,0,0,0,3,1,5.86,5.86,0,0,1,4.48,1.44c-.11.42-.41.35-.72.28a9.12,9.12,0,0,0-3,0c-2.93.39-4.16,1.69-4.17,4.61,0,7.2-3.9,12-9.62,15.72a11.4,11.4,0,0,1-2.24,1.24c-1.06.38-1.2.82-.77,1.89.85,2.14,2.11,3.51,4.57,3.47A2.86,2.86,0,0,1,184.15,623Zm-7.62-.85c.63,0,1.16-.08.7-.95-.62-1.14-1.2-2.31-1.8-3.47-.4-.79-1-.66-1.65-.38-.83.35-.44.89-.22,1.37a22.11,22.11,0,0,0,1.15,2.28A2,2,0,0,0,176.53,622.18Z"/><path class="cls-2" d="M233.43,687.21H218.65c.93-.71,2-.59,3.08-.78s1.25-.52.69-1.38a3.52,3.52,0,0,1-.47-.78c-.89-2.79-3.08-4-5.59-5.11-2.88-1.31-5.37-.16-8,.43a20.22,20.22,0,0,0-6.72,2.75,6.23,6.23,0,0,1-2.62.77c-.29,0-.64.16-.79-.21s.19-.51.44-.66c1.69-1,3.39-2,5.09-3,.24-.15.58-.23.63-.65-.63-.39-1.25.38-2.18-.11l4.39-2.7c1.65-1,3.44-1.77,4.5-3.64.65-1.16,2.17-1.61,3.31-2.36,3.9-2.57,7.84-5.09,11.73-7.66a10.3,10.3,0,0,0,2.72-3c2.36-3.54,4.95-4.56,8.69-3.54a5,5,0,0,1,2.47,1.44,3.32,3.32,0,0,0,3,1,5.9,5.9,0,0,1,4.48,1.44c-.12.43-.42.35-.73.29a9.06,9.06,0,0,0-3,0c-2.93.39-4.16,1.69-4.17,4.62,0,7.2-3.9,12-9.62,15.71a11.45,11.45,0,0,1-2.24,1.24c-1.06.38-1.2.82-.77,1.89.85,2.14,2.11,3.51,4.57,3.48A2.79,2.79,0,0,1,233.43,687.21Zm-7.63-.85c.63,0,1.17-.08.7-.94-.61-1.15-1.2-2.32-1.79-3.48-.4-.79-1-.66-1.66-.38-.82.35-.43.89-.22,1.37a20.33,20.33,0,0,0,1.16,2.28A2,2,0,0,0,225.8,686.36Z"/><path class="cls-2" d="M282.71,623H267.93c.93-.71,2-.6,3.08-.78s1.25-.52.68-1.39a3.44,3.44,0,0,1-.47-.78c-.89-2.78-3.08-4-5.59-5.1-2.87-1.32-5.37-.16-8,.42a20.29,20.29,0,0,0-6.73,2.76,6.44,6.44,0,0,1-2.61.77c-.3,0-.64.15-.8-.21s.2-.52.44-.66l5.09-3c.25-.14.58-.22.63-.64-.62-.39-1.24.37-2.17-.11l4.39-2.71c1.64-1,3.43-1.76,4.5-3.64.65-1.15,2.17-1.61,3.31-2.36,3.9-2.56,7.83-5.08,11.73-7.65a10.34,10.34,0,0,0,2.72-3c2.35-3.53,5-4.56,8.68-3.54a5.11,5.11,0,0,1,2.47,1.44,3.31,3.31,0,0,0,3,1,5.85,5.85,0,0,1,4.48,1.44c-.11.42-.41.35-.72.28a9.13,9.13,0,0,0-3,0c-2.92.39-4.16,1.69-4.17,4.61,0,7.2-3.89,12-9.61,15.72a12,12,0,0,1-2.24,1.24c-1.06.38-1.2.82-.78,1.89.85,2.14,2.12,3.51,4.58,3.47A2.87,2.87,0,0,1,282.71,623Zm-7.63-.85c.63,0,1.17-.08.7-.95-.62-1.14-1.2-2.31-1.79-3.47-.41-.79-1-.66-1.66-.38-.83.35-.43.89-.22,1.37a20.36,20.36,0,0,0,1.16,2.28A2,2,0,0,0,275.08,622.18Z"/><path class="cls-2" d="M332,687.21H317.2c.94-.71,2.05-.59,3.08-.78s1.26-.52.69-1.38a3.52,3.52,0,0,1-.47-.78c-.89-2.79-3.08-4-5.59-5.11-2.87-1.31-5.37-.16-8,.43a20.3,20.3,0,0,0-6.72,2.75,6.19,6.19,0,0,1-2.62.77c-.29,0-.63.16-.79-.21s.2-.51.44-.66c1.69-1,3.4-2,5.09-3,.24-.15.58-.23.63-.65-.62-.39-1.24.38-2.18-.11l4.39-2.7c1.65-1,3.44-1.77,4.5-3.64.66-1.16,2.17-1.61,3.31-2.36,3.9-2.57,7.84-5.09,11.74-7.66a10.26,10.26,0,0,0,2.71-3c2.36-3.54,4.95-4.56,8.69-3.54a5,5,0,0,1,2.47,1.44,3.33,3.33,0,0,0,3,1,5.9,5.9,0,0,1,4.48,1.44c-.11.43-.41.35-.72.29a9.12,9.12,0,0,0-3,0c-2.93.39-4.16,1.69-4.17,4.62,0,7.2-3.9,12-9.62,15.71a10.9,10.9,0,0,1-2.24,1.24c-1.06.38-1.2.82-.77,1.89.85,2.14,2.11,3.51,4.57,3.48A2.77,2.77,0,0,1,332,687.21Zm-7.62-.85c.63,0,1.16-.08.7-.94-.62-1.15-1.2-2.32-1.8-3.48-.4-.79-1-.66-1.65-.38-.83.35-.44.89-.22,1.37a20.26,20.26,0,0,0,1.15,2.28A2,2,0,0,0,324.36,686.36Z"/><path class="cls-2" d="M381.26,623H366.48c.93-.71,2-.6,3.08-.78s1.25-.52.69-1.39a3.12,3.12,0,0,1-.47-.78c-.89-2.78-3.08-4-5.59-5.1-2.88-1.32-5.37-.16-8,.42a20.24,20.24,0,0,0-6.72,2.76,6.53,6.53,0,0,1-2.62.77c-.29,0-.64.15-.79-.21s.19-.52.44-.66l5.09-3c.24-.14.58-.22.63-.64-.63-.39-1.25.37-2.18-.11l4.39-2.71c1.65-1,3.44-1.76,4.5-3.64.65-1.15,2.17-1.61,3.31-2.36,3.9-2.56,7.84-5.08,11.73-7.65a10.2,10.2,0,0,0,2.72-3c2.36-3.53,4.95-4.56,8.69-3.54a5.2,5.2,0,0,1,2.47,1.44,3.3,3.3,0,0,0,3,1,5.86,5.86,0,0,1,4.48,1.44c-.11.42-.42.35-.73.28a9.06,9.06,0,0,0-3,0c-2.93.39-4.16,1.69-4.17,4.61,0,7.2-3.9,12-9.62,15.72a12,12,0,0,1-2.24,1.24c-1.06.38-1.2.82-.77,1.89.85,2.14,2.11,3.51,4.57,3.47A2.87,2.87,0,0,1,381.26,623Zm-7.63-.85c.63,0,1.17-.08.71-.95-.62-1.14-1.21-2.31-1.8-3.47-.4-.79-1-.66-1.66-.38s-.43.89-.22,1.37a22.2,22.2,0,0,0,1.16,2.28A2,2,0,0,0,373.63,622.18Z"/><path class="cls-2" d="M430.54,687.21H415.76c.93-.71,2.05-.59,3.08-.78s1.25-.52.68-1.38a4,4,0,0,1-.47-.78c-.89-2.79-3.08-4-5.59-5.11-2.87-1.31-5.37-.16-8,.43a20.27,20.27,0,0,0-6.73,2.75,6.14,6.14,0,0,1-2.61.77c-.3,0-.64.16-.8-.21s.2-.51.44-.66c1.7-1,3.4-2,5.09-3,.25-.15.58-.23.63-.65-.62-.39-1.24.38-2.17-.11l4.39-2.7c1.65-1,3.43-1.77,4.5-3.64.65-1.16,2.17-1.61,3.31-2.36,3.9-2.57,7.83-5.09,11.73-7.66a10.3,10.3,0,0,0,2.72-3c2.36-3.54,4.95-4.56,8.68-3.54a5,5,0,0,1,2.47,1.44,3.33,3.33,0,0,0,3,1,5.92,5.92,0,0,1,4.49,1.44c-.12.43-.42.35-.73.29a9.13,9.13,0,0,0-3,0c-2.92.39-4.15,1.69-4.17,4.62,0,7.2-3.89,12-9.61,15.71a11.45,11.45,0,0,1-2.24,1.24c-1.06.38-1.2.82-.78,1.89.85,2.14,2.12,3.51,4.58,3.48A2.79,2.79,0,0,1,430.54,687.21Zm-7.63-.85c.63,0,1.17-.08.7-.94-.62-1.15-1.2-2.32-1.79-3.48-.41-.79-1-.66-1.66-.38-.83.35-.43.89-.22,1.37a18.77,18.77,0,0,0,1.16,2.28A2,2,0,0,0,422.91,686.36Z"/><path class="cls-2" d="M85.6,751.4H70.82c.93-.71,2.05-.6,3.08-.78s1.25-.53.69-1.39a3.31,3.31,0,0,1-.47-.78c-.9-2.78-3.08-4-5.59-5.1-2.88-1.32-5.37-.16-8,.42a20.43,20.43,0,0,0-6.72,2.75,6.23,6.23,0,0,1-2.62.77c-.29,0-.64.16-.8-.2s.2-.52.45-.67c1.69-1,3.39-2,5.09-3,.24-.15.58-.23.63-.65-.63-.39-1.25.38-2.18-.11l4.39-2.7c1.65-1,3.43-1.76,4.5-3.64.65-1.15,2.17-1.61,3.31-2.36,3.9-2.57,7.83-5.08,11.73-7.66a10.18,10.18,0,0,0,2.72-3c2.36-3.53,4.95-4.56,8.69-3.54a5,5,0,0,1,2.46,1.44,3.31,3.31,0,0,0,3,1,5.84,5.84,0,0,1,4.49,1.44c-.12.42-.42.35-.73.28a8.81,8.81,0,0,0-3,0c-2.93.38-4.16,1.68-4.17,4.61,0,7.2-3.9,12-9.62,15.71a11,11,0,0,1-2.24,1.24c-1.06.38-1.2.82-.78,1.89.86,2.15,2.12,3.52,4.58,3.48A2.76,2.76,0,0,1,85.6,751.4ZM78,750.55c.63,0,1.17-.09.7-.95-.61-1.15-1.2-2.31-1.79-3.47-.4-.8-1-.67-1.66-.39-.82.35-.43.9-.22,1.37a21.37,21.37,0,0,0,1.16,2.29A2,2,0,0,0,78,750.55Z"/><path class="cls-2" d="M134.88,815.58H120.1c.93-.71,2-.6,3.08-.78s1.25-.52.68-1.39a3.44,3.44,0,0,1-.47-.78c-.89-2.78-3.08-4-5.59-5.1-2.87-1.32-5.37-.16-8,.42a20.29,20.29,0,0,0-6.73,2.76,6.28,6.28,0,0,1-2.61.76c-.3,0-.64.16-.8-.2s.2-.52.44-.66l5.09-3.05c.25-.15.58-.22.63-.64-.62-.39-1.24.37-2.17-.11l4.39-2.71c1.64-1,3.43-1.76,4.5-3.64.65-1.15,2.16-1.61,3.3-2.36,3.91-2.57,7.84-5.08,11.74-7.65a10.34,10.34,0,0,0,2.72-3.05c2.35-3.53,5-4.56,8.68-3.54a5.11,5.11,0,0,1,2.47,1.44,3.31,3.31,0,0,0,3,1,5.85,5.85,0,0,1,4.48,1.44c-.11.42-.41.35-.72.28a9.13,9.13,0,0,0-3,0c-2.92.39-4.16,1.69-4.17,4.61,0,7.2-3.89,12-9.61,15.72a12,12,0,0,1-2.24,1.24c-1.06.38-1.2.81-.78,1.89.85,2.14,2.12,3.51,4.57,3.47A2.88,2.88,0,0,1,134.88,815.58Zm-7.63-.85c.63,0,1.17-.08.7-1-.62-1.14-1.2-2.31-1.79-3.47-.41-.79-1-.66-1.66-.38-.83.35-.43.89-.22,1.36a19.67,19.67,0,0,0,1.16,2.29A2,2,0,0,0,127.25,814.73Z"/><path class="cls-2" d="M184.15,751.4H169.37c.94-.71,2-.6,3.08-.78s1.25-.53.69-1.39a3.31,3.31,0,0,1-.47-.78c-.89-2.78-3.08-4-5.59-5.1-2.88-1.32-5.37-.16-8,.42a20.43,20.43,0,0,0-6.72,2.75,6.19,6.19,0,0,1-2.62.77c-.29,0-.63.16-.79-.2s.2-.52.44-.67c1.69-1,3.4-2,5.09-3,.24-.15.58-.23.63-.65-.62-.39-1.24.38-2.18-.11,1.58-1,3-1.83,4.39-2.7,1.65-1,3.44-1.76,4.5-3.64.66-1.15,2.17-1.61,3.31-2.36,3.9-2.57,7.84-5.08,11.73-7.66a10,10,0,0,0,2.72-3c2.36-3.53,4.95-4.56,8.69-3.54a5,5,0,0,1,2.47,1.44,3.3,3.3,0,0,0,3,1,5.82,5.82,0,0,1,4.48,1.44c-.11.42-.41.35-.72.28a8.87,8.87,0,0,0-3,0c-2.93.38-4.16,1.68-4.17,4.61,0,7.2-3.9,12-9.62,15.71a10.45,10.45,0,0,1-2.24,1.24c-1.06.38-1.2.82-.77,1.89.85,2.15,2.11,3.52,4.57,3.48A2.75,2.75,0,0,1,184.15,751.4Zm-7.62-.85c.63,0,1.16-.09.7-.95-.62-1.15-1.2-2.31-1.8-3.47-.4-.8-1-.67-1.65-.39-.83.35-.44.9-.22,1.37a21.3,21.3,0,0,0,1.15,2.29A2,2,0,0,0,176.53,750.55Z"/><path class="cls-2" d="M233.43,815.58H218.65c.93-.71,2-.6,3.08-.78s1.25-.52.69-1.39a3.12,3.12,0,0,1-.47-.78c-.89-2.78-3.08-4-5.59-5.1-2.88-1.32-5.37-.16-8,.42a20.24,20.24,0,0,0-6.72,2.76,6.36,6.36,0,0,1-2.62.76c-.29,0-.64.16-.79-.2s.19-.52.44-.66l5.09-3.05c.24-.15.58-.22.63-.64-.63-.39-1.25.37-2.18-.11l4.39-2.71c1.65-1,3.44-1.76,4.5-3.64.65-1.15,2.17-1.61,3.31-2.36,3.9-2.57,7.84-5.08,11.73-7.65a10.34,10.34,0,0,0,2.72-3.05c2.36-3.53,4.95-4.56,8.69-3.54A5.2,5.2,0,0,1,240,785.3a3.3,3.3,0,0,0,3,1,5.86,5.86,0,0,1,4.48,1.44c-.12.42-.42.35-.73.28a9.06,9.06,0,0,0-3,0c-2.93.39-4.16,1.69-4.17,4.61,0,7.2-3.9,12-9.62,15.72a12,12,0,0,1-2.24,1.24c-1.06.38-1.2.81-.77,1.89.85,2.14,2.11,3.51,4.57,3.47A2.87,2.87,0,0,1,233.43,815.58Zm-7.63-.85c.63,0,1.17-.08.7-1-.61-1.14-1.2-2.31-1.79-3.47-.4-.79-1-.66-1.66-.38-.82.35-.43.89-.22,1.36a21.37,21.37,0,0,0,1.16,2.29A2,2,0,0,0,225.8,814.73Z"/><path class="cls-2" d="M282.71,751.4H267.93c.93-.71,2-.6,3.08-.78s1.25-.53.68-1.39a3.68,3.68,0,0,1-.47-.78c-.89-2.78-3.08-4-5.59-5.1-2.87-1.32-5.37-.16-8,.42a20.48,20.48,0,0,0-6.73,2.75,6.14,6.14,0,0,1-2.61.77c-.3,0-.64.16-.8-.2s.2-.52.44-.67c1.7-1,3.4-2,5.09-3,.25-.15.58-.23.63-.65-.62-.39-1.24.38-2.17-.11l4.39-2.7c1.64-1,3.43-1.76,4.5-3.64.65-1.15,2.17-1.61,3.31-2.36,3.9-2.57,7.83-5.08,11.73-7.66a10.18,10.18,0,0,0,2.72-3c2.35-3.53,5-4.56,8.68-3.54a5,5,0,0,1,2.47,1.44,3.31,3.31,0,0,0,3,1,5.81,5.81,0,0,1,4.48,1.44c-.11.42-.41.35-.72.28a8.87,8.87,0,0,0-3,0c-2.92.38-4.16,1.68-4.17,4.61,0,7.2-3.89,12-9.61,15.71a11,11,0,0,1-2.24,1.24c-1.06.38-1.2.82-.78,1.89.85,2.15,2.12,3.52,4.58,3.48A2.76,2.76,0,0,1,282.71,751.4Zm-7.63-.85c.63,0,1.17-.09.7-.95-.62-1.15-1.2-2.31-1.79-3.47-.41-.8-1-.67-1.66-.39-.83.35-.43.9-.22,1.37a19.67,19.67,0,0,0,1.16,2.29A2,2,0,0,0,275.08,750.55Z"/><path class="cls-2" d="M332,815.58H317.2c.94-.71,2.05-.6,3.08-.78s1.26-.52.69-1.39a3.12,3.12,0,0,1-.47-.78c-.89-2.78-3.08-4-5.59-5.1-2.87-1.32-5.37-.16-8,.42a20.33,20.33,0,0,0-6.72,2.76,6.32,6.32,0,0,1-2.62.76c-.29,0-.63.16-.79-.2s.2-.52.44-.66l5.09-3.05c.24-.15.58-.22.63-.64-.62-.39-1.24.37-2.18-.11l4.39-2.71c1.65-1,3.44-1.76,4.5-3.64.66-1.15,2.17-1.61,3.31-2.36,3.9-2.57,7.84-5.08,11.74-7.65a10.3,10.3,0,0,0,2.71-3.05c2.36-3.53,4.95-4.56,8.69-3.54a5.11,5.11,0,0,1,2.47,1.44,3.31,3.31,0,0,0,3,1,5.86,5.86,0,0,1,4.48,1.44c-.11.42-.41.35-.72.28a9.12,9.12,0,0,0-3,0c-2.93.39-4.16,1.69-4.17,4.61,0,7.2-3.9,12-9.62,15.72a11.4,11.4,0,0,1-2.24,1.24c-1.06.38-1.2.81-.77,1.89.85,2.14,2.11,3.51,4.57,3.47A2.84,2.84,0,0,1,332,815.58Zm-7.62-.85c.63,0,1.16-.08.7-1-.62-1.14-1.2-2.31-1.8-3.47-.4-.79-1-.66-1.65-.38-.83.35-.44.89-.22,1.36a21.3,21.3,0,0,0,1.15,2.29A2,2,0,0,0,324.36,814.73Z"/><path class="cls-2" d="M381.26,751.4H366.48c.93-.71,2-.6,3.08-.78s1.25-.53.69-1.39a3.31,3.31,0,0,1-.47-.78c-.89-2.78-3.08-4-5.59-5.1-2.88-1.32-5.37-.16-8,.42a20.43,20.43,0,0,0-6.72,2.75,6.23,6.23,0,0,1-2.62.77c-.29,0-.64.16-.79-.2s.19-.52.44-.67c1.69-1,3.39-2,5.09-3,.24-.15.58-.23.63-.65-.63-.39-1.25.38-2.18-.11l4.39-2.7c1.65-1,3.44-1.76,4.5-3.64.65-1.15,2.17-1.61,3.31-2.36,3.9-2.57,7.84-5.08,11.73-7.66a10,10,0,0,0,2.72-3c2.36-3.53,4.95-4.56,8.69-3.54a5.12,5.12,0,0,1,2.47,1.44,3.3,3.3,0,0,0,3,1,5.82,5.82,0,0,1,4.48,1.44c-.11.42-.42.35-.73.28a8.81,8.81,0,0,0-3,0c-2.93.38-4.16,1.68-4.17,4.61,0,7.2-3.9,12-9.62,15.71a11,11,0,0,1-2.24,1.24c-1.06.38-1.2.82-.77,1.89.85,2.15,2.11,3.52,4.57,3.48A2.76,2.76,0,0,1,381.26,751.4Zm-7.63-.85c.63,0,1.17-.09.71-.95-.62-1.15-1.21-2.31-1.8-3.47-.4-.8-1-.67-1.66-.39s-.43.9-.22,1.37a21.37,21.37,0,0,0,1.16,2.29A2,2,0,0,0,373.63,750.55Z"/><path class="cls-2" d="M430.54,815.58H415.76c.93-.71,2.05-.6,3.08-.78s1.25-.52.68-1.39a3.44,3.44,0,0,1-.47-.78c-.89-2.78-3.08-4-5.59-5.1-2.87-1.32-5.37-.16-8,.42a20.29,20.29,0,0,0-6.73,2.76,6.28,6.28,0,0,1-2.61.76c-.3,0-.64.16-.8-.2s.2-.52.44-.66l5.09-3.05c.25-.15.58-.22.63-.64-.62-.39-1.24.37-2.17-.11l4.39-2.71c1.65-1,3.43-1.76,4.5-3.64.65-1.15,2.17-1.61,3.31-2.36,3.9-2.57,7.83-5.08,11.73-7.65A10.34,10.34,0,0,0,426,787.4c2.36-3.53,4.95-4.56,8.68-3.54a5.11,5.11,0,0,1,2.47,1.44,3.31,3.31,0,0,0,3,1,5.88,5.88,0,0,1,4.49,1.44c-.12.42-.42.35-.73.28a9.13,9.13,0,0,0-3,0c-2.92.39-4.15,1.69-4.17,4.61,0,7.2-3.89,12-9.61,15.72a12,12,0,0,1-2.24,1.24c-1.06.38-1.2.81-.78,1.89.85,2.14,2.12,3.51,4.58,3.47A2.87,2.87,0,0,1,430.54,815.58Zm-7.63-.85c.63,0,1.17-.08.7-1-.62-1.14-1.2-2.31-1.79-3.47-.41-.79-1-.66-1.66-.38-.83.35-.43.89-.22,1.36a19.67,19.67,0,0,0,1.16,2.29A2,2,0,0,0,422.91,814.73Z"/><path class="cls-2" d="M36.32,816.54H21.54c.93-.71,2.05-.59,3.08-.78s1.25-.52.69-1.38a3.52,3.52,0,0,1-.47-.78c-.89-2.79-3.08-4-5.59-5.11-2.88-1.31-5.37-.15-8,.43a20.22,20.22,0,0,0-6.72,2.75,6.23,6.23,0,0,1-2.62.77c-.29,0-.63.16-.79-.2s.19-.52.44-.67c1.69-1,3.39-2,5.09-3,.24-.15.58-.23.63-.65-.63-.39-1.24.38-2.18-.11l4.39-2.7c1.65-1,3.44-1.77,4.5-3.64.66-1.16,2.17-1.61,3.31-2.36,3.9-2.57,7.84-5.09,11.73-7.66a10.16,10.16,0,0,0,2.72-3c2.36-3.53,4.95-4.56,8.69-3.54a5,5,0,0,1,2.47,1.44,3.29,3.29,0,0,0,3,1,5.9,5.9,0,0,1,4.48,1.44c-.11.43-.42.35-.72.29a9.12,9.12,0,0,0-3,0c-2.93.39-4.16,1.69-4.17,4.62,0,7.2-3.9,12-9.62,15.71a10.9,10.9,0,0,1-2.24,1.24c-1.06.38-1.2.82-.77,1.89.85,2.14,2.11,3.52,4.57,3.48A2.78,2.78,0,0,1,36.32,816.54Zm-7.62-.84c.63,0,1.16-.09.7-1-.62-1.15-1.2-2.32-1.8-3.48-.4-.79-1-.66-1.65-.38-.83.35-.44.9-.22,1.37a20.26,20.26,0,0,0,1.15,2.28A2,2,0,0,0,28.7,815.7Z"/><path class="cls-2" d="M41.26,687.21H26.48c.94-.71,2.05-.59,3.08-.78s1.26-.52.69-1.38a3.52,3.52,0,0,1-.47-.78c-.89-2.79-3.08-4-5.59-5.11-2.87-1.31-5.37-.16-8,.43a20.3,20.3,0,0,0-6.72,2.75,6.19,6.19,0,0,1-2.62.77c-.29,0-.63.16-.79-.21s.2-.51.44-.66c1.69-1,3.4-2,5.09-3,.24-.15.58-.23.63-.65-.62-.39-1.24.38-2.18-.11l4.39-2.7c1.65-1,3.44-1.77,4.5-3.64.66-1.16,2.17-1.61,3.31-2.36,3.9-2.57,7.84-5.09,11.74-7.66a10.26,10.26,0,0,0,2.71-3c2.36-3.54,4.95-4.56,8.69-3.54a5,5,0,0,1,2.47,1.44,3.33,3.33,0,0,0,3,1,5.9,5.9,0,0,1,4.48,1.44c-.11.43-.41.35-.72.29a9.12,9.12,0,0,0-3,0c-2.93.39-4.16,1.69-4.17,4.62,0,7.2-3.9,12-9.62,15.71a10.9,10.9,0,0,1-2.24,1.24c-1.06.38-1.2.82-.77,1.89.85,2.14,2.11,3.51,4.57,3.48A2.77,2.77,0,0,1,41.26,687.21Zm-7.62-.85c.63,0,1.16-.08.7-.94-.62-1.15-1.2-2.32-1.8-3.48-.4-.79-1-.66-1.65-.38-.83.35-.44.89-.22,1.37a20.26,20.26,0,0,0,1.15,2.28A2,2,0,0,0,33.64,686.36Z"/><path class="cls-2" d="M481.6,623H466.82c.93-.71,2.05-.6,3.08-.78s1.25-.52.69-1.39a3.12,3.12,0,0,1-.47-.78c-.89-2.78-3.08-4-5.59-5.1-2.88-1.32-5.37-.16-8,.42a20.24,20.24,0,0,0-6.72,2.76,6.53,6.53,0,0,1-2.62.77c-.29,0-.64.15-.79-.21s.19-.52.44-.66l5.09-3c.24-.14.58-.22.63-.64-.63-.39-1.25.37-2.18-.11l4.39-2.71c1.65-1,3.44-1.76,4.5-3.64.65-1.15,2.17-1.61,3.31-2.36,3.9-2.56,7.84-5.08,11.73-7.65a10.2,10.2,0,0,0,2.72-3c2.36-3.53,4.95-4.56,8.69-3.54a5.2,5.2,0,0,1,2.47,1.44,3.3,3.3,0,0,0,3,1,5.86,5.86,0,0,1,4.48,1.44c-.11.42-.42.35-.73.28a9.06,9.06,0,0,0-3,0c-2.93.39-4.16,1.69-4.17,4.61,0,7.2-3.9,12-9.62,15.72a12,12,0,0,1-2.24,1.24c-1.06.38-1.2.82-.77,1.89.85,2.14,2.11,3.51,4.57,3.47A2.87,2.87,0,0,1,481.6,623Zm-7.63-.85c.63,0,1.17-.08.71-.95-.62-1.14-1.21-2.31-1.8-3.47-.4-.79-1-.66-1.66-.38-.82.35-.43.89-.22,1.37a22.2,22.2,0,0,0,1.16,2.28A2,2,0,0,0,474,622.18Z"/><path class="cls-2" d="M530.88,687.21H516.1c.93-.71,2-.59,3.08-.78s1.25-.52.68-1.38a4,4,0,0,1-.47-.78c-.89-2.79-3.08-4-5.59-5.11-2.87-1.31-5.37-.16-8,.43a20.13,20.13,0,0,0-6.72,2.75,6.23,6.23,0,0,1-2.62.77c-.3,0-.64.16-.8-.21s.2-.51.44-.66c1.7-1,3.4-2,5.09-3,.25-.15.59-.23.63-.65-.62-.39-1.24.38-2.17-.11l4.39-2.7c1.65-1,3.43-1.77,4.5-3.64.65-1.16,2.17-1.61,3.31-2.36,3.9-2.57,7.83-5.09,11.73-7.66a10.3,10.3,0,0,0,2.72-3c2.36-3.54,4.95-4.56,8.68-3.54a5,5,0,0,1,2.47,1.44,3.33,3.33,0,0,0,3,1,5.92,5.92,0,0,1,4.49,1.44c-.12.43-.42.35-.73.29a9.13,9.13,0,0,0-3,0c-2.92.39-4.15,1.69-4.17,4.62,0,7.2-3.89,12-9.61,15.71a11.45,11.45,0,0,1-2.24,1.24c-1.06.38-1.2.82-.78,1.89.85,2.14,2.12,3.51,4.58,3.48A2.79,2.79,0,0,1,530.88,687.21Zm-7.63-.85c.63,0,1.17-.08.7-.94-.62-1.15-1.2-2.32-1.79-3.48-.41-.79-1-.66-1.66-.38-.83.35-.43.89-.22,1.37a18.77,18.77,0,0,0,1.16,2.28A2,2,0,0,0,523.25,686.36Z"/><path class="cls-2" d="M580.15,623H565.37c.94-.71,2-.6,3.08-.78s1.26-.52.69-1.39a3.12,3.12,0,0,1-.47-.78c-.89-2.78-3.08-4-5.59-5.1-2.87-1.32-5.37-.16-8,.42a20.33,20.33,0,0,0-6.72,2.76,6.44,6.44,0,0,1-2.62.77c-.29,0-.63.15-.79-.21s.2-.52.44-.66l5.09-3c.25-.14.58-.22.63-.64-.62-.39-1.24.37-2.18-.11l4.4-2.71c1.64-1,3.43-1.76,4.49-3.64.66-1.15,2.17-1.61,3.31-2.36,3.9-2.56,7.84-5.08,11.74-7.65a10.48,10.48,0,0,0,2.72-3c2.35-3.53,4.95-4.56,8.68-3.54a5.11,5.11,0,0,1,2.47,1.44,3.31,3.31,0,0,0,3,1,5.86,5.86,0,0,1,4.48,1.44c-.11.42-.41.35-.72.28a9.12,9.12,0,0,0-3,0c-2.93.39-4.16,1.69-4.17,4.61,0,7.2-3.9,12-9.61,15.72a11.77,11.77,0,0,1-2.25,1.24c-1.06.38-1.2.82-.77,1.89.85,2.14,2.11,3.51,4.57,3.47A2.84,2.84,0,0,1,580.15,623Zm-7.62-.85c.63,0,1.16-.08.7-.95-.62-1.14-1.2-2.31-1.8-3.47-.4-.79-1-.66-1.65-.38-.83.35-.44.89-.22,1.37a22.11,22.11,0,0,0,1.15,2.28A2,2,0,0,0,572.53,622.18Z"/><path class="cls-2" d="M481.6,751.4H466.82c.93-.71,2.05-.6,3.08-.78s1.25-.53.69-1.39a3.31,3.31,0,0,1-.47-.78c-.89-2.78-3.08-4-5.59-5.1-2.88-1.32-5.37-.16-8,.42a20.43,20.43,0,0,0-6.72,2.75,6.23,6.23,0,0,1-2.62.77c-.29,0-.64.16-.79-.2s.19-.52.44-.67c1.69-1,3.39-2,5.09-3,.24-.15.58-.23.63-.65-.63-.39-1.25.38-2.18-.11l4.39-2.7c1.65-1,3.44-1.76,4.5-3.64.65-1.15,2.17-1.61,3.31-2.36,3.9-2.57,7.84-5.08,11.73-7.66a10,10,0,0,0,2.72-3c2.36-3.53,4.95-4.56,8.69-3.54a5.12,5.12,0,0,1,2.47,1.44,3.3,3.3,0,0,0,3,1,5.82,5.82,0,0,1,4.48,1.44c-.11.42-.42.35-.73.28a8.81,8.81,0,0,0-3,0c-2.93.38-4.16,1.68-4.17,4.61,0,7.2-3.9,12-9.62,15.71a11,11,0,0,1-2.24,1.24c-1.06.38-1.2.82-.77,1.89.85,2.15,2.11,3.52,4.57,3.48A2.76,2.76,0,0,1,481.6,751.4Zm-7.63-.85c.63,0,1.17-.09.71-.95-.62-1.15-1.21-2.31-1.8-3.47-.4-.8-1-.67-1.66-.39-.82.35-.43.9-.22,1.37a21.37,21.37,0,0,0,1.16,2.29A2,2,0,0,0,474,750.55Z"/><path class="cls-2" d="M530.88,815.58H516.1c.93-.71,2-.6,3.08-.78s1.25-.52.68-1.39a3.44,3.44,0,0,1-.47-.78c-.89-2.78-3.08-4-5.59-5.1-2.87-1.32-5.37-.16-8,.42a20.15,20.15,0,0,0-6.72,2.76,6.36,6.36,0,0,1-2.62.76c-.3,0-.64.16-.8-.2s.2-.52.44-.66l5.09-3.05c.25-.15.59-.22.63-.64-.62-.39-1.24.37-2.17-.11l4.39-2.71c1.65-1,3.43-1.76,4.5-3.64.65-1.15,2.17-1.61,3.31-2.36,3.9-2.57,7.83-5.08,11.73-7.65a10.34,10.34,0,0,0,2.72-3.05c2.36-3.53,4.95-4.56,8.68-3.54a5.11,5.11,0,0,1,2.47,1.44,3.31,3.31,0,0,0,3,1,5.88,5.88,0,0,1,4.49,1.44c-.12.42-.42.35-.73.28a9.13,9.13,0,0,0-3,0c-2.92.39-4.15,1.69-4.17,4.61,0,7.2-3.89,12-9.61,15.72a12,12,0,0,1-2.24,1.24c-1.06.38-1.2.81-.78,1.89.85,2.14,2.12,3.51,4.58,3.47A2.87,2.87,0,0,1,530.88,815.58Zm-7.63-.85c.63,0,1.17-.08.7-1-.62-1.14-1.2-2.31-1.79-3.47-.41-.79-1-.66-1.66-.38-.83.35-.43.89-.22,1.36a19.67,19.67,0,0,0,1.16,2.29A2,2,0,0,0,523.25,814.73Z"/><path class="cls-2" d="M580.15,751.4H565.37c.94-.71,2-.6,3.08-.78s1.26-.53.69-1.39a3.31,3.31,0,0,1-.47-.78c-.89-2.78-3.08-4-5.59-5.1-2.87-1.32-5.37-.16-8,.42a20.52,20.52,0,0,0-6.72,2.75,6.14,6.14,0,0,1-2.62.77c-.29,0-.63.16-.79-.2s.2-.52.44-.67c1.7-1,3.4-2,5.09-3,.25-.15.58-.23.63-.65-.62-.39-1.24.38-2.18-.11l4.4-2.7c1.64-1,3.43-1.76,4.49-3.64.66-1.15,2.17-1.61,3.31-2.36,3.9-2.57,7.84-5.08,11.74-7.66a10.31,10.31,0,0,0,2.72-3c2.35-3.53,4.95-4.56,8.68-3.54a5,5,0,0,1,2.47,1.44,3.31,3.31,0,0,0,3,1,5.82,5.82,0,0,1,4.48,1.44c-.11.42-.41.35-.72.28a8.87,8.87,0,0,0-3,0c-2.93.38-4.16,1.68-4.17,4.61,0,7.2-3.9,12-9.61,15.71a10.77,10.77,0,0,1-2.25,1.24c-1.06.38-1.2.82-.77,1.89.85,2.15,2.11,3.52,4.57,3.48A2.74,2.74,0,0,1,580.15,751.4Zm-7.62-.85c.63,0,1.16-.09.7-.95-.62-1.15-1.2-2.31-1.8-3.47-.4-.8-1-.67-1.65-.39-.83.35-.44.9-.22,1.37a21.3,21.3,0,0,0,1.15,2.29A2,2,0,0,0,572.53,750.55Z"/><path class="cls-2" d="M39.68,46.35H24.9c.93-.71,2.05-.6,3.08-.78s1.25-.53.69-1.39a3.31,3.31,0,0,1-.47-.78c-.89-2.78-3.08-4-5.59-5.1-2.88-1.32-5.37-.16-8,.42A20.43,20.43,0,0,0,7.9,41.47a6.23,6.23,0,0,1-2.62.77c-.29,0-.64.16-.79-.2s.19-.52.44-.67c1.69-1,3.39-2,5.09-3,.24-.15.58-.23.63-.65-.63-.39-1.25.38-2.18-.11l4.39-2.7c1.65-1,3.44-1.76,4.5-3.64.65-1.15,2.17-1.61,3.31-2.36,3.9-2.57,7.83-5.08,11.73-7.66a10.18,10.18,0,0,0,2.72-3c2.36-3.53,5-4.56,8.69-3.54a5.12,5.12,0,0,1,2.47,1.44,3.3,3.3,0,0,0,3,1,5.82,5.82,0,0,1,4.48,1.44c-.12.42-.42.35-.73.28a8.81,8.81,0,0,0-3,0c-2.93.38-4.16,1.68-4.17,4.61,0,7.2-3.9,12-9.62,15.71a11,11,0,0,1-2.24,1.24c-1.06.38-1.2.82-.78,1.89.86,2.15,2.12,3.52,4.58,3.48A2.76,2.76,0,0,1,39.68,46.35Zm-7.63-.85c.63,0,1.17-.09.7-1-.61-1.15-1.2-2.31-1.79-3.47-.4-.8-1-.67-1.66-.39-.82.35-.43.9-.22,1.37a21.37,21.37,0,0,0,1.16,2.29A2,2,0,0,0,32.05,45.5Z"/><path class="cls-2" d="M89,110.53H74.18c.93-.71,2-.6,3.08-.78s1.25-.52.68-1.39a3.44,3.44,0,0,1-.47-.78c-.89-2.78-3.08-4-5.59-5.1-2.87-1.32-5.37-.16-8,.42a20.29,20.29,0,0,0-6.73,2.76,6.28,6.28,0,0,1-2.61.76c-.3,0-.64.16-.8-.2s.2-.52.44-.66l5.09-3c.25-.15.58-.22.63-.64-.62-.39-1.24.37-2.17-.11l4.39-2.71c1.64-1,3.43-1.76,4.5-3.64.65-1.15,2.17-1.61,3.31-2.36,3.9-2.56,7.83-5.08,11.73-7.65a10.34,10.34,0,0,0,2.72-3.05c2.35-3.53,4.95-4.56,8.68-3.54a5.11,5.11,0,0,1,2.47,1.44,3.31,3.31,0,0,0,3,1A5.85,5.85,0,0,1,103,82.73c-.11.42-.41.35-.72.28a9.13,9.13,0,0,0-3,0c-2.92.39-4.16,1.69-4.17,4.61,0,7.2-3.89,12-9.61,15.72a12,12,0,0,1-2.24,1.24c-1.06.38-1.2.81-.78,1.89.85,2.14,2.12,3.51,4.58,3.47A2.87,2.87,0,0,1,89,110.53Zm-7.63-.85c.63,0,1.17-.08.7-1-.62-1.14-1.2-2.31-1.79-3.47-.41-.79-1-.66-1.66-.38-.83.35-.43.89-.22,1.36a19.67,19.67,0,0,0,1.16,2.29A2,2,0,0,0,81.33,109.68Z"/><path class="cls-2" d="M41.47,559.81H26.69c.93-.71,2-.59,3.07-.78s1.26-.52.69-1.38a4,4,0,0,1-.47-.78c-.89-2.79-3.08-4-5.59-5.11-2.87-1.31-5.37-.16-8,.42a20.29,20.29,0,0,0-6.73,2.76,6.14,6.14,0,0,1-2.61.77c-.3,0-.64.16-.8-.21s.2-.52.44-.66l5.09-3.05c.25-.14.58-.22.63-.64-.62-.39-1.24.38-2.17-.11l4.39-2.71c1.64-1,3.43-1.76,4.49-3.63.66-1.16,2.17-1.62,3.31-2.37,3.91-2.56,7.84-5.08,11.74-7.65a10.34,10.34,0,0,0,2.72-3c2.35-3.53,5-4.56,8.68-3.53a5,5,0,0,1,2.47,1.43,3.31,3.31,0,0,0,3,1A5.88,5.88,0,0,1,55.5,532c-.11.43-.41.35-.72.29a8.87,8.87,0,0,0-3,0c-2.92.39-4.16,1.69-4.17,4.61,0,7.21-3.89,12-9.61,15.72a12,12,0,0,1-2.24,1.24c-1.06.38-1.2.82-.78,1.89.85,2.14,2.12,3.51,4.57,3.48A2.81,2.81,0,0,1,41.47,559.81ZM33.84,559c.63,0,1.17-.08.7-.94-.62-1.15-1.2-2.32-1.79-3.48-.41-.79-1-.66-1.66-.38-.83.35-.43.89-.22,1.37A20.36,20.36,0,0,0,32,557.81,2,2,0,0,0,33.84,559Z"/><path class="cls-2" d="M39.68,174.71H24.9c.93-.71,2.05-.59,3.08-.78s1.25-.52.69-1.38a3.52,3.52,0,0,1-.47-.78c-.89-2.79-3.08-4-5.59-5.11-2.88-1.31-5.37-.16-8,.43a20.22,20.22,0,0,0-6.72,2.75,6.23,6.23,0,0,1-2.62.77c-.29,0-.64.16-.79-.21s.19-.51.44-.66c1.69-1,3.39-2,5.09-3,.24-.15.58-.23.63-.65-.63-.39-1.25.38-2.18-.11l4.39-2.71c1.65-1,3.44-1.76,4.5-3.63.65-1.16,2.17-1.62,3.31-2.37,3.9-2.56,7.83-5.08,11.73-7.65a10.42,10.42,0,0,0,2.72-3c2.36-3.54,5-4.57,8.69-3.54a5.1,5.1,0,0,1,2.47,1.43,3.3,3.3,0,0,0,3,1,5.9,5.9,0,0,1,4.48,1.44c-.12.43-.42.35-.73.29a9.06,9.06,0,0,0-3,0c-2.93.39-4.16,1.69-4.17,4.62,0,7.2-3.9,12-9.62,15.71a12,12,0,0,1-2.24,1.24c-1.06.38-1.2.82-.78,1.89.86,2.14,2.12,3.51,4.58,3.48A2.79,2.79,0,0,1,39.68,174.71Zm-7.63-.85c.63,0,1.17-.08.7-.94-.61-1.15-1.2-2.32-1.79-3.48-.4-.79-1-.66-1.66-.38-.82.35-.43.89-.22,1.37a20.33,20.33,0,0,0,1.16,2.28A2,2,0,0,0,32.05,173.86Z"/><path class="cls-2" d="M89,238.9H74.18c.93-.71,2-.6,3.08-.78s1.25-.53.68-1.39a3.68,3.68,0,0,1-.47-.78c-.89-2.78-3.08-4-5.59-5.11-2.87-1.31-5.37-.15-8,.43A20.48,20.48,0,0,0,57.17,234a6.14,6.14,0,0,1-2.61.77c-.3,0-.64.16-.8-.2s.2-.52.44-.67c1.7-1,3.4-2,5.09-3,.25-.15.58-.23.63-.65-.62-.39-1.24.38-2.17-.11l4.39-2.7c1.64-1,3.43-1.76,4.5-3.64.65-1.15,2.17-1.61,3.31-2.36,3.9-2.57,7.83-5.08,11.73-7.66a10.18,10.18,0,0,0,2.72-3c2.35-3.53,4.95-4.56,8.68-3.54a5,5,0,0,1,2.47,1.44,3.31,3.31,0,0,0,3,1A5.81,5.81,0,0,1,103,211.1c-.11.42-.41.35-.72.28a8.87,8.87,0,0,0-3,0c-2.92.38-4.16,1.68-4.17,4.61,0,7.2-3.89,12-9.61,15.71A11,11,0,0,1,83.21,233c-1.06.38-1.2.82-.78,1.89.85,2.14,2.12,3.52,4.58,3.48A2.76,2.76,0,0,1,89,238.9Zm-7.63-.85c.63,0,1.17-.09.7-1-.62-1.15-1.2-2.31-1.79-3.47-.41-.8-1-.67-1.66-.39-.83.35-.43.9-.22,1.37a18.77,18.77,0,0,0,1.16,2.28A2,2,0,0,0,81.33,238.05Z"/><path class="cls-2" d="M39.68,303.08H24.9c.93-.71,2.05-.6,3.08-.78s1.25-.53.69-1.39a3.12,3.12,0,0,1-.47-.78c-.89-2.78-3.08-4-5.59-5.1-2.88-1.32-5.37-.16-8,.42a20.24,20.24,0,0,0-6.72,2.76,6.36,6.36,0,0,1-2.62.76c-.29,0-.64.16-.79-.2s.19-.52.44-.67l5.09-3c.24-.15.58-.22.63-.64-.63-.4-1.25.37-2.18-.11l4.39-2.71c1.65-1,3.44-1.76,4.5-3.64.65-1.15,2.17-1.61,3.31-2.36,3.9-2.57,7.83-5.08,11.73-7.65a10.34,10.34,0,0,0,2.72-3.05c2.36-3.53,5-4.56,8.69-3.54a5.12,5.12,0,0,1,2.47,1.44,3.3,3.3,0,0,0,3,1,5.86,5.86,0,0,1,4.48,1.44c-.12.42-.42.35-.73.28a9.06,9.06,0,0,0-3,0c-2.93.39-4.16,1.69-4.17,4.61,0,7.2-3.9,12-9.62,15.72a12,12,0,0,1-2.24,1.24c-1.06.38-1.2.81-.78,1.88.86,2.15,2.12,3.52,4.58,3.48A2.87,2.87,0,0,1,39.68,303.08Zm-7.63-.85c.63,0,1.17-.08.7-1-.61-1.14-1.2-2.31-1.79-3.47-.4-.79-1-.66-1.66-.38-.82.35-.43.89-.22,1.36a21.37,21.37,0,0,0,1.16,2.29A2,2,0,0,0,32.05,302.23Z"/><path class="cls-2" d="M89,367.26H74.18c.93-.71,2-.59,3.08-.78s1.25-.52.68-1.38a4,4,0,0,1-.47-.78c-.89-2.79-3.08-4-5.59-5.11-2.87-1.31-5.37-.16-8,.43a20.27,20.27,0,0,0-6.73,2.75,6.14,6.14,0,0,1-2.61.77c-.3,0-.64.16-.8-.21s.2-.52.44-.66l5.09-3.05c.25-.14.58-.22.63-.64-.62-.39-1.24.38-2.17-.11l4.39-2.71c1.64-1,3.43-1.76,4.5-3.63.65-1.16,2.17-1.62,3.31-2.37,3.9-2.56,7.83-5.08,11.73-7.65a10.34,10.34,0,0,0,2.72-3.05c2.35-3.53,4.95-4.56,8.68-3.53A5,5,0,0,1,95.55,337a3.31,3.31,0,0,0,3,1,5.88,5.88,0,0,1,4.48,1.44c-.11.43-.41.35-.72.29a8.87,8.87,0,0,0-3,0c-2.92.39-4.16,1.69-4.17,4.62,0,7.2-3.89,12-9.61,15.71a12,12,0,0,1-2.24,1.24c-1.06.38-1.2.82-.78,1.89.85,2.14,2.12,3.51,4.58,3.48A2.79,2.79,0,0,1,89,367.26Zm-7.63-.85c.63,0,1.17-.08.7-.94-.62-1.15-1.2-2.32-1.79-3.48-.41-.79-1-.66-1.66-.38-.83.35-.43.89-.22,1.37a20.36,20.36,0,0,0,1.16,2.28A2,2,0,0,0,81.33,366.41Z"/><path class="cls-2" d="M39.68,431.45H24.9c.93-.72,2.05-.6,3.08-.79s1.25-.52.69-1.38a3.31,3.31,0,0,1-.47-.78c-.89-2.78-3.08-4-5.59-5.11-2.88-1.31-5.37-.15-8,.43a20.43,20.43,0,0,0-6.72,2.75,6.23,6.23,0,0,1-2.62.77c-.29,0-.64.16-.79-.2s.19-.52.44-.67c1.69-1,3.39-2,5.09-3,.24-.15.58-.23.63-.65-.63-.39-1.25.38-2.18-.11l4.39-2.7c1.65-1,3.44-1.77,4.5-3.64.65-1.16,2.17-1.61,3.31-2.36,3.9-2.57,7.83-5.08,11.73-7.66a10.18,10.18,0,0,0,2.72-3c2.36-3.53,5-4.56,8.69-3.54a5,5,0,0,1,2.47,1.44,3.26,3.26,0,0,0,3,1,5.86,5.86,0,0,1,4.48,1.45c-.12.42-.42.34-.73.28a9.06,9.06,0,0,0-3,0c-2.93.39-4.16,1.69-4.17,4.62,0,7.2-3.9,12-9.62,15.71a11,11,0,0,1-2.24,1.24c-1.06.38-1.2.82-.78,1.89.86,2.14,2.12,3.52,4.58,3.48A2.76,2.76,0,0,1,39.68,431.45Zm-7.63-.85c.63,0,1.17-.09.7-1-.61-1.15-1.2-2.31-1.79-3.48-.4-.79-1-.66-1.66-.38-.82.35-.43.9-.22,1.37a20.33,20.33,0,0,0,1.16,2.28A2,2,0,0,0,32.05,430.6Z"/><path class="cls-2" d="M89,495.63H74.18c.93-.71,2-.6,3.08-.78s1.25-.53.68-1.39a3.68,3.68,0,0,1-.47-.78c-.89-2.78-3.08-4-5.59-5.1-2.87-1.32-5.37-.16-8,.42a20.48,20.48,0,0,0-6.73,2.75,6.14,6.14,0,0,1-2.61.77c-.3,0-.64.16-.8-.2s.2-.52.44-.67q2.55-1.51,5.09-3c.25-.15.58-.22.63-.64-.62-.4-1.24.37-2.17-.11l4.39-2.71c1.64-1,3.43-1.76,4.5-3.64.65-1.15,2.17-1.61,3.31-2.36,3.9-2.57,7.83-5.08,11.73-7.65a10.34,10.34,0,0,0,2.72-3.05c2.35-3.53,4.95-4.56,8.68-3.54a5,5,0,0,1,2.47,1.44,3.31,3.31,0,0,0,3,1,5.85,5.85,0,0,1,4.48,1.44c-.11.42-.41.35-.72.28a8.87,8.87,0,0,0-3,0c-2.92.38-4.16,1.69-4.17,4.61,0,7.2-3.89,12-9.61,15.72a12,12,0,0,1-2.24,1.24c-1.06.38-1.2.81-.78,1.88.85,2.15,2.12,3.52,4.58,3.48A2.87,2.87,0,0,1,89,495.63Zm-7.63-.85c.63,0,1.17-.08.7-.95-.62-1.14-1.2-2.31-1.79-3.47-.41-.79-1-.66-1.66-.38-.83.35-.43.89-.22,1.36a19.67,19.67,0,0,0,1.16,2.29A2,2,0,0,0,81.33,494.78Z"/></svg>