<svg id="Capa_1" data-name="Capa 1" xmlns="http://www.w3.org/2000/svg" viewBox="0 0 438.8 698.94"><defs><style>.cls-1{fill:#fcfdfc;}.cls-2{fill:#113e20;}.cls-3{fill:#207841;}</style></defs><path class="cls-1" d="M446.62,682c-1.47-8.66-9-9.46-14.84-12.54.19-.72,1.09-.59,1.63-1,2.19-1.64,4-2.39,6.69-.17,3.18,2.6,4.57,1.85,3.85-2.09-.87-4.75,2.47-4.83,5.32-6.4-1.22,3.86-1.37,7.47-1.81,11-.32,2.52,1,4.4,2.42,6,1.93,2.25,1.15,3.17-1.16,3.94A16.87,16.87,0,0,0,446.62,682Z" transform="translate(-81.4 -81.61)"/><path class="cls-1" d="M470.88,132.78c-4.52-4.85-10.13-5.51-16.2-4.17-1.5.33-3.1,1-3.08,2.88s1.52,2.82,3.32,3q4.21.42,8.45.71a24.49,24.49,0,0,1,6.55,1.41,7.38,7.38,0,0,1,5.38,6.71c.35,3.61-.76,6.57-4.05,8.34-7,3.76-14.37,3.4-21.65,1.39-6.23-1.73-6.19-2.17-2.16-8,5.12,4.23,11,5,17.23,3.44,1.71-.42,3.66-1,3.72-3.17.07-2.46-2.07-2.63-3.77-2.85-3.85-.51-7.75-.69-11.59-1.28-5.56-.86-8.3-3.47-8.62-7.8s2.28-8,7.22-9.69c6.43-2.13,12.74-1.07,18.95,1.09,4.4,1.53,4.41,1.51,2,5.74C472.11,131.38,471.82,132.33,470.88,132.78Z" transform="translate(-81.4 -81.61)"/><path class="cls-2" d="M482.41,629.28c-3.81-5.51-7.27-11.32-11.67-16.32-2.37-2.7-1.93-3.37.47-5.25,19.13-14.94,32.65-34,41.29-56.65,4.77-12.47,6.46-25.55,7.7-38.73q0-12.39-.05-24.78l-.06-391.8a5.36,5.36,0,0,1,.09-.7c-2.25-7.37-7-12-14.69-13.44-1.64.06-3.28.18-4.92.18l-403.14,0A13.06,13.06,0,0,1,96,81.68c-2,.65-4.2.8-6.09,2-6.14,4-8.55,9.71-8.55,16.82q0,199.23.07,398.48c0,14.34,1,28.6,5.12,42.51C93.38,564.58,105,584.6,123,600.85c3,2.77,6.19,5.41,9.35,8,.7.58,1.94,1,.63,2.4-8,8.54-13.54,18.88-20.29,28.33-9.45,13.21-18.21,26.91-27.32,40.36C81,686.4,81.93,693.69,88,698.5c4.06,3.21,8.14,6.39,12.28,9.49a341.39,341.39,0,0,0,59.56,35.69c3.38,1.6,6.88,2.94,10.32,4.4A281.93,281.93,0,0,0,435,746.9l-.07,0a321.23,321.23,0,0,0,54.13-30c8.69-6,17.4-12,25.5-18.81,5.13-4.3,6.56-12,3-16.83C505.45,664.23,494.33,646.49,482.41,629.28ZM500.22,506a109.9,109.9,0,0,1-8.32,41.92c-7.26,17.58-18.61,32-33.4,44a203.22,203.22,0,0,1-24.64,16.7c-6.34,3.78-13.4,6.45-20.38,9.09-9.06,3.42-18.17,6.73-27.24,10.12s-17.92,6.79-26.9,10.14c-8.21,3.07-16.5,6-24.37,9.81-9,4.36-18.37,8.26-26.41,14.47-.72.56-1.3,1.64-2.37,1.17-1.27-.55-.74-1.85-.74-2.84q0-42,0-83.95h0V495.11c0-5.36.28-5.91,5.55-6.33,23.32-1.87,40.75-14.23,54.49-31.93a84.58,84.58,0,0,0,17.82-47.16c.19-3,2.1-3.28,4-3.16,18.75,1.19,37.51.32,56.26.47,18.3.14,36.59-.05,54.89-.19,1.25,0,1.76.19,1.79,1.38s0,2.13,0,3.19C500.27,442.91,500.34,474.43,500.22,506ZM102,299.44h0q0-45,0-90c0-10,4.22-14.27,14.08-14.28q87.66,0,175.32-.1c3.49,0,4.28,1.12,4.27,4.43q-.17,54.38,0,108.74c0,3.42-.78,4.73-4.48,4.85-8,.26-15.49,2.78-22.68,6-16.83,7.56-29.35,19.78-39,35.47-4.66,7.57-7.44,15.76-10,24a48.55,48.55,0,0,0-2.55,13.79c0,2.53-.85,3.57-3.51,3.57q-54.18-.09-108.38,0c-3,0-3.1-1.48-3.1-3.73Q102,345.83,102,299.44Zm125.1,85.29c3.42-13.63,8.86-26.53,18.39-37.3,17.51-19.77,39.4-29,65.55-24.87,26.5,4.15,45.51,19.69,56.09,44,13.74,31.62,9.9,61.79-12.1,88.67-11.31,13.83-26.22,22.21-44.23,24.92-22.71,3.42-42.52-3.14-59-18.28-17.38-16-25.85-36.51-25.89-61.85A47.67,47.67,0,0,1,227.08,384.73Zm269.82,13q-54.37-.17-108.75,0c-3.34,0-4.47-.62-4.81-4.33a91.42,91.42,0,0,0-17.89-47.27,81.66,81.66,0,0,0-49.9-32.09,65.85,65.85,0,0,0-8.75-1.13c-1.55-.11-2.12-.65-1.95-2.15a17.42,17.42,0,0,0,0-1.77c0-36.6,0-73.21-.08-109.81,0-3.53.85-4.5,4.45-4.49q88.2.2,176.41.11c5.39,0,10.37.92,13.3,6.26,1.38,2.52,1.26,5.24,1.27,7.94q0,45.87,0,91.75h.05c0,31.17,0,62.35.06,93.52C500.32,397,499.74,397.76,496.9,397.75ZM101.43,114.84c.09-9.19,7-13.12,14.14-13.1q92.81.17,185.61.06H486.79c8.66,0,14.11,5.44,14.11,14,0,15.24-.06,30.47,0,45.7.05,8.86-4.18,15.34-15.4,15.33q-179.94-.16-359.88-.08c-4.34,0-8.68,0-13-.33-7.1-.55-11.07-6.68-11.15-12.75Q101.17,139.29,101.43,114.84Zm18.41,451.44c-12-17.37-17.32-36.93-17.66-57.65-.56-33.64-.2-67.29-.29-100.93,0-1.95.41-2.65,2.51-2.65q54.9.1,109.79,0c1.94,0,2.66.51,2.78,2.54a89.47,89.47,0,0,0,17.72,48.8,82.9,82.9,0,0,0,42.37,30.33A68.78,68.78,0,0,0,294.23,490c1.95.1,2.41.87,2.36,2.58-.08,2.59,0,5.19,0,7.79l0,159.72v3.75c-23.27-15.66-49.19-23.82-74.44-33.48-16.28-6.23-32.94-11.58-48.58-19.32C152.12,600.41,133.62,586.16,119.84,566.28ZM424.12,752h-.4c0-.39.3-.52.62-.63A.54.54,0,0,0,424.12,752Zm3.63-2,2.89-1.2Zm64.8-61.46c-6.78,4.78-13.52,9.63-20.4,14.26a282,282,0,0,1-30.73,17.76c-8.91,4.5-18.15,8.27-27.43,12a254.56,254.56,0,0,1-31,10.32c-5.22,1.34-10.54,2.33-15.74,3.74-9.58,2.6-19.55,3.06-29.17,5.43H263.22c-5.16-.86-10.31-1.76-15.48-2.57a289.34,289.34,0,0,1-29.26-6.22c-9.29-2.46-18.5-5.19-27.5-8.56a350,350,0,0,1-33.14-14.61c-8.51-4.23-16.83-8.84-24.88-13.76a186.1,186.1,0,0,1-26.21-18.93c-1.17-1-1.26-1.73-.44-2.93,4.93-7.3,9.79-14.64,14.75-21.92,5.92-8.7,12-17.28,17.81-26,1.69-2.54,3.12-2.3,5.15-.76,6.14,4.65,12,9.75,18.56,13.73,6,3.63,11.94,7.33,18.16,10.55,10.74,5.55,21.59,10.89,33,14.87a309.82,309.82,0,0,0,33.55,9.49c21,4.76,42.35,6.21,63.8,5.39a246.5,246.5,0,0,0,38.79-4.62c8.21-1.63,16.27-3.81,24.24-6.17a230.4,230.4,0,0,0,32.38-12.72,324.71,324.71,0,0,0,29.21-16.11,151.66,151.66,0,0,0,20.34-14.45c2.44-2.08,3.71-1.24,5.25,1,8.84,13.15,17.78,26.23,26.69,39.34,1.78,2.62,3.72,5.12,5.44,7.79C494.92,686.09,494.28,687.3,492.55,688.53Z" transform="translate(-81.4 -81.61)"/><path class="cls-3" d="M305.42,576.58V495.11c0-5.36.28-5.91,5.55-6.33,23.32-1.87,40.75-14.23,54.49-31.93a84.58,84.58,0,0,0,17.82-47.16c.19-3,2.1-3.28,4-3.16,18.75,1.19,37.51.32,56.26.47,18.3.14,36.59-.05,54.89-.19,1.25,0,1.76.19,1.79,1.38s0,2.13,0,3.19c0,31.53.06,63.05-.06,94.58a109.9,109.9,0,0,1-8.32,41.92c-7.26,17.58-18.61,32-33.4,44a203.22,203.22,0,0,1-24.64,16.7c-6.34,3.78-13.4,6.45-20.38,9.09-9.06,3.42-18.17,6.73-27.24,10.12s-17.92,6.79-26.9,10.14c-8.21,3.07-16.5,6-24.37,9.81-9,4.36-18.37,8.26-26.41,14.47-.72.56-1.3,1.64-2.37,1.17-1.27-.55-.74-1.85-.74-2.84q0-42,0-83.95Zm148-90.88-.77-.73a5.8,5.8,0,0,1-5.68.21c-10.61-4.94-21.69-7.79-33.54-7.16-14.74.78-27.77,5.25-37.17,17.26-9.92,12.7-9.72,32.56.12,45.15,6,7.69,14,12.12,23.36,14.23,16.41,3.7,32.29,3,47-6.24,2.7-1.69,5-4.22,8.92-4.35L444.86,528.8a11.89,11.89,0,0,1-5.34,8.3c-13,8.49-26.68,9.11-40.82,3.47-7.11-2.83-11.92-8.05-13.63-15.55-2.92-12.77.49-25.76,13.84-31.26,13.52-5.57,26.75-4,39.45,2.91a5.32,5.32,0,0,1,3.17,4c.23,1.55,1.37,1.67,2.17.43C447,496,450.18,490.83,453.41,485.7Z" transform="translate(-81.4 -81.61)"/><path class="cls-1" d="M296.53,663.8c-23.27-15.66-49.19-23.82-74.44-33.48-16.28-6.23-32.94-11.58-48.58-19.32-21.39-10.59-39.89-24.84-53.67-44.72-12-17.37-17.32-36.93-17.66-57.65-.56-33.64-.2-67.29-.29-100.93,0-1.95.41-2.65,2.51-2.65q54.9.1,109.79,0c1.94,0,2.66.51,2.78,2.54a89.47,89.47,0,0,0,17.72,48.8,82.9,82.9,0,0,0,42.37,30.33A68.78,68.78,0,0,0,294.23,490c1.95.1,2.41.87,2.36,2.58-.08,2.59,0,5.19,0,7.79l0,159.72ZM150.93,552.28c-.93.72-3,.55-2.55,2.27.37,1.31,2.11.56,3.18.58,4.72.11,9.44.12,14.16,0,1.91,0,3.95.56,6.07-.62-1.78-1.87-3.78-3.23-3.7-6.14.2-7.78.17-15.57.06-23.36,0-2.15.55-2.87,2.75-2.86q18.93.14,37.87,0c2.31,0,3.1.72,3.06,3-.13,7.67-.11,15.34-.09,23,0,2-.33,3.73-2.29,4.78-.59.31-1.36.72-1,1.59s1.18.57,1.85.57h19.47c.7,0,1.45.05,1.9-1-1.78-1.65-3.38-3.3-3.36-6.32.17-20.3.11-40.59.07-60.89,0-2.21.06-4.28,2.36-5.46.54-.28,1-.7.79-1.39s-.89-.7-1.46-.7q-10.08,0-20.17,0c-.59,0-1.25.05-1.5.71-.32.87.27,1.3,1,1.56,2,.76,2.34,2.43,2.34,4.3,0,7,0,13.93.05,20.89,0,2.14-.63,2.8-2.84,2.78q-18.94-.17-37.88,0c-2.06,0-2.95-.43-2.9-2.71.13-7,.05-13.93.05-20.89,0-2,.2-3.8,2.54-4.47a1.12,1.12,0,0,0,.91-1.31c-.22-.84-1-1-1.71-.88-2.58.23-5.19-.41-7.75.27l-12.36-.11c-.57,0-1.24-.1-1.49.61a1,1,0,0,0,.74,1.36c2.67.83,2.57,3,2.57,5.15q0,30.76,0,61.53A12,12,0,0,1,150.93,552.28Z" transform="translate(-81.4 -81.61)"/><path class="cls-1" d="M500.25,300.76c0,31.17,0,62.35.06,93.52,0,2.72-.57,3.48-3.41,3.47q-54.37-.17-108.75,0c-3.34,0-4.47-.62-4.81-4.33a91.42,91.42,0,0,0-17.89-47.27,81.66,81.66,0,0,0-49.9-32.09,65.85,65.85,0,0,0-8.75-1.13c-1.55-.11-2.12-.65-1.95-2.15a17.42,17.42,0,0,0,0-1.77c0-36.6,0-73.21-.08-109.81,0-3.53.85-4.5,4.45-4.49q88.2.2,176.41.11c5.39,0,10.37.92,13.3,6.26,1.38,2.52,1.26,5.24,1.27,7.94q0,45.87,0,91.75ZM372.7,307.81l.39.79c5.22,0,10.44.06,15.66,0,1.8,0,5.61.92,1.95-3-.39-.4-.25-1.36-.25-2.06,0-7.68,0-15.35-.08-23,0-2.18.83-2.86,3-2.81,5.07.12,10.15.16,15.22,0a5.08,5.08,0,0,1,4.93,2.61c4.73,7.19,9.59,14.29,14.33,21.47,1.09,1.66,3,3,1.9,5.64-.55,1.33,1,1.2,1.9,1.21q9,0,18.07,0c.65,0,1.56.27,1.79-.65s-.63-1.12-1.3-1.3a4.83,4.83,0,0,1-2.87-1.93C441.6,296.5,436,288.24,430.25,280c-1.22-1.76-.68-2.31,1.24-2.71a25.47,25.47,0,0,0,9.69-4.1c10.55-7.52,10.95-24.57.83-32.56-6.49-5.12-14.36-5.81-21.94-6.15-14.61-.66-29.27-.32-43.91-.38a8.67,8.67,0,0,0-2.45.17c-.89.26-1.59,1.21-.42,1.7,3.26,1.37,2.14,4.18,2.15,6.38.09,19.6,0,39.2,0,58.8C375.43,303.72,375.75,306.32,372.7,307.81Z" transform="translate(-81.4 -81.61)"/><path class="cls-3" d="M102,299.44q0-45,0-90c0-10,4.22-14.27,14.08-14.28q87.66,0,175.32-.1c3.49,0,4.28,1.12,4.27,4.43q-.17,54.38,0,108.74c0,3.42-.78,4.73-4.48,4.85-8,.26-15.49,2.78-22.68,6-16.83,7.56-29.35,19.78-39,35.47-4.66,7.57-7.44,15.76-10,24a48.55,48.55,0,0,0-2.55,13.79c0,2.53-.85,3.57-3.51,3.57q-54.18-.09-108.38,0c-3,0-3.1-1.48-3.1-3.73q.06-46.41,0-92.8Zm58.81-39.34.65-.22c.3.47.62.93.89,1.41q12.78,23,25.57,46c1.72,3.07,3.27,3.06,4.94,0,3.35-6.2,6.59-12.45,9.88-18.69,5.28-10,10.55-20.07,16.06-30.55a16.87,16.87,0,0,1,.38,2.24q0,22.14,0,44.27c0,1,.1,2-.88,2.89-2,1.74-.5,2,1,2,4,.07,8,.17,12,.08,1.59,0,5.17.85,1.81-2.78-.65-.7-.48-2.26-.48-3.43q0-31.87.06-63.74c0-1.59-.27-3.23,1.49-4.42,1.3-.87.46-1.7-.72-1.71-6.61-.06-13.21-.05-19.82,0-1.19,0-2,.74-.9,1.74,2,1.83.72,3.51-.07,5.07-2.72,5.35-5.61,10.61-8.43,15.91l-13.86,26.08c-2.84-3.82-4.74-7.74-6.87-11.51q-8.67-15.37-17.35-30.76c-.72-1.29-1.86-2.64-.71-4.23,1.65-2.3-.17-2.34-1.59-2.35-5.67,0-11.33,0-17,0-.68,0-1.58-.19-1.92.53-.54,1.13.61,1.3,1.25,1.71,1.66,1.06,1.08,2.75,1.09,4.2,0,20.65,0,41.31.05,62,0,2.69.18,5.31-2.63,7.17a93,93,0,0,0,19.39.1c-1.45-1.78-3.39-2.17-3.37-4.41C160.82,289.83,160.76,275,160.76,260.1Z" transform="translate(-81.4 -81.61)"/><path class="cls-3" d="M301.18,101.81H486.79c8.66,0,14.11,5.44,14.11,14,0,15.24-.06,30.47,0,45.7.05,8.86-4.18,15.34-15.4,15.33q-179.94-.16-359.88-.08c-4.34,0-8.68,0-13-.33-7.1-.55-11.07-6.68-11.15-12.75q-.28-24.43,0-48.88c.09-9.19,7-13.12,14.14-13.1Q208.38,101.91,301.18,101.81ZM166,123c-3.55,0-6.25,0-8.95,0-.74,0-1.71-.29-1.89,1-.81,6.07-5.41,10.31-7.64,15.7-.46,1.1-1.39,1.8-2.19.13-2.56-5.32-6.78-9.85-7.66-16-.15-1.07-1-.86-1.57-.86-2.81,0-5.62,0-8.05,0,0,8.52-.12,16.75.09,25,0,2-1.55,4.91.34,5.95s4.57.22,6.54.22c-1.85-6.7-.43-13.29-1-19.81l.93-.22L146,154.56l11.11-20.15c.65,6.66,1.67,13.14.08,19.81,2.13,0,4.36,0,6.59,0,.79,0,1.56,0,1.39-1.35-1.05-8.09-.29-16.22-.47-24.34C164.67,126.77,164.44,125,166,123Zm304.93,9.76c.94-.45,1.23-1.4,1.69-2.2,2.42-4.23,2.41-4.21-2-5.74-6.21-2.16-12.52-3.22-18.95-1.09-4.94,1.64-7.54,5.28-7.22,9.69s3.06,6.94,8.62,7.8c3.84.59,7.74.77,11.59,1.28,1.7.22,3.84.39,3.77,2.85-.06,2.21-2,2.75-3.72,3.17-6.26,1.56-12.11.79-17.23-3.44-4,5.79-4.07,6.23,2.16,8,7.28,2,14.67,2.37,21.65-1.39,3.29-1.77,4.4-4.73,4.05-8.34a7.38,7.38,0,0,0-5.38-6.71,24.49,24.49,0,0,0-6.55-1.41q-4.23-.28-8.45-.71c-1.8-.19-3.29-1-3.32-3s1.58-2.55,3.08-2.88C460.75,127.27,466.36,127.93,470.88,132.78Zm-162.19-4.43v25.73a20.58,20.58,0,0,0,6.28,0c-1.22-5.93-.5-11.69-.67-18.53,5.91,6.09,11.12,11.25,15.74,17,1,1.24,5.87,2.39,7.19,1.52.48-.31.41-.64.32-1.15-1.21-6.64-.11-13.37-.67-20-.14-1.58,2-3.57-.16-4.53-1.45-.65-3.47-.08-5.23,0-.15,0-.29.3-.12.11,1,4.82.38,9.39.47,13.93,0,.66.28,1.51-.52,1.89-1,.49-1.45-.53-2-1.07-3.34-3.48-7.15-6.65-9.78-10.61s-6-4.88-10.29-4.4A3.42,3.42,0,0,0,308.69,128.35ZM407,153.59c-2.87-2.14-4.23-5-6.15-7.51-1.31-1.69-1.64-2.71.8-3.88,3.17-1.51,4.43-4.46,3.85-7.94s-3-5.19-6.35-5.65c-6.34-.88-12.72-.23-19.08-.44-1.12,0-1.69.23-1.51,1.64.81,6.33.19,12.71.31,19.06.11,6,0,6,6.24,5.13.1,0,.19-.12.41-.26a18.67,18.67,0,0,1-.74-7.91c.06-1.05.19-1.72,1.44-2,4.07-.85,6.94,0,8.92,3.83,2.39,4.6,4.87,8.36,10.92,6.39C406.13,154,406.22,154,407,153.59ZM212.4,136.8l.92-.45c5,5.31,10,10.56,14.88,15.94,1.24,1.37,5.56,2.71,7.05,1.8.49-.29.46-.63.41-1.14-.79-7.63-.41-15.28-.24-22.92.07-3.07-2.29-1.47-3.58-1.7s-2.29-.33-2,2c.52,4.19.25,8.47.29,12.71,0,.57.19,1.3-.52,1.51a1.45,1.45,0,0,1-1.2-.4c-4.35-4.64-8.71-9.27-12.93-14-1.22-1.36-6.62-2.74-8.11-1.75-.49.33-.47.69-.39,1.18,1.09,6.91.75,13.91.31,20.79-.26,4.07,1.21,4.26,4.14,3.93l1.55-.18C212,148.2,212.7,142.49,212.4,136.8ZM259,132.7c-4.9,6.26-9.23,11.78-13.54,17.32-.85,1.1-2.5,2.25-2,3.5.56,1.49,2.52.64,3.83.67,5.78.1,11.56,0,17.34,0,4.94,0,4.94,0,4.5-5,0-.18-.25-.35-.3-.41-3.9,1.6-7.94.59-11.87.86-.85.06-2.05.49-2.56-.55s.58-1.68,1.13-2.38c4.2-5.24,8.43-10.45,12.62-15.69.56-.69,1.6-1.47.94-2.39-.33-.46-1.49-.45-2.28-.46-4.84,0-9.67.05-14.51,0-3,0-6.06.7-9.11-1.47,0,2.62-.32,4.79.22,6.78C248.41,132,253.3,132.91,259,132.7Zm44.51,21.58c-3.85-8.58-8.78-16.21-11.19-25a1.26,1.26,0,0,0-1.49-1.05c-2.23,0-4.59-.3-6.66.31-1.43.42-.49,2.77-1.37,4.07a23.59,23.59,0,0,0-1.36,2.87c-3.06,6.05-5.33,12.46-9.06,18.55,1.5.07,2.65.18,3.8.17,1.89,0,4.07.85,3.76-2.82-.17-1.91,1.41-3.86,4.27-3.52a29,29,0,0,0,6.72,0c2.88-.32,4.56,1.2,4.52,3.62,0,3,1.51,2.85,3.48,2.79C300.48,154.24,302,154.28,303.55,154.28Zm-125.07-.21c-1.06-4.12.45-6.11,4.51-6.14a65.44,65.44,0,0,0,6.72,0c2.93-.33,4.24,1.59,4.08,3.65-.22,2.87,1.23,2.76,3.07,2.76h4.95c-3.81-8.69-8.83-16.27-11.32-25-.19-.68-.47-1-1.14-1.05-2.24,0-4.54-.32-6.7.11-1.93.37-.82,2.62-1.47,3.95-2.64,5.39-5.2,10.85-7.41,16.43-.72,1.81-3.56,3.72-2.12,5.1C172.82,155,175.9,154.07,178.48,154.07Zm246.36-25.85h-9.53c-1.18,0-1.85.09-1.72,1.77a148.26,148.26,0,0,1,0,22.6c-.07.81-.2,1.39.76,1.53,1.73.26,3.52.85,5.19.62a73.93,73.93,0,0,1,16.49-.16c2.75.24,1.71-2,1.73-3.25,0-.91.62-2.79-1.54-2.21-4.54,1.21-9.14.31-13.7.6-1.93.12-2.69-.56-2.79-2.58-.14-3,.38-4.81,4-4.26a38.09,38.09,0,0,0,5.66.13c.78,0,1.91,1.34,2.28-.24a8.86,8.86,0,0,0,0-4.19c-.38-1.47-1.54-.21-2.36-.21-2.24,0-4.5-.11-6.72.12-2.76.29-2.61-1.39-2.75-3.28-.15-2.07.63-2.72,2.61-2.6,4.35.26,8.73-.31,13.07.37.55.08,1.35.48,1.46-.29a25.59,25.59,0,0,0,.12-4.55c0-.73-.64-.85-1.31-.6C432.07,128.91,428.25,127.79,424.84,128.22Zm-51.51,25.84c-3.76-8.51-8.46-16.15-11.1-24.7-.27-.87-.66-1.15-1.43-1.14-2.12,0-4.31-.25-6.33.22-1.8.41-.87,2.62-1.54,4-3.48,7-6.32,14.35-10.11,21.3,1.47.86,2.9.46,4.26.51s3.09.67,2.77-2.35c-.23-2.2,1.39-4.41,4.58-4.05a33.54,33.54,0,0,0,6.72,0c2.48-.24,4.24.85,4.22,3.1,0,4.05,2.55,3.35,4.94,3.31C371.24,154.2,372.17,154.13,373.33,154.06Z" transform="translate(-81.4 -81.61)"/><path class="cls-1" d="M225.91,400.06a47.67,47.67,0,0,1,1.17-15.33c3.42-13.63,8.86-26.53,18.39-37.3,17.51-19.77,39.4-29,65.55-24.87,26.5,4.15,45.51,19.69,56.09,44,13.74,31.62,9.9,61.79-12.1,88.67-11.31,13.83-26.22,22.21-44.23,24.92-22.71,3.42-42.52-3.14-59-18.28C234.42,445.94,226,425.4,225.91,400.06Zm94.5,28.82a6.47,6.47,0,0,0-4.53-1.27c-5.71.09-8.64-3.1-10.62-8.07-1-2.49-.66-3.51,1.8-4.39a26,26,0,0,0,5.2-2.88c13.28-8.58,22.27-19.76,22.33-36.48,0-6.79,2.88-9.81,9.68-10.71a20.86,20.86,0,0,1,7.05-.08c.72.15,1.42.32,1.68-.66-2.63-2.36-5.73-3.51-10.4-3.35-2.71.1-4.9-.16-6.88-2.4a11.64,11.64,0,0,0-5.73-3.34c-8.67-2.38-14.69,0-20.16,8.21-1.78,2.67-3.63,5.29-6.32,7.07-9,6-18.18,11.81-27.23,17.77-2.65,1.74-6.17,2.81-7.69,5.48-2.47,4.36-6.62,6.08-10.44,8.45L248,408.51c2.16,1.13,3.6-.65,5,.26-.12,1-.9,1.15-1.47,1.5-3.93,2.36-7.88,4.7-11.81,7.06-.57.34-1.43.62-1,1.55s1.16.56,1.84.47a14.42,14.42,0,0,0,6.08-1.79,47.23,47.23,0,0,1,15.6-6.39c6.08-1.35,11.87-4,18.55-1,5.82,2.66,10.9,5.39,13,11.85a8.07,8.07,0,0,0,1.09,1.81c1.32,2,.7,2.8-1.59,3.22s-5,.16-7.15,1.81ZM296,453.79c3.82,0,6.46-3,6.48-7.21,0-4.09-2.54-7-6.23-7.06-4.19-.07-6.83,2.74-6.77,7.21S292,453.79,296,453.79Zm-17.24-3.52-.06-.82c1.73-.71,3.5-1.34,5.16-2.17,1.9-.95,3.34-2.4,2.87-4.74s-2.28-3.2-4.35-3.53a9,9,0,0,0-5.78,1.16c-1,.53-2.2.81-1.33,2.16.69,1.07,1.74,1.39,2.78.13a3.5,3.5,0,0,1,4.46-.88,1.55,1.55,0,0,1,1,1.7c-.22,2-2.12,2-3.36,2.71a32.88,32.88,0,0,1-3.2,1.44,5.41,5.41,0,0,0-2.51,2.4c-.79,1.49-.91,2.66,1.37,2.79,3.17.18,6.34.49,9.5.8.92.09,1.58.14,1.67-1.1.1-1.41-.6-1.4-1.7-1.44C283.06,450.81,280.89,450.49,278.73,450.27Zm45.69-11.46c-.88.44-2.49-.58-3,.89-1.07,3-3.43,5-5.17,7.48-.73,1-1.38,2.08-.83,3.23s1.88.41,2.86.52c2.11.23,4.64-1.71,6.23,1.37.29.55,2.23.23,2.14-.16-.45-1.82,3.14-2.55,1.45-3.93-2.75-2.25-1.39-5.21-2-7.77C325.8,439.3,326.2,438.36,324.42,438.81ZM311.09,447h-.31c0-1.77,0-3.54,0-5.3s-1-2.31-2.22-1.74a6.35,6.35,0,0,0-2.58,2.58c-.65,1.14.57,1.48,1.33,2s.65,1.71.7,2.62c.1,1.65.13,3.3.14,4.95,0,1.25.66,1.61,1.81,1.56s1.13-.9,1.12-1.74C311.08,450.3,311.09,448.65,311.09,447Z" transform="translate(-81.4 -81.61)"/><path class="cls-2" d="M248,737.36c-6.34-1.23-13.42-2.35-20.37-4a309.46,309.46,0,0,1-53-17.49c-14-6.14-27.68-12.8-40.47-21.21-2.55-1.67-5.21-3.17-7.78-4.8-1-.65-2.65-1.2-1.65-2.88.91-1.52,2.06-1.35,3.56-.36a320.57,320.57,0,0,0,29.09,17.16c8.6,4.46,17.69,8,26.59,11.86,9.69,4.21,19.81,7.22,29.91,10.22,8.64,2.55,17.3,5.11,26.35,6,3,.3,5.94,1.37,8.93,1.95,1.37.26,2.84.61,2.74,2.13C251.69,737.78,249.91,737.16,248,737.36Z" transform="translate(-81.4 -81.61)"/><path class="cls-2" d="M352.07,737.34c-1.49-.25-3.49.58-3.71-1.38-.18-1.71,1.61-2,3-2.24,7.25-1.37,14.52-2.66,21.74-4.22,4.24-.91,8.42-2.16,12.57-3.43,8.42-2.59,16.92-5,25.15-8,7.89-3,15.51-6.68,23.21-10.16,11.34-5.12,21.94-11.6,32.68-17.82,2-1.16,3.34-3.26,5.82-3.71.91-.16,1.78-.91,2.46.26a1.76,1.76,0,0,1-.71,2.46,81.33,81.33,0,0,1-8.39,5.74c-7.62,4.12-14.86,8.87-22.66,12.7-10.83,5.31-21.83,10.12-33.11,14.35A340.49,340.49,0,0,1,366.4,734.7C361.61,735.8,356.73,736.5,352.07,737.34Z" transform="translate(-81.4 -81.61)"/><path class="cls-1" d="M151.39,659c4.61,2.41,9,4.61,13.35,7,2.89,1.62,5.22,3.77,4.25,7.66-.92,3.69-2.62,5.11-7.19,5.15-1.89,0-1.55.9-1.41,2,.37,2.89.78,5.78,1.18,8.7a2.66,2.66,0,0,1-.51,0c-3.17-1.33-6.05-2.72-5.12-7.15.32-1.53-.21-3.29-.59-4.88-.55-2.32-2.78-2.83-4.59-3.34-1.62-.45-1.8,1.55-2.4,2.56a51,51,0,0,0-2.23,4.9l-5.28-2.49c.89-1.54,1.81-3.08,2.67-4.64C146.29,669.47,149.6,664.76,151.39,659ZM164.22,672c-.14-.51-.12-1.1-.41-1.38a22.24,22.24,0,0,0-8.69-5c-1.72-.58-1.74,1.76-2.46,2.83a1.44,1.44,0,0,0,.51,2.35c2.4,1.22,4.74,2.57,7.23,3.57C162.51,675.19,163.65,673.89,164.22,672Z" transform="translate(-81.4 -81.61)"/><path class="cls-1" d="M283.35,696.48c6.68.12,8.95,4,5.57,9.74-.72,1.21-.07,1.63.52,2.34.95,1.14,1.53.52,2.2-.32a16.1,16.1,0,0,1,1.93-2c.88-.79,1.94-1.6,3.13-1.22s.61,1.62.65,2.5c.06,1.27.26,2.57-1.73,2.78a3.12,3.12,0,0,0-2.85,2.75c0,1.37,1.38,2.05,2.79,2.14,2.34.15,1.15,1.87,1.24,2.92a1.36,1.36,0,0,1-2.13,1.39c-4.13-2.73-8-.59-12.1.06-3.32.52-6.93.05-8.83-3.65-1.63-3.18-.82-6.47,2.22-8.73.69-.52,1.68-.36,1.14-1.89C275.11,699.67,277.54,696.38,283.35,696.48Zm-1.83,11.91c-2,.29-4,1.19-4,3.78,0,2.8,2.21,3.85,4.64,3.73,2.2-.1,4.69-.48,5-3.41C287.38,710.48,284.39,708.3,281.52,708.39Zm1.64-2.91c1.91-.05,3.53-.47,3.66-2.55s-1.51-2.71-3.21-2.87-3.35.55-3.48,2.52S281.48,705.34,283.16,705.48Z" transform="translate(-81.4 -81.61)"/><path class="cls-1" d="M319.52,719.27c-5.16.56-5.06.54-5.69-4-.77-5.59-.76-11.27-1.91-16.83-.43-2.09,1.7-1.32,2.39-1.24,1,.11,2.93-1.65,3.19,1.06.7,7.37.73,7.37,7.77,6.89,6-.42,6-.42,4.91-6.5-.24-1.36-1.47-3,1.45-3.08,2.14,0,3.51-.39,3.65,2.78a107.16,107.16,0,0,0,2,18.2c.14.66.31,1.26-.41,1.36a17.27,17.27,0,0,1-4.24.2c-2.44-.27-.76-2.09-.79-3-.24-6.72-.17-6.72-6.8-6.16-8.41.71-6.72-.07-6.17,7.86A14,14,0,0,0,319.52,719.27Z" transform="translate(-81.4 -81.61)"/><path class="cls-1" d="M221.32,692.16c4.76,1,9.55,1.6,14.05,3.39,3.68,1.47,4.36,4.56,1.63,7.45-.76.8-1,1.12-.43,2.27,2.14,4.47-.44,8.39-5.27,7.78-4.19-.52-8.28-1.79-12.42-2.68-1.25-.27-1.21-.73-1-1.94C219,703,220.8,697.82,221.32,692.16Zm8.1,17.29c2.3.25,3.19-.55,3.52-2s-.64-2.17-1.82-2.53c-1.56-.47-3.18-.76-4.75-1.2s-2.65-.6-3.11,1.47c-.4,1.78-.3,2.9,1.77,3.25C226.75,708.76,228.44,709.22,229.42,709.45Zm1.87-8.09c1-.18,2.41.47,2.67-1.31.24-1.63-1.11-1.91-2.18-2.22-1.57-.46-3.18-.73-4.78-1.05-1.19-.24-2,0-2.27,1.43s.59,1.92,1.66,2.18C228,700.77,229.58,701,231.29,701.36Z" transform="translate(-81.4 -81.61)"/><path class="cls-1" d="M351.57,715.27c-6.14,0-10-3.9-9.93-9.86.08-5.75,5.06-9.79,11.92-9.68,6.08.11,9.91,4,9.84,10C363.34,711.22,358.24,715.32,351.57,715.27Zm.92-15.73c-3.81.07-6.38,2.52-6.32,6a5.93,5.93,0,0,0,6.44,5.92,6.08,6.08,0,0,0,6.14-5.94C358.72,701.85,356.24,699.47,352.49,699.54Z" transform="translate(-81.4 -81.61)"/><path class="cls-1" d="M429.75,674.06c-4.08.81-7.06,3-10.45,4.22-1.39.5-1.48,1.23-.89,2.43s1,1.91,2.38,1.22a23.24,23.24,0,0,0,4.08-2c1.5-1.19,2.08-1.06,3,.68s.1,2.09-1.35,2.52-2.56,1.21-3.88,1.7c-1.53.56-1.53,1.52-1.05,2.8.55,1.46,1.43,1.68,2.77,1,2.86-1.38,5.86-2.52,8.58-4.12,1.57-.93,1.86-.08,2.21.91.29.8,1.49,1.65-.41,2.43-4.69,1.9-9.26,4.09-13.87,6.2-1.13.51-1.44.24-1.94-1-1.95-4.66-4-9.3-6.33-13.78-.69-1.33-.32-1.54.62-2,4.57-2.18,9-4.66,13.74-6.44C429,670.06,428.27,673.07,429.75,674.06Z" transform="translate(-81.4 -81.61)"/><path class="cls-1" d="M389.55,687.12l2.64-1.24c1.54-.69,2.43-.41,2.51,1.5a7.25,7.25,0,0,0,.74,2.34c.26.6.3,1.51,1.15,1.58s1.08-.82,1.36-1.41c1-2,3.16-3.57,2.72-6.24-.17-1,.74-1,1.34-1.25,1.75-.65,3.51-1.26,5.61-2a23.57,23.57,0,0,1-3.87,6.79c-1.6,2.24-1.72,3.79,1.22,5.05,3.11,1.34,6,3.1,9.72,5-3.27.84-5.61,3.94-8.75.27-.93-1.08-2.6-1.54-4-2.22-.86-.43-1.7-1.51-2.77-.3a2.68,2.68,0,0,0-.58,3.23c.26.53.41,1.11.64,1.65,1,2.34-.59,4.41-3.23,4.27-1.1-.06-.67-.7-.83-1.36C393.84,697.49,391.63,692.46,389.55,687.12Z" transform="translate(-81.4 -81.61)"/><path class="cls-1" d="M212.72,698.71c-.42,1-1.24,2.11-1.21,3.14.14,4.7-3,4.43-6.1,4.24-5.09-.33-10-1.3-12.29-6.65-2.82-6.57,1.77-13.22,8.9-13.17,4,0,7.2,1.92,10.35,4.07,1.17.81,1.22,1.52.24,2.55s-1.49,1.89-2.74.38a9.47,9.47,0,0,0-3.78-2.54c-3.7-1.53-7.39-.4-8.77,2.71-1.47,3.29,0,6.47,3.7,8.36a11.36,11.36,0,0,0,4.82.9c1.1,0,1.74-.31,1.89-1.52s-.5-1.67-1.55-1.87c-.8-.15-1.61-.31-2.4-.51-1.67-.41-.6-1.48-.45-2.24s.33-1.83,1.57-1C207.31,697,210.36,697,212.72,698.71Z" transform="translate(-81.4 -81.61)"/><path class="cls-1" d="M379.53,689.9a25.13,25.13,0,0,1,4.52.65c1.36.4,2.44.37,1.68,2.31-.59,1.5-.94,1.86-2.7,1.14a8.73,8.73,0,0,0-7.84.54c-2.71,1.55-3.79,3.86-3.06,6.81s3.14,4.25,6.14,4.27a8.34,8.34,0,0,0,7.26-3.67c1.11-1.65,1.72-.93,2.66-.15s1.46,1.66.05,2.77c-2.22,1.75-4.35,3.55-7.17,4.34-6.65,1.85-12.23-.78-13.53-6.48-1.38-6,2.64-11.28,9.52-12.36C377.87,689.94,378.71,690,379.53,689.9Z" transform="translate(-81.4 -81.61)"/><path class="cls-1" d="M186.92,681.05c.66.22,1.21.42,1.76.59,2.08.62,3,1.37,1.6,3.8-1.62,2.71-2.57,5.81-3.89,8.71a8.27,8.27,0,0,1-1.72,2.63c-2.2,2-8.3,1-12.6-1.89-3.27-2.21-4.08-4.42-2.76-8.2,1.2-3.43,3.07-6.6,3.95-10.17.49-2,1.7-.55,2.38-.17.84.47,3,0,1.9,2.3-1.3,2.77-2.51,5.59-3.56,8.46-1.19,3.26-.2,5.07,3.12,6.29s5.22.5,6.38-2.82C184.58,687.44,186.37,684.56,186.92,681.05Z" transform="translate(-81.4 -81.61)"/><path class="cls-1" d="M270.17,726.69c2.8-.25,5.51,1,8.13,2.75,1,.68,1.87.93.83,2.27-.8,1-1.28,1.92-2.65.48a8.62,8.62,0,0,0-7.48-2.36,5.67,5.67,0,0,0-5.33,5.61c0,3,1.41,5.12,4.54,5.91a9.79,9.79,0,0,0,7.83-.94c1.73-1.11,1.74.2,2.22.91.72,1,.27,1.51-.89,2a16.36,16.36,0,0,1-8.57,1.55c-6-.72-9.39-4.52-9-10.11C260.1,729.75,263.89,726.68,270.17,726.69Z" transform="translate(-81.4 -81.61)"/><path class="cls-1" d="M328.69,730.16c5.37-.16,5.61.09,5.49,6,0,.65.42,1,.76,1.48,2.27,3.24,1,6.19-2.92,6.84-.23,0-.47,0-.7,0-3.33.33-8.47,2.37-9.6.28-1.89-3.5-1.18-8.42-1.5-12.74-.09-1.29,1.08-1,1.81-1.08C324.24,730.64,326.47,730.42,328.69,730.16Zm.35,8.21a24.48,24.48,0,0,1-2.75.25c-1.51,0-1.71.79-1.62,2s.37,1.81,1.66,1.68a15.94,15.94,0,0,0,2.79-.2c1.27-.39,3.49.27,3.22-2.19S330.06,738.66,329,738.37Zm-.7-5.49c-1.1,1-4.19-.66-4,1.72.21,3,3,.66,4.57.93.84.14,2.47.2,2.45-1.27C331.32,732.43,329.62,733.29,328.34,732.88Z" transform="translate(-81.4 -81.61)"/><path class="cls-1" d="M261,699.88a56.74,56.74,0,0,1-4.62,4.66c-3.48,2.76-5.34,6.23-5,10.68.17,2.14-1.13,1.72-2.19,1.42s-3.48.48-2.68-1.48c2.77-6.83-1.39-11.67-4.18-17-.15-.29-.25-.6-.41-1,1.88-.49,3.54.23,5.26.44,1.32.16,2,.48,1.3,1.94a1.3,1.3,0,0,0,.16,1c.71,1.16.66,3.17,2.13,3.4s2.7-1.49,3-2.56c.75-3.22,2.76-2.52,4.85-2.08C259.22,699.53,259.89,699.66,261,699.88Z" transform="translate(-81.4 -81.61)"/><path class="cls-1" d="M315.86,737.29a3.24,3.24,0,0,1,0,.37c.34,7.54-5.3,11.13-12.23,7.85a3.85,3.85,0,0,1-2.39-3.6c-.12-2.82-.18-5.66-.42-8.47-.13-1.52.52-1.83,1.82-1.83s1.89.36,1.83,1.84c-.08,2.11.11,4.24.18,6.36.09,3,2,3.68,4.54,3.55s3.54-1.45,3.42-3.91c-.11-2.12.09-4.27-.16-6.37-.17-1.5.24-1.89,1.65-1.79,1.19.08,2,.18,1.78,1.78A30.61,30.61,0,0,0,315.86,737.29Z" transform="translate(-81.4 -81.61)"/><path class="cls-1" d="M284.52,738.5c0-2,.06-4,0-6-.05-1.26.18-2.12,1.68-2,1.26.13,2.25.5,2.16,2.09-.14,2.58-.14,5.17-.33,7.75-.16,2.07.49,3.07,2.73,2.89,1.63-.14,3.29.08,4.93,0,1.16-.07,1.7.09,1.7,1.45s-.44,1.74-1.86,1.61a84.77,84.77,0,0,0-9.15-.41c-2,0-2.42-.63-2.1-2.48A38.33,38.33,0,0,0,284.52,738.5Z" transform="translate(-81.4 -81.61)"/><path class="cls-1" d="M453.41,485.7c-3.23,5.13-6.41,10.29-9.71,15.38-.8,1.24-1.94,1.12-2.17-.43a5.32,5.32,0,0,0-3.17-4c-12.7-6.91-25.93-8.48-39.45-2.91-13.35,5.5-16.76,18.49-13.84,31.26,1.71,7.5,6.52,12.72,13.63,15.55,14.14,5.64,27.83,5,40.82-3.47a11.89,11.89,0,0,0,5.34-8.3l10.84,15.27c-3.95.13-6.22,2.66-8.92,4.35-14.76,9.24-30.64,9.94-47,6.24-9.34-2.11-17.35-6.54-23.36-14.23-9.84-12.59-10-32.45-.12-45.15,9.4-12,22.43-16.48,37.17-17.26,11.85-.63,22.93,2.22,33.54,7.16a5.8,5.8,0,0,0,5.68-.21Z" transform="translate(-81.4 -81.61)"/><path class="cls-3" d="M228.3,547.82c.17-20.3.11-40.59.07-60.89,0-2.21.06-4.28,2.36-5.46.54-.28,1-.7.79-1.39s-.89-.7-1.46-.7q-10.08,0-20.17,0c-.59,0-1.25.05-1.5.71-.32.87.27,1.3,1,1.56,2,.76,2.34,2.43,2.34,4.3,0,7,0,13.93.05,20.89,0,2.14-.63,2.8-2.84,2.78q-18.94-.17-37.88,0c-2.06,0-2.95-.43-2.9-2.71.13-7,.05-13.93.05-20.89,0-2,.2-3.8,2.54-4.47a1.12,1.12,0,0,0,.91-1.31c-.22-.84-1-1-1.71-.88-2.58.23-5.19-.41-7.75.27l-12.36-.11c-.57,0-1.24-.1-1.49.61a1,1,0,0,0,.74,1.36c2.67.83,2.57,3,2.57,5.15q0,30.76,0,61.53a12,12,0,0,1-.7,4.13c-.93.72-3,.55-2.55,2.27.37,1.31,2.11.56,3.18.58,4.72.11,9.44.12,14.16,0,1.91,0,3.95.56,6.07-.62-1.78-1.87-3.78-3.23-3.7-6.14.2-7.78.17-15.57.06-23.36,0-2.15.55-2.87,2.75-2.86q18.93.14,37.87,0c2.31,0,3.1.72,3.06,3-.13,7.67-.11,15.34-.09,23,0,2-.33,3.73-2.29,4.78-.59.31-1.36.72-1,1.59s1.18.57,1.85.57h19.47c.7,0,1.45.05,1.9-1C229.88,552.49,228.28,550.84,228.3,547.82Z" transform="translate(-81.4 -81.61)"/><path class="cls-3" d="M372.7,307.81c3.05-1.49,2.73-4.09,2.73-6.64,0-19.6.1-39.2,0-58.8,0-2.2,1.11-5-2.15-6.38-1.17-.49-.47-1.44.42-1.7a8.67,8.67,0,0,1,2.45-.17c14.64.06,29.3-.28,43.91.38,7.58.34,15.45,1,21.94,6.15,10.12,8,9.72,25-.83,32.56a25.47,25.47,0,0,1-9.69,4.1c-1.92.4-2.46.95-1.24,2.71,5.71,8.22,11.35,16.48,17.05,24.71a4.83,4.83,0,0,0,2.87,1.93c.67.18,1.53.34,1.3,1.3s-1.14.65-1.79.65q-9,0-18.07,0c-.86,0-2.45.12-1.9-1.21,1.07-2.62-.81-4-1.9-5.64-4.74-7.18-9.6-14.28-14.33-21.47a5.08,5.08,0,0,0-4.93-2.61c-5.07.18-10.15.14-15.22,0-2.13,0-3,.63-3,2.81.09,7.68.05,15.35.08,23,0,.7-.14,1.66.25,2.06,3.66,3.88-.15,2.93-1.95,3-5.22.09-10.44,0-15.66,0Zm36.6-42.12c5-.33,11.55.69,18-.71,4.54-1,6.7-3.29,7-7.22.36-5.38-1.38-8.36-5.91-10a19.24,19.24,0,0,0-6.58-1.24c-9.67-.07-19.34,0-29-.1-1.92,0-2.38.68-2.34,2.47.11,4.72.14,9.44,0,14.16-.06,2.27.88,2.78,3,2.73C398.19,265.61,403,265.69,409.3,265.69Z" transform="translate(-81.4 -81.61)"/><path class="cls-1" d="M160.76,260.1c0,14.86.06,29.73-.06,44.6,0,2.24,1.92,2.63,3.37,4.41a93,93,0,0,1-19.39-.1c2.81-1.86,2.64-4.48,2.63-7.17-.05-20.66,0-41.32-.05-62,0-1.45.57-3.14-1.09-4.2-.64-.41-1.79-.58-1.25-1.71.34-.72,1.24-.52,1.92-.53,5.66,0,11.32-.07,17,0,1.42,0,3.24.05,1.59,2.35-1.15,1.59,0,2.94.71,4.23q8.64,15.4,17.35,30.76c2.13,3.77,4,7.69,6.87,11.51l13.86-26.08c2.82-5.3,5.71-10.56,8.43-15.91.79-1.56,2.1-3.24.07-5.07-1.12-1-.29-1.73.9-1.74,6.61,0,13.21-.05,19.82,0,1.18,0,2,.84.72,1.71-1.76,1.19-1.49,2.83-1.49,4.42q-.07,31.88-.06,63.74c0,1.17-.17,2.73.48,3.43,3.36,3.63-.22,2.74-1.81,2.78-4,.09-8,0-12-.08-1.51,0-3-.26-1-2,1-.85.87-1.89.88-2.89q0-22.14,0-44.27a16.87,16.87,0,0,0-.38-2.24c-5.51,10.48-10.78,20.52-16.06,30.55-3.29,6.24-6.53,12.49-9.88,18.69-1.67,3.07-3.22,3.08-4.94,0q-12.84-23-25.57-46c-.27-.48-.59-.94-.89-1.41Z" transform="translate(-81.4 -81.61)"/><path class="cls-1" d="M166,123c-1.51,2-1.28,3.75-1.24,5.49.18,8.12-.58,16.25.47,24.34.17,1.38-.6,1.34-1.39,1.35-2.23.05-4.46,0-6.59,0,1.59-6.67.57-13.15-.08-19.81L146,154.56l-11.07-20.43-.93.22c.53,6.52-.89,13.11,1,19.81-2,0-4.74.77-6.54-.22s-.29-3.91-.34-5.95c-.21-8.23-.09-16.46-.09-25,2.43,0,5.24,0,8.05,0,.62,0,1.42-.21,1.57.86.88,6.12,5.1,10.65,7.66,16,.8,1.67,1.73,1,2.19-.13,2.23-5.39,6.83-9.63,7.64-15.7.18-1.28,1.15-1,1.89-1C159.7,123,162.4,123,166,123Z" transform="translate(-81.4 -81.61)"/><path class="cls-1" d="M308.69,128.35a3.42,3.42,0,0,1,.6-.13c4.26-.48,7.59.32,10.29,4.4s6.44,7.13,9.78,10.61c.51.54.92,1.56,2,1.07.8-.38.54-1.23.52-1.89-.09-4.54.49-9.11-.47-13.93-.17.19,0-.1.12-.11,1.76-.06,3.78-.63,5.23,0,2.12,1,0,3,.16,4.53.56,6.65-.54,13.38.67,20,.09.51.16.84-.32,1.15-1.32.87-6.18-.28-7.19-1.52-4.62-5.73-9.83-10.89-15.74-17,.17,6.84-.55,12.6.67,18.53a20.58,20.58,0,0,1-6.28,0Z" transform="translate(-81.4 -81.61)"/><path class="cls-1" d="M407,153.59c-.75.38-.84.44-.94.48-6,2-8.53-1.79-10.92-6.39-2-3.82-4.85-4.68-8.92-3.83-1.25.26-1.38.93-1.44,2a18.67,18.67,0,0,0,.74,7.91c-.22.14-.31.24-.41.26-6.24.85-6.13.85-6.24-5.13-.12-6.35.5-12.73-.31-19.06-.18-1.41.39-1.67,1.51-1.64,6.36.21,12.74-.44,19.08.44,3.35.46,5.76,2.14,6.35,5.65s-.68,6.43-3.85,7.94c-2.44,1.17-2.11,2.19-.8,3.88C402.74,148.55,404.1,151.45,407,153.59Zm-15.41-21v.08c-1.53,0-3.05,0-4.58,0s-2.34.45-2.08,2-1.06,4.24,1.25,4.51a30,30,0,0,0,11.2-.31,2.94,2.94,0,0,0-.19-5.84A49.18,49.18,0,0,0,391.56,132.57Z" transform="translate(-81.4 -81.61)"/><path class="cls-1" d="M212.4,136.8c.3,5.69-.42,11.4.57,17.27l-1.55.18c-2.93.33-4.4.14-4.14-3.93.44-6.88.78-13.88-.31-20.79-.08-.49-.1-.85.39-1.18,1.49-1,6.89.39,8.11,1.75,4.22,4.75,8.58,9.38,12.93,14a1.45,1.45,0,0,0,1.2.4c.71-.21.53-.94.52-1.51,0-4.24.23-8.52-.29-12.71-.28-2.3.78-2.18,2-2s3.65-1.37,3.58,1.7c-.17,7.64-.55,15.29.24,22.92.05.51.08.85-.41,1.14-1.49.91-5.81-.43-7.05-1.8-4.89-5.38-9.91-10.63-14.88-15.94Z" transform="translate(-81.4 -81.61)"/><path class="cls-1" d="M259,132.7c-5.74.21-10.63-.68-15.61.78-.54-2-.22-4.16-.22-6.78,3,2.17,6.14,1.43,9.11,1.47,4.84.07,9.67,0,14.51,0,.79,0,1.95,0,2.28.46.66.92-.38,1.7-.94,2.39-4.19,5.24-8.42,10.45-12.62,15.69-.55.7-1.63,1.34-1.13,2.38s1.71.61,2.56.55c3.93-.27,8,.74,11.87-.86,0,.06.28.23.3.41.44,5.06.44,5-4.5,5-5.78,0-11.56.06-17.34,0-1.31,0-3.27.82-3.83-.67-.48-1.25,1.17-2.4,2-3.5C249.81,144.48,254.14,139,259,132.7Z" transform="translate(-81.4 -81.61)"/><path class="cls-1" d="M303.55,154.28c-1.56,0-3.07,0-4.58,0-2,.06-3.52.2-3.48-2.79,0-2.42-1.64-3.94-4.52-3.62a29,29,0,0,1-6.72,0c-2.86-.34-4.44,1.61-4.27,3.52.31,3.67-1.87,2.81-3.76,2.82-1.15,0-2.3-.1-3.8-.17,3.73-6.09,6-12.5,9.06-18.55a23.59,23.59,0,0,1,1.36-2.87c.88-1.3-.06-3.65,1.37-4.07,2.07-.61,4.43-.29,6.66-.31a1.26,1.26,0,0,1,1.49,1.05C294.77,138.07,299.7,145.7,303.55,154.28ZM287.49,134c-.83,1.73-1.39,2.77-1.83,3.85-2.36,5.72-2.35,5.68,3.95,5.27,1.53-.1,2.31-.29,1.42-2C289.9,139,288.86,136.77,287.49,134Z" transform="translate(-81.4 -81.61)"/><path class="cls-1" d="M178.48,154.07c-2.58,0-5.66.89-6.83-.23-1.44-1.38,1.4-3.29,2.12-5.1,2.21-5.58,4.77-11,7.41-16.43.65-1.33-.46-3.58,1.47-3.95,2.16-.43,4.46-.12,6.7-.11.67,0,1,.37,1.14,1.05,2.49,8.73,7.51,16.31,11.32,25h-4.95c-1.84,0-3.29.11-3.07-2.76.16-2.06-1.15-4-4.08-3.65a65.44,65.44,0,0,1-6.72,0C178.93,148,177.42,150,178.48,154.07Zm7-19.68c-1,2.32-1.78,4.27-2.67,6.17s-.73,2.59,1.71,2.57c5.61,0,5.59.12,3.39-4.93A10.25,10.25,0,0,0,185.45,134.39Z" transform="translate(-81.4 -81.61)"/><path class="cls-1" d="M424.84,128.22c3.41-.43,7.23.69,10.9-.68.67-.25,1.28-.13,1.31.6a25.59,25.59,0,0,1-.12,4.55c-.11.77-.91.37-1.46.29-4.34-.68-8.72-.11-13.07-.37-2-.12-2.76.53-2.61,2.6.14,1.89,0,3.57,2.75,3.28,2.22-.23,4.48-.11,6.72-.12.82,0,2-1.26,2.36.21a8.86,8.86,0,0,1,0,4.19c-.37,1.58-1.5.24-2.28.24a38.09,38.09,0,0,1-5.66-.13c-3.6-.55-4.12,1.28-4,4.26.1,2,.86,2.7,2.79,2.58,4.56-.29,9.16.61,13.7-.6,2.16-.58,1.56,1.3,1.54,2.21,0,1.28,1,3.49-1.73,3.25a73.93,73.93,0,0,0-16.49.16c-1.67.23-3.46-.36-5.19-.62-1-.14-.83-.72-.76-1.53a148.26,148.26,0,0,0,0-22.6c-.13-1.68.54-1.77,1.72-1.77Z" transform="translate(-81.4 -81.61)"/><path class="cls-1" d="M373.33,154.06c-1.16.07-2.09.14-3,.16-2.39,0-5,.74-4.94-3.31,0-2.25-1.74-3.34-4.22-3.1a33.54,33.54,0,0,1-6.72,0c-3.19-.36-4.81,1.85-4.58,4.05.32,3-1.27,2.41-2.77,2.35s-2.79.35-4.26-.51c3.79-7,6.63-14.28,10.11-21.3.67-1.35-.26-3.56,1.54-4,2-.47,4.21-.19,6.33-.22.77,0,1.16.27,1.43,1.14C364.87,137.91,369.57,145.55,373.33,154.06Zm-15.79-20.3c-1.28,2.88-2.23,5-3.19,7.14-.64,1.4-.46,2.28,1.34,2.16s4.36.87,5.42-.41-1-3.06-1.64-4.65C359,136.83,358.43,135.7,357.54,133.76Z" transform="translate(-81.4 -81.61)"/><path class="cls-3" d="M320.41,428.88H286.1c2.16-1.65,4.75-1.38,7.15-1.81s2.91-1.22,1.59-3.22a8.07,8.07,0,0,1-1.09-1.81c-2.07-6.46-7.15-9.19-13-11.85-6.68-3.05-12.47-.37-18.55,1a47.23,47.23,0,0,0-15.6,6.39,14.42,14.42,0,0,1-6.08,1.79c-.68.09-1.48.37-1.84-.47s.45-1.21,1-1.55c3.93-2.36,7.88-4.7,11.81-7.06.57-.35,1.35-.53,1.47-1.5-1.45-.91-2.89.87-5-.26l10.19-6.28c3.82-2.37,8-4.09,10.44-8.45,1.52-2.67,5-3.74,7.69-5.48,9.05-6,18.19-11.8,27.23-17.77,2.69-1.78,4.54-4.4,6.32-7.07,5.47-8.2,11.49-10.59,20.16-8.21a11.64,11.64,0,0,1,5.73,3.34c2,2.24,4.17,2.5,6.88,2.4,4.67-.16,7.77,1,10.4,3.35-.26,1-1,.81-1.68.66a20.86,20.86,0,0,0-7.05.08c-6.8.9-9.66,3.92-9.68,10.71-.06,16.72-9,27.9-22.33,36.48a26,26,0,0,1-5.2,2.88c-2.46.88-2.78,1.9-1.8,4.39,2,5,4.91,8.16,10.62,8.07A6.47,6.47,0,0,1,320.41,428.88Zm-17.7-2c1.46-.05,2.7-.19,1.62-2.2-1.43-2.66-2.79-5.37-4.16-8.07-.94-1.84-2.31-1.53-3.85-.88-1.92.81-1,2.07-.51,3.17a46.22,46.22,0,0,0,2.69,5.3C299.42,425.75,300.68,427,302.71,426.91Z" transform="translate(-81.4 -81.61)"/><path class="cls-3" d="M296,453.79c-4,0-6.47-2.65-6.52-7.06s2.58-7.28,6.77-7.21c3.69.06,6.26,3,6.23,7.06C302.43,450.84,299.79,453.78,296,453.79Zm-3.42-7.49c0,2.27,0,4.68,3.06,4.92s3.66-2,3.67-4.4c0-2.21,0-4.77-3.11-5S292.5,443.77,292.55,446.3Z" transform="translate(-81.4 -81.61)"/><path class="cls-3" d="M278.73,450.27c2.16.22,4.33.54,6.5.61,1.1,0,1.8,0,1.7,1.44-.09,1.24-.75,1.19-1.67,1.1-3.16-.31-6.33-.62-9.5-.8-2.28-.13-2.16-1.3-1.37-2.79a5.41,5.41,0,0,1,2.51-2.4,32.88,32.88,0,0,0,3.2-1.44c1.24-.73,3.14-.72,3.36-2.71a1.55,1.55,0,0,0-1-1.7,3.5,3.5,0,0,0-4.46.88c-1,1.26-2.09.94-2.78-.13-.87-1.35.35-1.63,1.33-2.16a9,9,0,0,1,5.78-1.16c2.07.33,3.9,1.26,4.35,3.53s-1,3.79-2.87,4.74c-1.66.83-3.43,1.46-5.16,2.17Z" transform="translate(-81.4 -81.61)"/><path class="cls-3" d="M324.42,438.81c1.78-.45,1.38.49,1.66,1.63.62,2.56-.74,5.52,2,7.77,1.69,1.38-1.9,2.11-1.45,3.93.09.39-1.85.71-2.14.16-1.59-3.08-4.12-1.14-6.23-1.37-1-.11-2.27.72-2.86-.52s.1-2.21.83-3.23c1.74-2.47,4.1-4.5,5.17-7.48C321.93,438.23,323.54,439.25,324.42,438.81Zm-6,9.57c2.19,0,4,.51,4.86-.81s.58-3.23-.63-5.05Z" transform="translate(-81.4 -81.61)"/><path class="cls-3" d="M311.09,447c0,1.65,0,3.3,0,4.95,0,.84.15,1.68-1.12,1.74s-1.8-.31-1.81-1.56c0-1.65,0-3.3-.14-4.95,0-.91.16-2-.7-2.62s-2-.88-1.33-2a6.35,6.35,0,0,1,2.58-2.58c1.26-.57,2.26.1,2.22,1.74s0,3.53,0,5.3Z" transform="translate(-81.4 -81.61)"/><path class="cls-3" d="M164.22,672c-.57,1.92-1.71,3.22-3.82,2.38-2.49-1-4.83-2.35-7.23-3.57a1.44,1.44,0,0,1-.51-2.35c.72-1.07.74-3.41,2.46-2.83a22.24,22.24,0,0,1,8.69,5C164.1,670.87,164.08,671.46,164.22,672Z" transform="translate(-81.4 -81.61)"/><path class="cls-3" d="M281.52,708.39c2.87-.09,5.86,2.09,5.65,4.1-.31,2.93-2.8,3.31-5,3.41-2.43.12-4.61-.93-4.64-3.73C277.51,709.58,279.54,708.68,281.52,708.39Z" transform="translate(-81.4 -81.61)"/><path class="cls-3" d="M283.16,705.48c-1.68-.14-3.16-.88-3-2.9s1.67-2.68,3.48-2.52,3.35.75,3.21,2.87S285.07,705.43,283.16,705.48Z" transform="translate(-81.4 -81.61)"/><path class="cls-3" d="M229.42,709.45c-1-.23-2.67-.69-4.39-1-2.07-.35-2.17-1.47-1.77-3.25.46-2.07,1.61-1.9,3.11-1.47s3.19.73,4.75,1.2c1.18.36,2.16,1,1.82,2.53S231.72,709.7,229.42,709.45Z" transform="translate(-81.4 -81.61)"/><path class="cls-3" d="M231.29,701.36c-1.71-.33-3.32-.59-4.9-1-1.07-.26-1.91-.76-1.66-2.18s1.08-1.67,2.27-1.43c1.6.32,3.21.59,4.78,1.05,1.07.31,2.42.59,2.18,2.22C233.7,701.83,232.25,701.18,231.29,701.36Z" transform="translate(-81.4 -81.61)"/><path class="cls-3" d="M352.49,699.54c3.75-.07,6.23,2.31,6.26,6a6.08,6.08,0,0,1-6.14,5.94,5.93,5.93,0,0,1-6.44-5.92C346.11,702.06,348.68,699.61,352.49,699.54Z" transform="translate(-81.4 -81.61)"/><path class="cls-3" d="M329,738.37c1,.29,3-.85,3.3,1.57s-1.95,1.8-3.22,2.19a15.94,15.94,0,0,1-2.79.2c-1.29.13-1.58-.59-1.66-1.68s.11-2.08,1.62-2A24.48,24.48,0,0,0,329,738.37Z" transform="translate(-81.4 -81.61)"/><path class="cls-3" d="M328.34,732.88c1.28.41,3-.45,3,1.38,0,1.47-1.61,1.41-2.45,1.27-1.59-.27-4.36,2-4.57-.93C324.15,732.22,327.24,733.86,328.34,732.88Z" transform="translate(-81.4 -81.61)"/><path class="cls-1" d="M409.3,265.69c-6.28,0-11.11-.08-15.95,0-2.07,0-3-.46-3-2.73.12-4.72.09-9.44,0-14.16,0-1.79.42-2.49,2.34-2.47,9.68.09,19.35,0,29,.1a19.24,19.24,0,0,1,6.58,1.24c4.53,1.69,6.27,4.67,5.91,10-.26,3.93-2.42,6.23-7,7.22C420.85,266.38,414.33,265.36,409.3,265.69Z" transform="translate(-81.4 -81.61)"/><path class="cls-3" d="M391.56,132.57a49.18,49.18,0,0,1,5.59.43,2.94,2.94,0,0,1,.19,5.84,30,30,0,0,1-11.2.31c-2.31-.27-1-2.93-1.25-4.51s.64-2,2.08-2,3,0,4.58,0Z" transform="translate(-81.4 -81.61)"/><path class="cls-3" d="M287.49,134c1.37,2.76,2.41,5,3.54,7.12.89,1.71.11,1.9-1.42,2-6.3.41-6.31.45-3.95-5.27C286.1,136.78,286.66,135.74,287.49,134Z" transform="translate(-81.4 -81.61)"/><path class="cls-3" d="M185.45,134.39a10.25,10.25,0,0,1,2.43,3.81c2.2,5.05,2.22,4.89-3.39,4.93-2.44,0-2.59-.69-1.71-2.57S184.46,136.71,185.45,134.39Z" transform="translate(-81.4 -81.61)"/><path class="cls-3" d="M357.54,133.76c.89,1.94,1.47,3.07,1.93,4.24.62,1.59,2.76,3.31,1.64,4.65s-3.56.28-5.42.41-2-.76-1.34-2.16C355.31,138.77,356.26,136.64,357.54,133.76Z" transform="translate(-81.4 -81.61)"/><path class="cls-1" d="M302.71,426.9c-2,.09-3.29-1.15-4.21-2.67a46.22,46.22,0,0,1-2.69-5.3c-.49-1.1-1.41-2.36.51-3.17,1.54-.65,2.91-1,3.85.88,1.37,2.7,2.73,5.41,4.16,8.07C305.41,426.72,304.17,426.86,302.71,426.9Z" transform="translate(-81.4 -81.61)"/><path class="cls-1" d="M292.55,446.3c-.05-2.53.64-4.61,3.62-4.44s3.11,2.75,3.11,5c0,2.36-.58,4.64-3.67,4.4S292.54,448.57,292.55,446.3Z" transform="translate(-81.4 -81.61)"/><path class="cls-1" d="M318.39,448.38l4.23-5.86c1.21,1.82,1.47,3.66.63,5.05S320.58,448.42,318.39,448.38Z" transform="translate(-81.4 -81.61)"/><path class="cls-3" d="M315.86,737.29h0Z" transform="translate(-81.4 -81.61)"/><path class="cls-3" d="M493.47,683.84c-1.72-2.67-3.66-5.17-5.44-7.79-8.91-13.11-17.85-26.19-26.69-39.34-1.54-2.28-2.81-3.12-5.25-1a151.66,151.66,0,0,1-20.34,14.45,324.71,324.71,0,0,1-29.21,16.11A230.4,230.4,0,0,1,374.16,679c-8,2.36-16,4.54-24.24,6.17a246.5,246.5,0,0,1-38.79,4.62c-21.45.82-42.75-.63-63.8-5.39a309.82,309.82,0,0,1-33.55-9.49c-11.45-4-22.3-9.32-33-14.87-6.22-3.22-12.19-6.92-18.16-10.55-6.55-4-12.42-9.08-18.56-13.73-2-1.54-3.46-1.78-5.15.76-5.8,8.77-11.89,17.35-17.81,26-5,7.28-9.82,14.62-14.75,21.92-.82,1.2-.73,1.9.44,2.93A186.1,186.1,0,0,0,133,706.3c8,4.92,16.37,9.53,24.88,13.76A350,350,0,0,0,191,734.67c9,3.37,18.21,6.1,27.5,8.56a289.34,289.34,0,0,0,29.26,6.22c5.53.87,11,1.83,16.55,2.76h.8c6,.69,11.94,1.32,18,1.75,5.54.4,11.11.34,18,.53,4.86-.2,11.08-.36,17.27-.74,5.78-.35,11.64-.52,17.36-1.33.41-.06,21.65-3.16,31.49-5.83,5.2-1.41,10.52-2.4,15.74-3.74a254.56,254.56,0,0,0,31-10.32c9.28-3.71,18.52-7.48,27.43-12a282,282,0,0,0,30.73-17.76c6.88-4.63,13.62-9.48,20.4-14.26C494.28,687.3,494.92,686.09,493.47,683.84Zm-60.06-15.36c2.19-1.64,4-2.39,6.69-.17,3.18,2.6,4.57,1.85,3.85-2.09-.87-4.75,2.47-4.83,5.32-6.4-1.22,3.86-1.37,7.47-1.81,11-.32,2.52,1,4.4,2.42,6,1.93,2.25,1.15,3.17-1.16,3.94a16.87,16.87,0,0,0-2.1,1.18c-1.47-8.66-9-9.46-14.84-12.54C432,668.75,432.87,668.88,433.41,668.48Zm-20.22,8.8c4.57-2.18,9-4.66,13.74-6.44,2.09-.78,1.34,2.23,2.82,3.22-4.08.81-7.06,3-10.45,4.22-1.39.5-1.48,1.23-.89,2.43s1,1.91,2.38,1.22a23.24,23.24,0,0,0,4.08-2c1.5-1.19,2.08-1.06,3,.68s.1,2.09-1.35,2.52-2.56,1.21-3.88,1.7c-1.53.56-1.53,1.52-1.05,2.8.55,1.46,1.43,1.68,2.77,1,2.86-1.38,5.86-2.52,8.58-4.12,1.57-.93,1.86-.08,2.21.91.29.8,1.49,1.65-.41,2.43-4.69,1.9-9.26,4.09-13.87,6.2-1.13.51-1.44.24-1.94-1-1.95-4.66-4-9.3-6.33-13.78C411.88,678,412.25,677.74,413.19,677.28Zm-21,8.6c1.54-.69,2.43-.41,2.51,1.5a7.25,7.25,0,0,0,.74,2.34c.26.6.3,1.51,1.15,1.58s1.08-.82,1.36-1.41c1-2,3.16-3.57,2.72-6.24-.17-1,.74-1,1.34-1.25,1.75-.65,3.51-1.26,5.61-2a23.57,23.57,0,0,1-3.87,6.79c-1.6,2.24-1.72,3.79,1.22,5.05,3.11,1.34,6,3.1,9.72,5-3.27.84-5.61,3.94-8.75.27-.93-1.08-2.6-1.54-4-2.22-.86-.43-1.7-1.51-2.77-.3a2.68,2.68,0,0,0-.58,3.23c.26.53.41,1.11.64,1.65,1,2.34-.59,4.41-3.23,4.27-1.1-.06-.67-.7-.83-1.36-1.36-5.32-3.57-10.35-5.65-15.69Zm-15.13,4.19c.81-.13,1.65-.12,2.47-.17a25.13,25.13,0,0,1,4.52.65c1.36.4,2.44.37,1.68,2.31-.59,1.5-.94,1.86-2.7,1.14a8.73,8.73,0,0,0-7.84.54c-2.71,1.55-3.79,3.86-3.06,6.81s3.14,4.25,6.14,4.27a8.34,8.34,0,0,0,7.26-3.67c1.11-1.65,1.72-.93,2.66-.15s1.46,1.66.05,2.77c-2.22,1.75-4.35,3.55-7.17,4.34-6.65,1.85-12.23-.78-13.53-6.48C366.16,696.38,370.18,691.15,377.06,690.07Zm-74.4,41.54c1.3,0,1.89.36,1.83,1.84-.08,2.11.11,4.24.18,6.36.09,3,2,3.68,4.54,3.55s3.54-1.45,3.42-3.91c-.11-2.12.09-4.27-.16-6.37-.17-1.5.24-1.89,1.65-1.79,1.19.08,2,.18,1.78,1.78a30.46,30.46,0,0,0,0,4.21,2.8,2.8,0,0,1,0,.38c.34,7.54-5.3,11.13-12.23,7.85a3.85,3.85,0,0,1-2.39-3.6c-.12-2.82-.18-5.66-.42-8.47C300.71,731.92,301.36,731.61,302.66,731.61Zm32.28,6c2.27,3.24,1,6.19-2.92,6.84-.23,0-.47,0-.7,0-3.33.33-8.47,2.37-9.6.28-1.89-3.5-1.18-8.42-1.5-12.74-.09-1.29,1.08-1,1.81-1.08,2.21-.3,4.44-.52,6.66-.78,5.37-.16,5.61.09,5.49,6C334.17,736.77,334.6,737.12,334.94,737.6Zm-50.44-5.09c-.05-1.26.18-2.12,1.68-2,1.26.13,2.25.5,2.16,2.09-.14,2.58-.14,5.17-.33,7.75-.16,2.07.49,3.07,2.73,2.89,1.63-.14,3.29.08,4.93,0,1.16-.07,1.7.09,1.7,1.45s-.44,1.74-1.86,1.61a84.77,84.77,0,0,0-9.15-.41c-2,0-2.42-.63-2.1-2.48a40.23,40.23,0,0,0,.27-4.92C284.52,736.5,284.58,734.5,284.5,732.51ZM276,707.15c.69-.52,1.68-.36,1.14-1.9-2-5.58.44-8.87,6.25-8.77,6.68.12,8.95,4,5.57,9.74-.72,1.21-.07,1.63.52,2.34.95,1.14,1.53.52,2.2-.32a16.1,16.1,0,0,1,1.93-2c.88-.79,1.94-1.6,3.13-1.22s.61,1.62.65,2.5c.06,1.27.26,2.57-1.73,2.78a3.12,3.12,0,0,0-2.85,2.75c0,1.37,1.38,2.05,2.79,2.14,2.34.15,1.15,1.87,1.24,2.92a1.36,1.36,0,0,1-2.13,1.39c-4.13-2.73-8-.59-12.1.06-3.32.52-6.93.05-8.83-3.65C272.11,712.7,272.92,709.41,276,707.15Zm-58,1.28c1.05-5.39,2.89-10.61,3.41-16.26,4.76,1,9.55,1.59,14.05,3.38,3.68,1.47,4.36,4.56,1.63,7.45-.76.8-1,1.12-.43,2.27,2.14,4.47-.44,8.39-5.27,7.78-4.19-.52-8.28-1.79-12.42-2.68C217.64,710.1,217.67,709.64,217.91,708.43ZM202,686.27c4,0,7.2,1.92,10.35,4.07,1.17.81,1.22,1.52.24,2.55s-1.49,1.89-2.74.38a9.47,9.47,0,0,0-3.78-2.54c-3.7-1.53-7.39-.4-8.77,2.71-1.47,3.29,0,6.47,3.7,8.36a11.36,11.36,0,0,0,4.82.9c1.1,0,1.74-.31,1.89-1.52s-.5-1.67-1.55-1.87c-.8-.15-1.61-.31-2.4-.51-1.67-.41-.6-1.48-.45-2.24s.33-1.83,1.57-1c2.41,1.52,5.46,1.46,7.82,3.2-.42,1-1.24,2.11-1.21,3.14.14,4.7-3,4.43-6.1,4.24-5.09-.33-10-1.3-12.29-6.65C190.3,692.87,194.89,686.22,202,686.27Zm-28.76-9.75c.49-2,1.7-.55,2.38-.17.84.47,3,0,1.9,2.3-1.3,2.77-2.51,5.59-3.56,8.46-1.19,3.26-.2,5.07,3.12,6.29s5.22.5,6.38-2.82c1.1-3.14,2.89-6,3.44-9.53.66.22,1.21.42,1.76.59,2.08.62,3,1.37,1.6,3.8-1.62,2.71-2.57,5.81-3.89,8.71a8.27,8.27,0,0,1-1.72,2.63c-2.2,2-8.3,1-12.6-1.89-3.27-2.21-4.08-4.42-2.76-8.2C170.51,683.26,172.38,680.09,173.26,676.52Zm-29.74-2.07c2.77-5,6.08-9.69,7.87-15.42,4.61,2.41,9,4.61,13.35,7,2.89,1.62,5.22,3.77,4.25,7.66-.92,3.69-2.62,5.11-7.19,5.15-1.89,0-1.55.9-1.41,2,.37,2.89.78,5.78,1.18,8.7a2.66,2.66,0,0,1-.51,0c-3.17-1.33-6.05-2.72-5.12-7.15.32-1.53-.21-3.29-.59-4.88-.55-2.32-2.78-2.83-4.59-3.34-1.62-.45-1.8,1.55-2.4,2.56a51,51,0,0,0-2.23,4.9l-5.28-2.49C141.74,677.55,142.66,676,143.52,674.45ZM248,737.36c-6.34-1.23-13.42-2.35-20.37-4a309.46,309.46,0,0,1-53-17.49c-14-6.14-27.68-12.8-40.47-21.21-2.55-1.67-5.21-3.17-7.78-4.8-1-.65-2.65-1.2-1.65-2.88.91-1.52,2.06-1.35,3.56-.36a320.57,320.57,0,0,0,29.09,17.16c8.6,4.46,17.69,8,26.59,11.86,9.69,4.21,19.81,7.22,29.91,10.22,8.64,2.55,17.3,5.11,26.35,6,3,.3,5.94,1.37,8.93,1.95,1.37.26,2.84.61,2.74,2.13C251.69,737.78,249.91,737.16,248,737.36Zm8.36-32.82c-3.48,2.76-5.34,6.23-5,10.68.17,2.14-1.13,1.72-2.19,1.42s-3.48.48-2.68-1.48c2.77-6.83-1.39-11.67-4.18-17-.15-.29-.25-.6-.41-1,1.88-.49,3.54.23,5.26.44,1.32.16,2,.48,1.3,1.94a1.3,1.3,0,0,0,.16,1c.71,1.16.66,3.17,2.13,3.4s2.7-1.49,3-2.56c.75-3.22,2.76-2.52,4.85-2.08.67.15,1.34.28,2.4.5A56.74,56.74,0,0,1,256.33,704.54Zm3.45,30.22c.32-5,4.11-8.08,10.39-8.07,2.8-.25,5.51,1,8.13,2.75,1,.68,1.87.93.83,2.27-.8,1-1.28,1.92-2.65.48a8.62,8.62,0,0,0-7.48-2.36,5.67,5.67,0,0,0-5.33,5.61c0,3,1.41,5.12,4.54,5.91a9.79,9.79,0,0,0,7.83-.94c1.73-1.11,1.74.2,2.22.91.72,1,.27,1.51-.89,2a16.36,16.36,0,0,1-8.57,1.55C262.84,744.15,259.41,740.35,259.78,734.76Zm77.09-16.85a17.27,17.27,0,0,1-4.24.2c-2.44-.27-.76-2.09-.79-3-.24-6.72-.17-6.72-6.8-6.16-8.41.71-6.72-.07-6.17,7.86a14,14,0,0,0,.65,2.49c-5.16.56-5.06.54-5.69-4-.77-5.59-.76-11.27-1.91-16.83-.43-2.09,1.7-1.32,2.39-1.24,1,.11,2.93-1.65,3.19,1.06.7,7.37.73,7.37,7.77,6.89,6-.42,6-.42,4.91-6.5-.24-1.36-1.47-3,1.45-3.08,2.14,0,3.51-.39,3.65,2.78a107.16,107.16,0,0,0,2,18.2C337.42,717.21,337.59,717.81,336.87,717.91Zm4.77-12.5c.08-5.75,5.06-9.79,11.92-9.68,6.08.11,9.91,4,9.84,10-.06,5.47-5.16,9.57-11.83,9.52C345.43,715.22,341.55,711.37,341.64,705.41Zm132.68-16.34a81.33,81.33,0,0,1-8.39,5.74c-7.62,4.12-14.86,8.87-22.66,12.7-10.83,5.31-21.83,10.12-33.11,14.35A340.49,340.49,0,0,1,366.4,734.7c-4.79,1.1-9.67,1.8-14.33,2.64-1.49-.25-3.49.58-3.71-1.38-.18-1.71,1.61-2,3-2.24,7.25-1.37,14.52-2.66,21.74-4.22,4.24-.91,8.42-2.16,12.57-3.43,8.42-2.59,16.92-5,25.15-8,7.89-3,15.51-6.68,23.21-10.16,11.34-5.12,21.94-11.6,32.68-17.82,2-1.16,3.34-3.26,5.82-3.71.91-.16,1.78-.91,2.46.26A1.76,1.76,0,0,1,474.32,689.07Z" transform="translate(-81.4 -81.61)"/></svg>