<svg id="Capa_1" data-name="Capa 1" xmlns="http://www.w3.org/2000/svg" viewBox="0 0 298 428"><defs><style>.cls-1{fill:#114020;}.cls-2{fill:#157d40;}.cls-3{fill:#e1e5e2;}.cls-4{fill:#fdfdfd;}.cls-5{fill:#a9baaf;}.cls-6{fill:#6c927a;}</style></defs><path class="cls-1" d="M239.27,252.72c-1.47,14.41-8.24,26-19.17,35.18-1.39,1.18-1.49,1.55-.37,3.14,6.4,9,12.59,18.23,18.77,27.43,1.82,2.71,1.2,5.48-1.53,7.69a131.59,131.59,0,0,1-36.5,21.52c-39.7,15-78.56,13.05-116.45-6.24-.59-.3-1.2-.52-1.81-.78a.71.71,0,0,0-.94-.47l-.18.22.16.23-.1,0c0-.19-.05-.38-.08-.57l-12.14-7.76-.91-.6a32.83,32.83,0,0,0-5.84-4.46h0c-1.47-1.54-3.25-2.85-3.77-5.08V321.1l3.2-6.23L65,309.75c.51-.47,1.39-.62,1.34-1.57a1.84,1.84,0,0,0,.89-1.32,3.64,3.64,0,0,0,1.57-2.18l.42-.7a14,14,0,0,0,3-4.38.28.28,0,0,0,.23-.35,2.36,2.36,0,0,0,1.2-1.74l-.15-.12.14.14a1.45,1.45,0,0,0,.87-1.31.25.25,0,0,0,.2-.33,9.15,9.15,0,0,0,2.22-2.84c2.86-4.24,2.85-4.25-1.53-7.17l-.15.13.13-.15-.56-.53-.18.16.17-.18A7.37,7.37,0,0,0,72.45,283l-.78-.81a22,22,0,0,0-3.78-4.75l-1.4-2a2.22,2.22,0,0,0-1-1.66c-5.8-10.19-7.52-21.24-7.5-32.82q.16-80.08.06-160.17a32.35,32.35,0,0,1,.12-3.94,7,7,0,0,1,7-6.38c1.12,0,2.25,0,3.38,0q81.51,0,163,0c2.86,0,5.45.4,7,3.18-.23.56.05.79.57.85a4.49,4.49,0,0,1,.62,3,2,2,0,0,0,0,2.59c.05.84.14,1.68.14,2.52q0,81.09,0,162.16a28.32,28.32,0,0,1-.52,7C238.79,252,238.69,252.33,239.27,252.72Zm-153,30.71.69.48a27.79,27.79,0,0,0,6.83,4.35,27.57,27.57,0,0,0,9,4.06h0a41.77,41.77,0,0,0,9,3.54c11.78,4.79,24.08,8.36,35.06,15.31a7,7,0,0,0,.26-1.11q0-34.11.07-68.21c0-1.79-.71-2.18-2.27-2.34a30.17,30.17,0,0,1-12-3.87c-11.2-6.4-17-16.32-18.65-28.9-.17-1.33-.23-2.29-2-2.29q-21.84.09-43.69,0c-1.45,0-2,.47-2,1.95.14,14.47-.44,29,.31,43.4a39.56,39.56,0,0,0,9.72,24.54,2.71,2.71,0,0,0,1.49,1.73l1,1a2.61,2.61,0,0,0,1.71,1.74,7.62,7.62,0,0,0,2.6,2.32,1.67,1.67,0,0,0,1.34,1.06h0a2.29,2.29,0,0,0,1.58,1.26l.17-.15Zm97.16-83.05v0c-.11,1.26.86,1,1.52,1q21.56,0,43.09-.12h1.68c1.93.39,2.08-.61,1.62-2.08.05-1,.14-2.05.14-3.07q0-33.72,0-67.45c0-1.12-.1-2.24-.15-3.35.75-6-.93-7.92-6.94-7.92H154.06c-.84,0-1.69,0-2.53,0-.69,0-1,.39-.74,1.11a30.56,30.56,0,0,0,0,6.76v.56q-.34,19.76,0,39.49c-.22,1,.4,1,1.12.87l1.1.13,2.69.46,3.48.91a3.47,3.47,0,0,0,2.13.79l4,2a3.23,3.23,0,0,0,1.82,1.1l1.55,1.12,4,3.47a43.71,43.71,0,0,1,9.19,15.66,11.82,11.82,0,0,0,1,4.09l.16,1A6.15,6.15,0,0,0,183.41,200.38Zm-21.52,32a8.91,8.91,0,0,0,4.77-2.87,9.9,9.9,0,0,0,3.37-3,1.93,1.93,0,0,0,1.18-1.32,4.88,4.88,0,0,0,1.73-2.23,1.21,1.21,0,0,0,.88-1.22c5.73-8.57,6.89-17.89,4.52-27.76-3.59-14.9-17.51-25.16-32.24-23.94-10.95.91-23.78,9.64-27.35,24.95-3.74,16,4.69,33.34,19.71,39C146.45,237,154.35,236.75,161.89,232.39Zm-11.14,43c0,10.62,0,21.24,0,31.86,0,1.16-.65,2.78.51,3.39,1.31.69,2.3-.78,3.33-1.53a11.18,11.18,0,0,1,1.47-.84c6.62-3.31,13.5-6,20.4-8.68,10.09-3.93,20.54-7,30-12.51,16.16-9.48,24.87-23.26,24.93-42.19,0-12.12-.06-24.25.07-36.37,0-2.47-.63-3.19-3.14-3.17-13.25.13-26.5.06-39.75.06-5.1,0-5.1,0-5.74,5a5.73,5.73,0,0,1-.24,1.09,49.74,49.74,0,0,1-6.42,13.66c-5.47,7.74-12.75,12.54-22.08,14-2.61.42-3.43,1.45-3.4,4C150.82,253.93,150.76,264.64,150.75,275.35ZM66.65,160.24v36.37c0,3.9.25,4.23,4.33,4.25,13.44,0,26.88,0,40.33,0,1.84,0,2.61-.6,3-2.47,1.25-6.53,3.19-12.65,7.34-18.22a33.16,33.16,0,0,1,22.25-13.63c2.35-.37,3-1.07,2.95-3.29q-.1-21.57,0-43.14c0-2.3-.73-2.81-2.9-2.81-23.68.07-47.37,0-71.06.05-4.87,0-6.21,1.34-6.22,6.18Q66.65,141.91,66.65,160.24ZM148.75,79H72.88c-4.86,0-6.2,1.33-6.24,6.06-.06,5.26.27,10.56-.3,15.76-.66,5.87,1.3,8.67,7.15,8.67H222.4a18.77,18.77,0,0,1,2.81.1c3.67.57,6.2-1.45,6.22-5.13,0-6.29,0-12.59,0-18.89,0-4.84-1.73-6.58-6.55-6.58Zm1,269.74c3.88.39,9-.12,14.14-.76a130.05,130.05,0,0,0,31.94-8.09,133,133,0,0,0,31.27-17.41c1.72-1.3,1.63-2.51.71-3.74-3.41-4.57-6.28-9.48-9.57-14.12-1.17-1.66-1.83-4.17-3.73-4.76-2.23-.71-3.36,1.95-5,3.09A114.55,114.55,0,0,1,183,316.69a93.92,93.92,0,0,1-28.2,5.46,116.45,116.45,0,0,1-25.47-1.51,106.5,106.5,0,0,1-27.26-9.2A91.75,91.75,0,0,1,84.3,300.36c-1-.78-2-1.12-2.86.22Q75.3,309.81,69.12,319c-.9,1.33-.76,2.16.59,3.23a122,122,0,0,0,27.2,15.91A128.57,128.57,0,0,0,149.77,348.76Z"/><path class="cls-2" d="M239.76,80a2,2,0,0,1,0-2.59A3.72,3.72,0,0,1,239.76,80Z"/><path class="cls-3" d="M65.51,273.73a2.22,2.22,0,0,1,1,1.66C65.46,275.25,65.47,274.5,65.51,273.73Z"/><path class="cls-2" d="M239.27,252.72c-.58-.39-.48-.72.1-1A.66.66,0,0,1,239.27,252.72Z"/><path class="cls-2" d="M239.13,74.46c-.52-.06-.8-.29-.57-.85C238.91,73.79,239.21,74,239.13,74.46Z"/><path class="cls-3" d="M81.27,340.19a.71.71,0,0,1,.94.47Z"/><path class="cls-3" d="M81.15,340.62l.1,0S81.05,341.3,81.15,340.62Z"/><path class="cls-3" d="M74.77,285.33l.56.53C74.93,285.9,74.75,285.72,74.77,285.33Z"/><path class="cls-2" d="M150.75,275.35c0-10.71.07-21.42,0-32.13,0-2.58.79-3.61,3.4-4,9.33-1.49,16.61-6.29,22.08-14a49.74,49.74,0,0,0,6.42-13.66,5.73,5.73,0,0,0,.24-1.09c.64-5,.64-5,5.74-5,13.25,0,26.5.07,39.75-.06,2.51,0,3.16.7,3.14,3.17-.13,12.12,0,24.25-.07,36.37-.06,18.93-8.77,32.71-24.93,42.19-9.45,5.54-19.9,8.58-30,12.51-6.9,2.69-13.78,5.37-20.4,8.68a11.18,11.18,0,0,0-1.47.84c-1,.75-2,2.22-3.33,1.53-1.16-.61-.51-2.23-.51-3.39C150.74,296.59,150.75,286,150.75,275.35Zm61-37.52c-2.08.25-3.74-.93-5.56-1.55-6.85-2.33-13.66-2.51-20.26.74-5.7,2.81-8.79,7.43-8.86,13.9a14.49,14.49,0,0,0,8.1,13.77c8.28,4.53,19.54,3.22,27.59-3.22-1.35-1.86-2.71-3.72-4.45-6.09a5.24,5.24,0,0,1-3.21,4.55,17.88,17.88,0,0,1-16,.44c-3.74-1.71-5.55-5-5.63-9.06s1.29-7.7,5.15-9.62c5.71-2.85,11.79-2.81,16.89.81,3.15,2.23,3.59.79,4.64-1.37C210.64,240,211.6,239.18,211.75,237.83Z"/><path class="cls-4" d="M83.34,281.13a7.62,7.62,0,0,1-2.6-2.32A1.52,1.52,0,0,0,79,277.07l-1-1c.45-.18.94-.42.7-1-.43-1-1.34-.82-2.19-.74a39.56,39.56,0,0,1-9.72-24.54c-.75-14.45-.17-28.93-.31-43.4,0-1.48.52-2,2-1.95q21.84,0,43.69,0c1.77,0,1.83,1,2,2.29,1.63,12.58,7.45,22.5,18.65,28.9a30.17,30.17,0,0,0,12,3.87c1.56.16,2.28.55,2.27,2.34Q147,276,147,310.05a7,7,0,0,1-.26,1.11c-11-7-23.28-10.52-35.06-15.31.08-1.07.09-2.13-1.28-2.35-2.56-.43-5.13-.8-7.69-1.19h0c-1.5-2.55-6.3-4.72-9-4.06a27.79,27.79,0,0,1-6.83-4.35.59.59,0,0,0-.69-.48l.17-.14-.17.15c.19-1.32-.66-1.34-1.58-1.26h0C84.69,281.26,84.17,281,83.34,281.13Zm28.12-44.39.11.09c-.45.55-1.12,1.15.28,1.31l0,7.33c-1,.47-1.44,1.8-3,1.72-3.63-.17-7.29-.07-10.93-.05-1.78,0-3-.84-3-2.61.07-2.43-.78-5,1-7.27.28-.34.87-1.27-.4-1.39l-.66-.78c-1.86-1.58-4,.36-5.9-.49-2-.91-4.42-.34-5,.92-.79,1.73,1.31,3,3,3.74l0,1.13a1.39,1.39,0,0,0,0,2.26v17.48c-2.36,1.42-1.25,4-1.88,5.94a7.35,7.35,0,0,0,.72.28l.68.38a10.65,10.65,0,0,0,8.45,0l.46-.94c.88-.86,1.21-2.65.77-3-2.47-1.77-1-4.16-1.2-6.2s1.24-2.56,3.34-2.41c-.39.44-.51.69-.72.79-.9.43-1.86,1.09-1,2,.71.76,1.31-.6,1.87-.79,1.32-.43,1.79-2.24,3.28-2,2.24.39,4.49.07,6.72.22.77.06,2-.35,2,.84s-1.22.81-2,.87c-2.51.2-5.08-.34-7.55.57,2.41.85,4.89.51,7.33.49,1.78,0,2.58.48,2.46,2.38-.13,2.05,0,4.12,0,6.18h0c-.44.07-1.15.54-.8.66,1.5.49,2.16,1.87,3.3,2.7a2.28,2.28,0,0,0,2.44-.19c-.71-2.56,1.35-1.2,2.11-1.47s1.51.09,1.94-.75c.72-.51.19-1,0-1.46l.07-28.79c.25-.49.7-1-.06-1.43-1.76-.9-3.8.22-5.49-.64a2.36,2.36,0,0,0-3.5.88l.07,1C110.82,236.67,111,236.85,111.46,236.74Zm-13.2,24c-.07-.35-.06-.76-.53-.83-.09,0-.31.21-.3.3.07.47.49.46.83.52.17.65-.32,1.5.74,2C99.44,261.72,99.59,261,98.26,260.7Zm21.15,8.94c.2-.05.59-.05.4-.44a1.64,1.64,0,0,0-.74-.71c-.33-.15-.44.18-.41.47S119,269.58,119.41,269.64Zm-18-9.65c-.15-.07-.33-.22-.43-.18a.47.47,0,0,0-.19.42.45.45,0,0,0,.42.18C101.31,260.37,101.35,260.14,101.41,260Z"/><path class="cls-2" d="M66.65,160.24q0-18.33,0-36.66c0-4.84,1.35-6.18,6.22-6.18,23.69,0,47.38,0,71.06-.05,2.17,0,2.92.51,2.9,2.81q-.15,21.57,0,43.14c0,2.22-.6,2.92-2.95,3.29a33.16,33.16,0,0,0-22.25,13.63c-4.15,5.57-6.09,11.69-7.34,18.22-.36,1.87-1.13,2.47-3,2.47-13.45-.06-26.89,0-40.33,0-4.08,0-4.33-.35-4.33-4.25Zm55,4.59a4.71,4.71,0,0,1-.9-3.44c0-7.71,0-15.41,0-23.12,0-1.6.16-3.21.24-4.81-1.78-.07-3.55-.21-5.33-.18-1.56,0-4-.92-3.18,2.41.13.58-.55,1.36-.9,2-1.89,3.57-3.73,7.16-5.7,10.68-.85,1.53-1.24,4.11-2.85,4.22s-2-2.51-2.69-4c-2.48-4.87-6.17-9.14-7.4-14.64a.94.94,0,0,0-1-.73H85.25c0,10.81.27,21.14-.24,31.45h7c-1.26-1.89-1.6-15.69-.57-19.09.85.24,1,1.07,1.31,1.69q4.41,7.86,8.76,15.75c.39.72.57,1.71,1.66,1.64.9-.05,1.14-.89,1.49-1.54,1.27-2.4,2.44-4.86,3.81-7.21,2.09-3.58,3.53-7.53,6.28-10.83.28,4.8.16,9.55.34,14.29.07,1.8-1.34,4.26.25,5.22C116.83,165.52,119.2,164.83,121.67,164.83Z"/><path class="cls-4" d="M231.31,125.31c.05,1.11.15,2.23.15,3.35q0,33.72,0,67.45c0,1-.09,2-.14,3.07-1.27.13-1.63,1-1.62,2.08H228c-.73-.63-1.61-.39-2.43-.4-14.06-.27-28.13.55-42.18-.51v0c-.1-2.18,1.72-1.61,3.18-1.94a3.32,3.32,0,0,1-1.6-3c-.52,1-.43,2.61-2,1.47-.05-.33-.11-.67-.16-1-.11-1.42.86-3.09-1-4.09a43.71,43.71,0,0,0-9.19-15.66c1.28-1.38-.57-2.31-.5-3.51.74-.11,1.5-.27,1.41-1.24a1,1,0,0,0-.81-.54c-1,.27-.38,1.18-.59,1.79-1.18.72-2.4-3.63-3.55,0l-1.55-1.12c-.07-1.26-.93-1.21-1.82-1.1l-4-2c-.1-1.9-.94-1.81-2.13-.79l-3.48-.91c-.67-1.43-1.68-.93-2.69-.46l-1.1-.13a1,1,0,0,0-1.12-.87q-.37-19.74,0-39.49c.41-.19.41-.38,0-.56a30.56,30.56,0,0,1,0-6.76c25.16.51,50.34-1.09,75.5.75,3.12.23,4,1.07,3.57,3.93A1.79,1.79,0,0,0,231.31,125.31Zm-22,22.48a.66.66,0,0,0,.46-.86l.38-1.3c2.94-1.41,3-2.81.05-5.14l-.25-1c.08-4.06.08-4.06-3.52-3.92l-4.32-1.36c-.38-1-1.06-1.94-2.1-2-5.28-.12-10.56-.1-15.84-.13-1,0-1.93.14-1.62,1.55l-3.59.13c-.18.2-.51.39-.51.59,0,4.58-.1,9.16,0,13.74.09,5.33-.37,10.68.27,16,2.25,1,4.6.32,6.9.43.61,0,1.07-.06.8-.95-.7-2.29-.25-4.65-.29-7-.07-4.86,0-4.7,4.93-4.87,2.86-.1,4.79.7,6,3.37,1.46,3.1,4.37,5.37,5.23,8.85.13.54.64.63,1.13.61,2.49-.1,5,.29,7.66-.33a22.56,22.56,0,0,1-4.54-6.14c.08-.74-.21-1.17-1-1.22a.32.32,0,0,1-.21-.38,2.11,2.11,0,0,0-1.92-2.67l0-.07c.32-.79.64-1.59,1-2.38l.91-.23c.75.16,1.24-.06,1.35-.89a.35.35,0,0,1,.4-.21c1.35.22,2.45.19,1.75-1.7l0,0a.6.6,0,0,0,.58-.62Zm3.7-1.22a2.2,2.2,0,0,0-.1.62c.06.29.22.3.35,0a.37.37,0,0,0,0-.27A2.11,2.11,0,0,0,213,146.57Z"/><path class="cls-2" d="M148.75,79H224.9c4.82,0,6.55,1.74,6.55,6.58,0,6.3,0,12.6,0,18.89,0,3.68-2.55,5.7-6.22,5.13a18.77,18.77,0,0,0-2.81-.1H73.49c-5.85,0-7.81-2.8-7.15-8.67.57-5.2.24-10.5.3-15.76C66.68,80.36,68,79,72.88,79ZM85,95.25C83.66,92.87,82.25,91,81.56,89s-2.2-1.32-3.39-1.35c-1.68,0-.82,1.35-.84,2.11-.08,3.09,0,6.19-.11,9.28,0,1.07-.16,1.8,1.31,1.65,1.15-.11,1.81-.16,1.58-1.71a37.93,37.93,0,0,1-.06-5.44,24.79,24.79,0,0,1,3.85,5.64c.65,1.21,1.18,1.33,1.87,0,1.06-2,2.19-4,3.3-6l.71.16c0,1.91.09,3.83,0,5.73-.08,1.22.21,1.63,1.48,1.65s1.52-.37,1.47-1.6c-.13-3.09,0-6.2-.11-9.29,0-.74.88-2.18-.76-2.18-1.18,0-2.72-.83-3.46,1.3S86.3,92.86,85,95.25ZM214.34,88c-.66,0-1.22,0-1.78,0-2.42-.07-4,1-4.21,3.48S210,94.85,212,95.27c1.09.22,2.24.14,3.35.29S218,95.49,218,97s-1.63,1.29-2.68,1.43a7,7,0,0,1-4.84-1c-.93-.59-1.33-.09-1.69.7-.27.61-.61,1.09.23,1.63,2.13,1.37,8.53,1.22,10.6-.26a3.36,3.36,0,0,0,1.5-3.89c-.39-1.39-1.35-1.84-2.84-2.18-1.78-.4-3.73.37-5.36-.88-.57-.42-1.59-.44-1.35-1.46.2-.81,1-1.06,1.75-1.15a8,8,0,0,1,4.82,1c1,.58,1.64-.07,2-.85.45-1-.66-.93-1.12-1.18A6.47,6.47,0,0,0,214.34,88ZM154.6,94l.68-.24c1.84,2,3.78,3.89,5.47,6a2.43,2.43,0,0,0,2.43.87c.73,0,.88-.46.86-1.13,0-2.8-.08-5.61-.08-8.41,0-.77-.15-1.24-1.06-1.25s-1.34.34-1.27,1.32c.08,1.21.09,2.43.08,3.65,0,.43.12,1-.47,1.18s-.83-.28-1.13-.6c-1.41-1.5-2.93-2.92-4.18-4.55a2.7,2.7,0,0,0-3-1c-1.47.27-.7,1.51-.72,2.31-.05,2.34.1,4.68,0,7,0,1,0,1.55,1.28,1.5s1.08-.59,1.05-1.44C154.55,97.44,154.6,95.69,154.6,94ZM119,96.38c-1.9-2.07-3.71-3.92-5.36-5.91-.76-.92-1.64-.72-2.54-.72-.69,0-1,.38-1,1.07,0,2.9,0,5.8,0,8.7,0,1.23.82,1,1.52,1.06,1,.07.84-.5.8-1.24-.12-1.82,0-3.64,0-6.4,2.45,2.67,4.38,4.62,6.13,6.73a2.53,2.53,0,0,0,2.47.88c.73-.06.84-.53.83-1.17,0-2.81,0-5.62,0-8.43,0-1-.62-1.22-1.46-1.21-1.06,0-.74.72-.8,1.37C119.41,92.74,120,94.45,119,96.38Zm73,4.07a25,25,0,0,0-1.72-3c-.62-.8-.58-1.3.26-1.79a3,3,0,0,0,1.51-3.8c-.58-1.71-2.15-2-3.63-2.11-2-.13-3.93,0-5.89,0-1.22,0-1.56.37-1.48,1.64.16,2.33,0,4.68.07,7,0,.88-.68,2.14,1.12,2.25s1.49-1.11,1.53-2.21c0-.69-.38-1.66.58-1.94a2.79,2.79,0,0,1,2.9.48A4.69,4.69,0,0,1,188.72,99C189.09,101.21,190.45,100.64,192.05,100.45ZM201,89.82v-.07c-.37,0-.75,0-1.12,0-4-.06-4.08-.06-4.22,3.94-.07,1.86.05,3.73,0,5.6,0,.78.13,1.27,1,1.27l7.86,0c.84,0,1.17-.45,1.14-1.23,0-1-.72-.84-1.4-.81-1.4.07-2.81.09-4.21.07-.77,0-1.78.31-1.79-1.09,0-1.23.59-1.49,1.72-1.63s3.13,1,3.15-.88c0-2.43-2.16-.54-3.26-1-.65-.29-1.57-.07-1.56-1.16s.65-1.28,1.5-1.25c1.5,0,3,.07,4.49.18.87.07,1.2-.24,1.17-1.09s-.11-1.26-1.11-1.11S202.06,89.75,201,89.82Zm-65.13.6-.25-.85c-3.15,0-6.31.07-9.45,0-1,0-1.14.34-1.18,1.08s.19,1.28,1.11,1.19,1.67-.19,2.52-.22,1.66-.23,2.09.44-.45,1.29-.86,1.84c-1.55,2.08-3.15,4.13-4.92,6.45,3.62.64,6.89.07,10.12.33.73.06.93-.4.95-1.06,0-.89-.34-1.06-1.2-1a13.72,13.72,0,0,1-5.17-.24C131.8,95.52,133.81,93,135.82,90.42Zm-28.06,10c-1.56-3.39-3.09-6.58-4.5-9.82-.49-1.11-1.35-.8-2.12-.86a1.44,1.44,0,0,0-1.65,1.09c-1,2.61-2.31,5.11-3.34,7.71-.22.56-1.61,1.42-.15,2,.86.34,1.8.41,2.29-1.11.58-1.83,5.48-2.08,6-.33C105,101.21,106.26,100.52,107.76,100.4Zm71.08,0c-1.54-3.38-3-6.61-4.48-9.85-.47-1-1.41-.77-2.2-.83s-1.27.32-1.61,1.19c-1,2.53-2.22,5-3.21,7.48-.24.62-1.59,1.43-.35,2.06.92.46,2,.43,2.49-1.2s5.39-1.83,5.93-.16C176.09,101.2,177.31,100.58,178.84,100.38Zm-29-.06c-1.56-3.34-3-6.41-4.42-9.45-.69-1.43-3-1.77-3.58-.48-1.56,3.25-2.94,6.59-4.43,10,1.36.29,2.34.64,3-1.08s5.47-1.88,6-.26C147.06,101.09,148.19,100.68,149.87,100.32Z"/><path class="cls-2" d="M149.77,348.76a128.57,128.57,0,0,1-52.86-10.61,122,122,0,0,1-27.2-15.91c-1.35-1.07-1.49-1.9-.59-3.23q6.19-9.19,12.32-18.43c.89-1.34,1.9-1,2.86-.22a91.75,91.75,0,0,0,17.77,11.08,106.5,106.5,0,0,0,27.26,9.2,116.45,116.45,0,0,0,25.47,1.51,93.92,93.92,0,0,0,28.2-5.46A114.55,114.55,0,0,0,209.53,303c1.64-1.14,2.77-3.8,5-3.09,1.9.59,2.56,3.1,3.73,4.76,3.29,4.64,6.16,9.55,9.57,14.12.92,1.23,1,2.44-.71,3.74a133,133,0,0,1-31.27,17.41A130.05,130.05,0,0,1,163.91,348C158.82,348.64,153.65,349.15,149.77,348.76Zm41.53-25.83-.11-.12c.22-1.42,2-2.35,1.38-4.08-1.64.09-2.83.53-2.69,2.42-.79.17-.93,2.71-2.27.69-.45-.69-1-1-1.53-.68s-.35,1.11-.06,1.74q1,2.13,1.84,4.3c.21.51.27,1.16,1.06.9a1.06,1.06,0,0,0,.8-1.49c-.2-.67-.66-1.53.23-2s1.44.24,2,.69c1.22,1,2.39,1.44,3.7-.05l-3-1.56A1.27,1.27,0,0,0,191.3,322.93Zm10-4.66c.23-.76-.47-1.23-.58-1.88.29-.43,1.27-.22,1.09-1s-1-.76-1.56-.49c-1.53.69-3,1.44-4.56,2.15-.6.28-.83.56-.46,1.28.76,1.49,1.4,3,2.1,4.57.33.72.87,1.52,1.67,1,1.45-1,3.49-1,4.53-2.59-1.6-1.08-3.19,1.23-4.7-.1C199.09,319.54,201.89,320.41,201.33,318.27Zm-28.65,14c3.2.89,2-1.49,2.18-2.9-.72-3.85-2.49-5.17-5.9-4.33a3.79,3.79,0,0,0-3.2,4.26c.21,2.24,1.68,3.44,3.94,3.59A6.52,6.52,0,0,0,172.68,332.3Zm-64.06-6.2-1.48.82c-1.42-1.14-1-2.62-.31-3.76s2-.55,3-.19a10.15,10.15,0,0,1,1.47.82.72.72,0,0,0,1-.23.94.94,0,0,0,0-.77c-.58-1.41-4.46-2.39-6.14-1.58a4,4,0,0,0-1.84,5.46c1,1.76,4.6,3.07,6.5,2.39,1.27-.45,1.2-1.72,1.28-2.57.11-1.16-1.22-1.22-2.09-1.38C109.4,325,108.12,324.36,108.62,326.1Zm20.22,15.62a3.59,3.59,0,0,0-2.68-1.46,120.43,120.43,0,0,1-21.89-5.77,136.38,136.38,0,0,1-26-12.93c-.54-.33-1.16-1.47-1.83-.54s.32,1.61,1,2c4.74,2.63,9.2,5.76,14.17,8a145.27,145.27,0,0,0,26.43,9.3C121.44,341.06,124.8,342.39,128.84,341.72Zm42.38.34c4.5-1.11,9.3-2.28,14.09-3.48,6.65-1.65,12.88-4.42,19.11-7.17a95.56,95.56,0,0,0,15.1-8.62c.45-.31,1.19-.58.91-1.22-.4-.89-1.1-.28-1.66-.05a6.67,6.67,0,0,0-1,.55c-14.53,9.18-30.13,15.55-47.18,18.2-.68.1-1.54.2-1.52.93C169.14,342.35,170.23,341.76,171.22,342.06ZM143.84,329.7c.75-1.24,1.59-2.47.36-3.64a3.63,3.63,0,0,0-3.93-.75c-1.54.56-1.85,1.73-1.4,3.18.16.53-.07.82-.46,1.18a2.73,2.73,0,0,0-.51,3.8c.92,1.36,2.44,1.39,3.82,1.17s2.82-1,4.28,0a.9.9,0,0,0,1.23-.35c.29-.44.26-1-.21-1.22-2-.77-1.12-1.65-.19-2.6.31-.31.77-.61.19-1.12a.91.91,0,0,0-1-.12C145.43,329.37,145,330.1,143.84,329.7ZM91.37,322c-.71-2.27-.85-3.93,1.81-4.73a2.06,2.06,0,0,0,.67-3.49,12.13,12.13,0,0,0-6.55-3.35c-1.64-.18-1.67,2.76-2.62,4.19a8.67,8.67,0,0,0-1,1.71c-.25.66-1.29,1.36,0,2.06s1.42-.3,1.88-1,.61-1.73,1.8-1.31a2.1,2.1,0,0,1,1.38,2.21c0,.56.1,1.12.1,1.68C88.91,321.49,89.88,321.72,91.37,322Zm72.21,7.66h0c-.09-1.22-.22-2.44-.27-3.66,0-.83-.09-1.49-1.23-1.35s-1.28.64-1.07,1.54c.62,2.59-1.3,2.27-2.81,2.54-1.73.32-2.48-.34-2.41-2.06,0-.82-.06-1.54-1.21-1.35s-1,.89-1,1.69c.19,1.86.29,3.75.58,5.6.12.77-.4,2.16,1.17,2.07s1-1.33.91-2.14c-.28-1.65.48-2.07,1.95-2.27,2-.27,3.61-.28,3.34,2.47-.08.88.35,1.37,1.36,1.29,1.21-.09,1-.78.86-1.56C163.68,331.56,163.65,330.62,163.58,329.68ZM119.8,332c2.56,0,3.7-1.58,3.22-5.45-.41-3.32-4-3.11-5.87-2.84-2.78.41-2.43,4-2.37,5.9C114.88,332.58,118.37,331,119.8,332Zm-20.9-6.39a2.43,2.43,0,0,0,2.68-1.47c.54-1.28,1-2.58,1.65-3.84.27-.58.43-1.1-.27-1.32-.48-.15-1.11-.19-1.38.53-.4,1-.81,2.09-1.26,3.12a1.93,1.93,0,0,1-2.77,1.08,1.87,1.87,0,0,1-1-2.56c.39-1.05.81-2.08,1.25-3.11a1.08,1.08,0,0,0-.2-1.29.9.9,0,0,0-1.27.15c-.91,1.9-2.52,3.76-1.93,5.95S97.19,325.3,98.9,325.64Zm81.8,5a14.35,14.35,0,0,0,2-.62c1.12-.52,3.06-1,2.29-2.48-.62-1.21-1.6.59-2.46.93a3.21,3.21,0,0,1-3.45-.31,2,2,0,0,1-.55-2.32,2.85,2.85,0,0,1,2.8-2c.56,0,1.12.1,1.68.11.37,0,.75-.06.88-.5s-.21-.64-.56-.78a5.25,5.25,0,0,0-5.55,1c-1.18,1-2.24,2.48-1.53,4.3S178.74,330.36,180.7,330.67Zm-44.19,6.76c-3,0-4.86,1.52-4.85,3.92s2.24,4.26,5.09,4c1.1-.1,2.84-.34,2.72-1.39-.19-1.72-1.62-.13-2.5-.27-1.12-.18-2.3-.06-2.89-1.3a2.05,2.05,0,0,1,.24-2.38,3,3,0,0,1,3.12-.71c.86.16,2,1.86,2.49.2.38-1.2-1.37-1.46-2.36-1.87A4,4,0,0,0,136.51,337.43Zm20.83,5.13c.26.59-1.19,3.3,2.07,2.73,1.59-.27,4,.46,4.09-2.2.11-3.28-.77-4.18-3.31-4C158.51,339.2,156.27,338.8,157.34,342.56Zm45.83-28.47c2.34,1,4.88,1.52,5.81,4.21.2.58.63.61,1.12.35s1.17-.65.68-1.25c-1.78-2.19-.6-4.68-.74-7-2.79-.28-1.26,2.86-2.51,3.14S204.67,312.08,203.17,314.09ZM132.34,326.6c-1.36-.42-2.34-.91-3.09.55-.45.87-1.44,1.32-1.68-.1-.33-2-1.65-1.49-3-1.63.84,2.46,2.83,4.35,2,7-.23.7.28,1,.94,1,.47,0,1.1,0,1-.63C128.17,329.91,130.55,328.64,132.34,326.6Zm23.06,15.72c-.42-.79.67-2.39-1-2.67-1.11-.18-.74,1-.87,1.69-.21,1.05.71,2.72-1.24,2.86-2.24.17-1.26-1.8-1.64-2.85-.12-.34,0-.79-.15-1.1a1.2,1.2,0,0,0-.82-.58c-.29,0-.84.25-.87.47-.29,1.67-.5,3.53.57,4.85s2.87,1.16,4.45.65S155.59,343.85,155.4,342.32Zm-13.46,1c0,.35-.78,1.88.5,2.3a15.8,15.8,0,0,0,4.68.22c.15,0,.47-.46.42-.6-.11-.3-.43-.78-.62-.76-3,.3-3.36-1.41-3-3.76a.86.86,0,0,0-.92-1.09c-.69,0-1,.41-1,1.05S141.94,341.93,141.94,343.28Z"/><path class="cls-4" d="M170,226.52a9.9,9.9,0,0,1-3.37,3c-.1-.43-.45-1.23-.51-1.14-1.14,1.64-4,1.49-4.26,4-7.54,4.36-15.44,4.63-23.43,1.62-15-5.67-23.45-23-19.71-39,3.57-15.31,16.4-24,27.35-24.95,14.73-1.22,28.65,9,32.24,23.94,2.37,9.87,1.21,19.19-4.52,27.76-.5,0-1.1-.09-1.36.46-.19.37.16.61.48.76a4.88,4.88,0,0,1-1.73,2.23C170.28,225.16,169.91,225.62,170,226.52ZM137.66,198l-.47.36c-2.55,2.36-4.87,5-8.48,5.87l-.55.54-.65.58a2.86,2.86,0,0,0-2.18,2.78c-.61.77-2,.71-2.29,2.28,3,.22,5.06-1.65,7.37-2.77,3.32-1.05,6.68-1.73,10.17-.93l.58.34c.45,0,.89,0,1.14.5.3,1.09.6,2.18,2.14,1.8.88,2.1,2.51,4.41-2.12,5l.69.65,12.54-.59,0-.43-2-.78c.5-2.11-1.89-2.7-2.27-4.35l.19-.14h.23c.88.15,1.68.18,1.83-1,5.28-3.68,9.27-8.19,9.37-15.08,0-1.91.39-3.56,2.4-4.34a1.22,1.22,0,0,0,1.2-.34l.6-.06a6.91,6.91,0,0,0,3.69-.3,7,7,0,0,0-6-1.35,3.76,3.76,0,0,1-1.88-1.08c-3.62-2.76-7-2.31-9.78,1.28-.56.72-1.17,1.4-1.76,2.1l-1.82,0,.64,1.06h0c-.6,0-1,.12-1,.83l-.53.35c-1.6-.31-2.75,0-2.83,1.94l-.68.43c-2-.62-4.13.75-5.07,3.25h0c-.58-.06-1,.09-1.13.75l-.58.32-.65.46Zm1.87,23.25-.65.41-.8.63-.36.45,0,1.38c.49.59,1.12.46,1.75.37l3.75,0,2.36.11c1.48.25,2.89.24,3.87-1.17.85-.38.83-1,.39-1.65l-.41-2a1.29,1.29,0,0,0-.63-1.65c-.56-.27-.83.13-1,.63a4.13,4.13,0,0,0-3.19.65c-.93-1.17-2-1.88-3.54-1.11a7.24,7.24,0,0,0-2.35.7c-1,.72-.48,1.18.55,1.22l.21,1.12Zm12.29,3.29c.74.06,1.6.31,1.49-1-.1-1.11-.21-2.23-.27-3.34,0-.78-.19-1.86-1-1.68s-1.81,1.07-.82,2.29C151,222.19,150.88,223.47,151.82,224.58Zm6.5-6.48c-1.7,1.16-3.37,2.86-3.34,4.49,0,2.1,2.75.42,4.07,1.43.6.46,1.58-.86,1.26-1.31C159.37,221.35,160.56,219.09,158.32,218.1Zm-12.24-28.71a2.52,2.52,0,0,0,.78.16c.4-.05,1.16-.11.62-.72C147.09,188.4,146.5,188.87,146.08,189.39Zm-7.62,2.25c.06-.15.21-.33.17-.44s-.28-.14-.43-.2c-.06.15-.21.33-.17.44S138.31,191.58,138.46,191.64Zm7.6,25.83c0,.06,0,.15,0,.18a.65.65,0,0,0,.21,0l-.06-.29Z"/><path class="cls-4" d="M231.31,125.31a1.79,1.79,0,0,1-1.45-2.1c.41-2.86-.45-3.7-3.57-3.93-25.16-1.84-50.34-.24-75.5-.75-.28-.72.05-1.07.74-1.11.84,0,1.69,0,2.53,0h70.31C230.38,117.39,232.06,119.3,231.31,125.31Z"/><path class="cls-3" d="M183.41,200.36c14.05,1.06,28.12.24,42.18.51.82,0,1.7-.23,2.43.4q-21.54.07-43.09.12C184.27,201.39,183.3,201.62,183.41,200.36Z"/><path class="cls-4" d="M93.77,288.26c2.69-.66,7.49,1.51,9,4.06A27.57,27.57,0,0,1,93.77,288.26Z"/><path class="cls-4" d="M102.75,292.31c2.56.39,5.13.76,7.69,1.19,1.37.22,1.36,1.28,1.28,2.35A41.77,41.77,0,0,1,102.75,292.31Z"/><path class="cls-4" d="M172.17,172.68c-.07,1.2,1.78,2.13.5,3.51l-4-3.47c1.15-3.66,2.37.69,3.55,0Z"/><path class="cls-4" d="M161.89,232.39c.28-2.52,3.12-2.37,4.26-4,.06-.09.41.71.51,1.14A8.91,8.91,0,0,1,161.89,232.39Z"/><path class="cls-4" d="M183,196.94c1.57,1.14,1.48-.47,2-1.47a3.32,3.32,0,0,0,1.6,3c-1.46.33-3.28-.24-3.18,1.94A6.15,6.15,0,0,1,183,196.94Z"/><path class="cls-4" d="M229.7,201.26c0-1.12.35-1.95,1.62-2.08C231.78,200.65,231.63,201.65,229.7,201.26Z"/><path class="cls-3" d="M76.59,274.35c.85-.08,1.76-.26,2.19.74.24.57-.25.81-.7,1A2.71,2.71,0,0,1,76.59,274.35Z"/><path class="cls-4" d="M181.86,191.85c1.83,1,.86,2.67,1,4.09A11.82,11.82,0,0,1,181.86,191.85Z"/><path class="cls-4" d="M159.16,167.71c1.19-1,2-1.11,2.13.79A3.47,3.47,0,0,1,159.16,167.71Z"/><path class="cls-3" d="M79,277.07a1.52,1.52,0,0,1,1.71,1.74A2.61,2.61,0,0,1,79,277.07Z"/><path class="cls-3" d="M172.94,223c-.32-.15-.67-.39-.48-.76.26-.55.86-.44,1.36-.46A1.21,1.21,0,0,1,172.94,223Z"/><path class="cls-4" d="M153,166.34c1-.47,2-1,2.69.46Z"/><path class="cls-3" d="M84.67,282.18c.92-.08,1.77-.06,1.58,1.26A2.29,2.29,0,0,1,84.67,282.18Z"/><path class="cls-4" d="M150.77,165.34a1,1,0,0,1,1.12.87C151.17,166.38,150.55,166.39,150.77,165.34Z"/><path class="cls-3" d="M83.34,281.13c.83-.13,1.35.13,1.34,1.06A1.67,1.67,0,0,1,83.34,281.13Z"/><path class="cls-4" d="M165.26,170.5c.89-.11,1.75-.16,1.82,1.1A3.23,3.23,0,0,1,165.26,170.5Z"/><path class="cls-3" d="M170,226.52c-.12-.9.25-1.36,1.18-1.32A1.93,1.93,0,0,1,170,226.52Z"/><path class="cls-3" d="M150.76,125.29c.41.18.41.37,0,.56Z"/><path class="cls-3" d="M86.25,283.43a.59.59,0,0,1,.69.48Z"/><path class="cls-4" d="M75.14,291.15l.23.25-.26-.22Z"/><path class="cls-3" d="M211.75,237.83c-.15,1.35-1.11,2.21-1.64,3.3-1.05,2.16-1.49,3.6-4.64,1.37-5.1-3.62-11.18-3.66-16.89-.81-3.86,1.92-5.24,5.48-5.15,9.62s1.89,7.35,5.63,9.06a17.88,17.88,0,0,0,16-.44,5.24,5.24,0,0,0,3.21-4.55c1.74,2.37,3.1,4.23,4.45,6.09-8,6.44-19.31,7.75-27.59,3.22a14.49,14.49,0,0,1-8.1-13.77c.07-6.47,3.16-11.09,8.86-13.9,6.6-3.25,13.41-3.07,20.26-.74C208,236.9,209.67,238.08,211.75,237.83Z"/><path class="cls-2" d="M119.67,235.07c.76.45.31.94.06,1.43-1.09.39-.85,1.39-.86,2.15q-.08,12.07,0,24.14c0,.89-.16,1.9.83,2.5.23.48.76.95,0,1.46-1.4-.09-2.81-.11-4.2-.3-1.59-.21-3.36.76-4.79-.65h0a1.43,1.43,0,0,0,1.22-1.36c.06-3.38.08-6.76.11-10.13,0-1.35-.85-1.42-1.88-1.41-4.7,0-9.39,0-14.08,0-1.55,0-2.24.5-2.19,2.1.09,2.82,0,5.63.07,8.45,0,1.06.06,2.12,1.43,2.37-.15.32-.3.63-.46.94a29.54,29.54,0,0,0-8.45,0l-.68-.38c1.89-1.79,1.41-4,1.16-6.22V242.65a3.31,3.31,0,0,0,0-2.26l0-1.13c.61-1.44-.12-2.61-1.26-4.17h9.18l.66.78c-1.28.44-1.57,1.47-1.57,2.67,0,2.33,0,4.66,0,7-.06,1.7.61,2.26,2.31,2.22,4.56-.09,9.14-.08,13.71,0,1.77,0,2.44-.55,1.9-2.29l0-7.33a.83.83,0,0,0-.28-1.31l-.11-.08-.71-.48c0-.32,0-.64-.07-1Z"/><path class="cls-4" d="M95.38,265.8C94,265.55,94,264.49,94,263.43c0-2.82,0-5.63-.07-8.45,0-1.6.64-2.12,2.19-2.1,4.69.07,9.38.05,14.08,0,1,0,1.9.06,1.88,1.41,0,3.37,0,6.75-.11,10.13a1.43,1.43,0,0,1-1.22,1.36c0-2.06-.11-4.13,0-6.18.12-1.9-.68-2.4-2.46-2.38-2.44,0-4.92.36-7.33-.49,2.47-.91,5-.37,7.55-.57.77-.06,2,.35,2-.87s-1.26-.78-2-.84c-2.23-.15-4.48.17-6.72-.22-1.49-.26-2,1.55-3.28,2-.56.19-1.16,1.55-1.87.79-.86-.93.1-1.59,1-2,.21-.1.33-.35.72-.79-2.1-.15-3.54.45-3.34,2.41s-1.27,4.43,1.2,6.2C96.59,263.15,96.26,264.94,95.38,265.8Z"/><path class="cls-4" d="M111.82,245.47c.54,1.74-.13,2.32-1.9,2.29-4.57-.09-9.15-.1-13.71,0-1.7,0-2.37-.52-2.31-2.22.09-2.33,0-4.66,0-7,0-1.2.29-2.23,1.57-2.67,1.27.12.68,1,.4,1.39-1.77,2.24-.92,4.84-1,7.27,0,1.77,1.18,2.61,3,2.61,3.64,0,7.3-.12,10.93.05C110.38,247.27,110.78,245.94,111.82,245.47Z"/><path class="cls-4" d="M119.66,265.29c-1-.6-.83-1.61-.83-2.5q0-12.08,0-24.14c0-.76-.23-1.76.86-2.15Z"/><path class="cls-4" d="M94.86,235.09H85.68c1.14,1.56,1.87,2.73,1.26,4.17-1.66-.78-3.76-2-3-3.74.57-1.26,3-1.83,5-.92C90.81,235.45,93,233.51,94.86,235.09Z"/><path class="cls-4" d="M110.71,265.8c1.43,1.41,3.2.44,4.79.65,1.39.19,2.8.21,4.2.3-.43.84-1.28.52-1.94.75s-2.82-1.09-2.11,1.47a2.28,2.28,0,0,1-2.44.19c-1.14-.83-1.8-2.21-3.3-2.7C109.56,266.34,110.27,265.87,110.71,265.8Z"/><path class="cls-4" d="M86.47,266.73a29.54,29.54,0,0,1,8.45,0A10.65,10.65,0,0,1,86.47,266.73Z"/><path class="cls-4" d="M87,260.13c.25,2.2.73,4.43-1.16,6.22a7.35,7.35,0,0,1-.72-.28C85.7,264.1,84.59,261.55,87,260.13Z"/><path class="cls-4" d="M119.67,235.07l-9,.24a2.36,2.36,0,0,1,3.5-.88C115.87,235.29,117.91,234.17,119.67,235.07Z"/><path class="cls-3" d="M98.26,260.7c1.33.27,1.18,1,.74,2-1.06-.52-.57-1.37-.74-2Z"/><path class="cls-3" d="M119.41,269.64c-.46-.06-.71-.28-.75-.68s.08-.62.41-.47a1.64,1.64,0,0,1,.74.71C120,269.59,119.61,269.59,119.41,269.64Z"/><path class="cls-3" d="M111.57,236.83a.83.83,0,0,1,.28,1.31C110.45,238,111.12,237.38,111.57,236.83Z"/><path class="cls-3" d="M86.92,240.39a3.31,3.31,0,0,1,0,2.26A1.39,1.39,0,0,1,86.92,240.39Z"/><path class="cls-4" d="M98.26,260.69c-.34-.06-.76-.05-.83-.52,0-.09.21-.32.3-.3.47.07.46.48.53.83Z"/><path class="cls-3" d="M101.41,260c-.06.15-.1.38-.2.42a.45.45,0,0,1-.42-.18.47.47,0,0,1,.19-.42C101.08,259.77,101.26,259.92,101.41,260Z"/><path class="cls-3" d="M110.75,236.27l.71.48A.52.52,0,0,1,110.75,236.27Z"/><path class="cls-3" d="M121.67,164.83c-2.47,0-4.84.69-6.28-.18-1.59-1-.18-3.42-.25-5.22-.18-4.74-.06-9.49-.34-14.29-2.75,3.3-4.19,7.25-6.28,10.83-1.37,2.35-2.54,4.81-3.81,7.21-.35.65-.59,1.49-1.49,1.54-1.09.07-1.27-.92-1.66-1.64q-4.36-7.89-8.76-15.75c-.34-.62-.46-1.45-1.31-1.69-1,3.4-.69,17.2.57,19.09H85c.51-10.31.27-20.64.24-31.45h6.67a.94.94,0,0,1,1,.73c1.23,5.5,4.92,9.77,7.4,14.64.73,1.44,1.11,4.05,2.69,4s2-2.69,2.85-4.22c2-3.52,3.81-7.11,5.7-10.68.35-.66,1-1.44.9-2-.77-3.33,1.62-2.38,3.18-2.41,1.78,0,3.55.11,5.33.18-.08,1.6-.23,3.21-.24,4.81,0,7.71,0,15.41,0,23.12A4.71,4.71,0,0,0,121.67,164.83Z"/><path class="cls-2" d="M210.14,145.63c-.13.43-.26.87-.38,1.3l-.46.86,0,0-.58.62,0,0A4.47,4.47,0,0,0,207,150a.35.35,0,0,0-.4.21,1.82,1.82,0,0,0-1.35.89l-.91.23c-2.05.11-2.71.76-1,2.38l0,.07a5.72,5.72,0,0,0,1.92,2.67.32.32,0,0,0,.21.38,1.43,1.43,0,0,0,1,1.22,22.56,22.56,0,0,0,4.54,6.14c-2.64.62-5.17.23-7.66.33-.49,0-1-.07-1.13-.61-.86-3.48-3.77-5.75-5.23-8.85-1.25-2.67-3.18-3.47-6-3.37-4.95.17-5,0-4.93,4.87,0,2.33-.41,4.69.29,7,.27.89-.19,1-.8.95-2.3-.11-4.65.52-6.91-.43,1.33-.56,1.22-1.7,1.22-2.84q0-12,0-24.08a5.8,5.8,0,0,0-1-3.42l3.59-.13c6.51.46,13.06-.29,19.56.55l4.32,1.36a18.51,18.51,0,0,1,3.52,3.92l.25,1Zm-16.49,1.12h2.81c1,0,2.06,0,3.09-.05,3.23-.2,4.5-1.3,4.47-3.8s-1.47-3.83-4.45-4c-3.93-.16-7.86-.07-11.79-.14-1.16,0-1.61.36-1.74,1.57-.68,6.26-.55,6.45,5.65,6.39Z"/><path class="cls-4" d="M179,133.76a5.8,5.8,0,0,1,1,3.42q-.06,12,0,24.08c0,1.14.11,2.28-1.22,2.84-.63-5.33-.17-10.68-.26-16-.08-4.58,0-9.16,0-13.74C178.44,134.15,178.77,134,179,133.76Z"/><path class="cls-4" d="M202.1,134.18c-6.5-.84-13-.09-19.56-.55-.31-1.41.58-1.55,1.62-1.55,5.28,0,10.56,0,15.84.13C201,132.24,201.72,133.18,202.1,134.18Z"/><path class="cls-4" d="M210.14,145.63l.05-5.14C213.1,142.82,213.08,144.22,210.14,145.63Z"/><path class="cls-4" d="M209.94,139.46a18.51,18.51,0,0,0-3.52-3.92C210,135.4,210,135.4,209.94,139.46Z"/><path class="cls-4" d="M172.18,172.69c.21-.61-.42-1.52.59-1.79a1,1,0,0,1,.81.54c.09,1-.67,1.13-1.41,1.24Z"/><path class="cls-4" d="M203.41,153.75c-1.76-1.62-1.1-2.27,1-2.38C204.05,152.16,203.73,153,203.41,153.75Z"/><path class="cls-4" d="M205.36,156.49a5.72,5.72,0,0,1-1.92-2.67A2.11,2.11,0,0,1,205.36,156.49Z"/><path class="cls-4" d="M207,150a4.47,4.47,0,0,1,1.75-1.7C209.47,150.23,208.37,150.26,207,150Z"/><path class="cls-4" d="M206.55,158.09a1.43,1.43,0,0,1-1-1.22C206.34,156.92,206.63,157.35,206.55,158.09Z"/><path class="cls-4" d="M205.27,151.14a1.82,1.82,0,0,1,1.35-.89C206.51,151.08,206,151.3,205.27,151.14Z"/><path class="cls-3" d="M213,146.57a2.11,2.11,0,0,1,.28.39.37.37,0,0,1,0,.27c-.13.26-.29.25-.35,0A2.2,2.2,0,0,1,213,146.57Z"/><path class="cls-3" d="M208.75,148.36l.58-.62A.6.6,0,0,1,208.75,148.36Z"/><path class="cls-3" d="M209.3,147.79l.46-.86A.66.66,0,0,1,209.3,147.79Z"/><path class="cls-3" d="M85,95.25c1.3-2.39,2.64-4.25,3.36-6.34s2.28-1.29,3.46-1.3c1.64,0,.73,1.44.76,2.18.11,3.09,0,6.2.11,9.29,0,1.23-.17,1.63-1.47,1.6s-1.56-.43-1.48-1.65c.13-1.9,0-3.82,0-5.73l-.71-.16c-1.11,2-2.24,4-3.3,6-.69,1.31-1.22,1.19-1.87,0a24.79,24.79,0,0,0-3.85-5.64,37.93,37.93,0,0,0,.06,5.44c.23,1.55-.43,1.6-1.58,1.71-1.47.15-1.35-.58-1.31-1.65.1-3.09,0-6.19.11-9.28,0-.76-.84-2.15.84-2.11,1.19,0,2.68-.81,3.39,1.35S83.66,92.87,85,95.25Z"/><path class="cls-3" d="M214.34,88a6.47,6.47,0,0,1,4.64.84c.46.25,1.57.16,1.12,1.18-.35.78-1,1.43-2,.85a8,8,0,0,0-4.82-1c-.78.09-1.55.34-1.75,1.15-.24,1,.78,1,1.35,1.46,1.63,1.25,3.58.48,5.36.88,1.49.34,2.45.79,2.84,2.18a3.36,3.36,0,0,1-1.5,3.89c-2.07,1.48-8.47,1.63-10.6.26-.84-.54-.5-1-.23-1.63.36-.79.76-1.29,1.69-.7a7,7,0,0,0,4.84,1c1.05-.14,2.66,0,2.68-1.43s-1.56-1.27-2.62-1.4-2.26-.07-3.35-.29c-2-.42-3.9-1.21-3.65-3.79s1.79-3.55,4.21-3.48C213.12,88,213.68,88,214.34,88Z"/><path class="cls-3" d="M154.6,94c0,1.74,0,3.49,0,5.22,0,.85.08,1.39-1.05,1.44s-1.3-.5-1.28-1.5c.06-2.34-.09-4.68,0-7,0-.8-.75-2,.72-2.31a2.7,2.7,0,0,1,3,1c1.25,1.63,2.77,3,4.18,4.55.3.32.53.82,1.13.6s.47-.75.47-1.18c0-1.22,0-2.44-.08-3.65-.07-1,.31-1.34,1.27-1.32S164,90.26,164,91c0,2.8,0,5.61.08,8.41,0,.67-.13,1.1-.86,1.13a2.43,2.43,0,0,1-2.43-.87c-1.69-2.1-3.63-4-5.47-6Z"/><path class="cls-3" d="M119,96.38c1-1.93.4-3.64.55-5.27.06-.65-.26-1.35.8-1.37.84,0,1.47.16,1.46,1.21,0,2.81,0,5.62,0,8.43,0,.64-.1,1.11-.83,1.17a2.53,2.53,0,0,1-2.47-.88c-1.75-2.11-3.68-4.06-6.13-6.73,0,2.76-.08,4.58,0,6.4,0,.74.22,1.31-.8,1.24-.7,0-1.54.17-1.52-1.06,0-2.9,0-5.8,0-8.7,0-.69.26-1.08,1-1.07.9,0,1.78-.2,2.54.72C115.3,92.46,117.11,94.31,119,96.38Z"/><path class="cls-3" d="M192.05,100.45c-1.6.19-3,.76-3.33-1.44A4.69,4.69,0,0,0,187.3,97a2.79,2.79,0,0,0-2.9-.48c-1,.28-.56,1.25-.58,1.94,0,1.1.33,2.33-1.53,2.21s-1.11-1.37-1.12-2.25c0-2.34.09-4.69-.07-7-.08-1.27.26-1.67,1.48-1.64,2,0,3.93-.09,5.89,0,1.48.1,3.05.4,3.63,2.11a3,3,0,0,1-1.51,3.8c-.84.49-.88,1-.26,1.79A25,25,0,0,1,192.05,100.45Zm-5.34-6.07c1.18-.2,3,.32,2.92-1.39s-1.92-1.44-3.2-1.37c-1,0-2.5-.65-2.55,1.23C183.81,95.19,185.75,93.94,186.71,94.38Z"/><path class="cls-3" d="M201,89.82c1.11-.07,2.24-.06,3.35-.23s1.08.38,1.11,1.11-.3,1.16-1.17,1.09c-1.49-.11-3-.14-4.49-.18-.85,0-1.49.29-1.5,1.25s.91.87,1.56,1.16c1.1.48,3.3-1.41,3.26,1,0,1.92-2.06.74-3.15.88s-1.73.4-1.72,1.63c0,1.4,1,1.08,1.79,1.09,1.4,0,2.81,0,4.21-.07.68,0,1.35-.19,1.4.81,0,.78-.3,1.23-1.14,1.23l-7.86,0c-.87,0-1-.49-1-1.27.05-1.87-.07-3.74,0-5.6.14-4,.17-4,4.22-3.94.37,0,.75,0,1.12,0Z"/><path class="cls-3" d="M135.82,90.42c-2,2.55-4,5.1-6.24,7.9a13.72,13.72,0,0,0,5.17.24c.86,0,1.22.13,1.2,1,0,.66-.22,1.12-.95,1.06-3.23-.26-6.5.31-10.12-.33,1.77-2.32,3.37-4.37,4.92-6.45.41-.55,1.38-1,.86-1.84s-1.36-.46-2.09-.44-1.69.13-2.52.22-1.15-.41-1.11-1.19.22-1.11,1.18-1.08c3.14.11,6.3,0,9.45,0Z"/><path class="cls-3" d="M107.76,100.4c-1.5.12-2.72.81-3.42-1.32-.57-1.75-5.47-1.5-6,.33-.49,1.52-1.43,1.45-2.29,1.11-1.46-.58-.07-1.44.15-2,1-2.6,2.32-5.1,3.34-7.71a1.44,1.44,0,0,1,1.65-1.09c.77.06,1.63-.25,2.12.86C104.67,93.82,106.2,97,107.76,100.4Zm-6.5-7.82c-.7,1.13-1.8,2-1,3.23.39.57,1.92.57,2.23,0C103.12,94.59,102,93.68,101.26,92.58Z"/><path class="cls-3" d="M178.84,100.38c-1.53.2-2.75.82-3.43-1.31-.54-1.67-5.39-1.55-5.93.16s-1.57,1.66-2.49,1.2c-1.24-.63.11-1.44.35-2.06,1-2.52,2.23-5,3.21-7.48.34-.87.77-1.24,1.61-1.19s1.73-.19,2.2.83C175.82,93.77,177.3,97,178.84,100.38Zm-6.5-7.83c-.7,1.12-1.93,2-1,3.24a1.64,1.64,0,0,0,2.28,0C174.27,94.55,173.26,93.6,172.34,92.55Z"/><path class="cls-3" d="M149.87,100.32c-1.68.36-2.81.77-3.45-1.31-.5-1.62-5.32-1.43-6,.26s-1.65,1.37-3,1.08c1.49-3.37,2.87-6.71,4.43-10,.62-1.29,2.89-1,3.58.48C146.91,93.91,148.31,97,149.87,100.32Zm-5-5.41c-.49-.55-.48-2-1.39-2-1.2,0-1.36,1.43-1.46,2.33-.14,1.18,1,.74,1.64.8S145.05,96.13,144.88,94.91Z"/><path class="cls-1" d="M128.84,341.72c-4,.67-7.4-.66-10.74-1.44A145.27,145.27,0,0,1,91.67,331c-5-2.21-9.43-5.34-14.17-8-.7-.38-1.65-1.11-1-2s1.29.21,1.83.54a136.38,136.38,0,0,0,26,12.93,120.43,120.43,0,0,0,21.89,5.77A3.59,3.59,0,0,1,128.84,341.72Z"/><path class="cls-1" d="M171.22,342.06c-1-.3-2.08.29-2.13-.86,0-.73.84-.83,1.52-.93,17-2.65,32.65-9,47.18-18.2a6.67,6.67,0,0,1,1-.55c.56-.23,1.26-.84,1.66.05.28.64-.46.91-.91,1.22a95.56,95.56,0,0,1-15.1,8.62c-6.23,2.75-12.46,5.52-19.11,7.17C180.52,339.78,175.72,341,171.22,342.06Z"/><path class="cls-3" d="M143.84,329.7c1.2.4,1.59-.33,2.19-.49a.91.91,0,0,1,1,.12c.58.51.12.81-.19,1.12-.93.95-1.85,1.83.19,2.6.47.18.5.78.21,1.22a.9.9,0,0,1-1.23.35c-1.46-1-2.83-.21-4.28,0s-2.9.19-3.82-1.17a2.73,2.73,0,0,1,.51-3.8c.39-.36.62-.65.46-1.18-.45-1.45-.14-2.62,1.4-3.18a3.63,3.63,0,0,1,3.93.75C145.43,327.23,144.59,328.46,143.84,329.7Zm-.64,2.14c-.13-1.15-1-1.54-1.94-1.66s-1.75.15-1.86,1.22c-.12,1.27.83,1.55,1.83,1.57C142.07,333,143,332.94,143.2,331.84Zm-1.59-5.29c-.65.13-1.37.32-1.33,1.12s.76,1.24,1.58,1.16,1.25-.47,1.16-1.27S142.32,326.56,141.61,326.55Z"/><path class="cls-3" d="M91.37,322c-1.49-.3-2.46-.53-2.45-2,0-.56-.1-1.12-.1-1.68a2.1,2.1,0,0,0-1.38-2.21c-1.19-.42-1.36.66-1.8,1.31s-.7,1.6-1.88,1-.28-1.4,0-2.06a8.67,8.67,0,0,1,1-1.71c.95-1.43,1-4.37,2.62-4.19a12.13,12.13,0,0,1,6.55,3.35,2.06,2.06,0,0,1-.67,3.49C90.52,318.09,90.66,319.75,91.37,322Zm.81-7.1c-.57-1.49-2-1.87-3.41-2.24-.51-.13-1.24.09-1.09.85.35,1.82,2.11,1.8,3.38,2.36C91.63,316.14,92.1,315.73,92.18,314.92Z"/><path class="cls-3" d="M163.58,329.68c.07.94.1,1.88.24,2.81.12.78.35,1.47-.86,1.56-1,.08-1.44-.41-1.36-1.29.27-2.75-1.31-2.74-3.34-2.47-1.47.2-2.23.62-1.95,2.27.14.81.63,2.06-.91,2.14s-1.05-1.3-1.17-2.07c-.29-1.85-.39-3.74-.58-5.6-.08-.8-.08-1.52,1-1.69s1.24.53,1.21,1.35c-.07,1.72.68,2.38,2.41,2.06,1.51-.27,3.43.05,2.81-2.54-.21-.9.07-1.42,1.07-1.54s1.19.52,1.23,1.35c0,1.22.18,2.44.27,3.66Z"/><path class="cls-3" d="M119.8,332c-1.43-1-4.92.55-5-2.39-.06-1.89-.41-5.49,2.37-5.9,1.86-.27,5.46-.48,5.87,2.84C123.5,330.45,122.36,332,119.8,332Zm.89-2.51c-.31-1.25-1.53-1-2.4-1.32s-1.4,0-1.37.82c0,1.47,1.47,1.08,2.3,1.43C119.86,330.72,120.47,330.37,120.69,329.52Zm-1.88-4.27c-.64,0-1.45,0-1.25.76.33,1.26,1.67.87,2.57,1.17.42.14,1.12,0,1-.58C121,325.21,119.61,325.6,118.81,325.25Z"/><path class="cls-3" d="M108.62,326.1c-.5-1.74.78-1.11,1.45-1,.87.16,2.2.22,2.09,1.38-.08.85,0,2.12-1.28,2.57-1.9.68-5.53-.63-6.5-2.39a4,4,0,0,1,1.84-5.46c1.68-.81,5.56.17,6.14,1.58a.94.94,0,0,1,0,.77.72.72,0,0,1-1,.23,10.15,10.15,0,0,0-1.47-.82c-1-.36-2.34-1-3,.19s-1.11,2.62.31,3.76a2.6,2.6,0,0,0,2.82.67.6.6,0,0,0,.39-.89A1.51,1.51,0,0,0,108.62,326.1Z"/><path class="cls-3" d="M172.68,332.3a6.52,6.52,0,0,1-3,.62c-2.26-.15-3.73-1.35-3.94-3.59a3.79,3.79,0,0,1,3.2-4.26c3.41-.84,5.18.48,5.9,4.33C174.13,330.36,173.41,331.33,172.68,332.3Zm-2.35-1.05c1.55-.19,2.51-.88,2.44-2.5a2.12,2.12,0,0,0-2.57-2.21c-1.48.08-2.56.82-2.44,2.41A2.42,2.42,0,0,0,170.33,331.25Z"/><path class="cls-3" d="M98.9,325.64c-1.71-.34-4-.59-4.54-2.76s1-4.05,1.93-5.95a.9.9,0,0,1,1.27-.15,1.08,1.08,0,0,1,.2,1.29c-.44,1-.86,2.06-1.25,3.11a1.87,1.87,0,0,0,1,2.56,1.93,1.93,0,0,0,2.77-1.08c.45-1,.86-2.07,1.26-3.12.27-.72.9-.68,1.38-.53.7.22.54.74.27,1.32-.6,1.26-1.11,2.56-1.65,3.84A2.43,2.43,0,0,1,98.9,325.64Z"/><path class="cls-3" d="M201.33,318.27c.56,2.14-2.24,1.27-2.47,2.91,1.51,1.33,3.1-1,4.7.1-1,1.61-3.08,1.63-4.53,2.59-.8.53-1.34-.27-1.67-1-.7-1.53-1.34-3.08-2.1-4.57-.37-.72-.14-1,.46-1.28,1.52-.71,3-1.46,4.56-2.15.61-.27,1.36-.45,1.56.49s-.8.59-1.09,1c-1.16.53-3.44.57-3,2,.54,1.79,2.12-.41,3.3-.15Z"/><path class="cls-3" d="M180.7,330.67c-2-.31-3.69-.77-4.43-2.68s.35-3.26,1.53-4.3a5.25,5.25,0,0,1,5.55-1c.35.14.72.27.56.78s-.51.51-.88.5c-.56,0-1.12-.14-1.68-.11a2.85,2.85,0,0,0-2.8,2,2,2,0,0,0,.55,2.32,3.21,3.21,0,0,0,3.45.31c.86-.34,1.84-2.14,2.46-.93.77,1.49-1.17,2-2.29,2.48A14.35,14.35,0,0,1,180.7,330.67Z"/><path class="cls-5" d="M136.51,337.43a4,4,0,0,1,1.06.18c1,.41,2.74.67,2.36,1.87-.53,1.66-1.63,0-2.49-.2a3,3,0,0,0-3.12.71,2.05,2.05,0,0,0-.24,2.38c.59,1.24,1.77,1.12,2.89,1.3.88.14,2.31-1.45,2.5.27.12,1.05-1.62,1.29-2.72,1.39-2.85.28-5.09-1.51-5.09-4S133.46,337.39,136.51,337.43Z"/><path class="cls-3" d="M157.34,342.56c-1.07-3.76,1.17-3.36,2.85-3.47,2.54-.18,3.42.72,3.31,4-.1,2.66-2.5,1.93-4.09,2.2C156.15,345.86,157.6,343.15,157.34,342.56Zm3-.16c-.68.1-1.61-.06-1.58,1,0,.91.81.83,1.44.79s1.63-.07,1.62-1S161,342.47,160.37,342.4Z"/><path class="cls-3" d="M203.17,314.09c1.5-2,3.07-.26,4.36-.56s-.28-3.42,2.51-3.14c.14,2.33-1,4.82.74,7,.49.6-.17,1-.68,1.25s-.92.23-1.12-.35C208.05,315.61,205.51,315.09,203.17,314.09Z"/><path class="cls-3" d="M192.7,323.71l3,1.56c-1.31,1.49-2.48,1-3.7.05-.57-.45-1.25-1.07-2-.69s-.43,1.31-.23,2a1.06,1.06,0,0,1-.8,1.49c-.79.26-.85-.39-1.06-.9Q187,325,186,322.9c-.29-.63-.6-1.34.06-1.74s1.08,0,1.53.68c1.34,2,1.48-.52,2.27-.69,1.29-.12.59,1.33,1.31,1.66l.11.12A1.41,1.41,0,0,0,192.7,323.71Z"/><path class="cls-3" d="M132.34,326.6c-1.79,2-4.17,3.31-3.84,6.23.08.63-.55.64-1,.63-.66,0-1.17-.3-.94-1,.85-2.69-1.14-4.58-2-7,1.36.14,2.68-.41,3,1.63.24,1.42,1.23,1,1.68.1C130,325.69,131,326.18,132.34,326.6Z"/><path class="cls-5" d="M155.4,342.32c.19,1.53,0,2.81-1.55,3.32s-3.37.68-4.45-.65-.86-3.18-.57-4.85c0-.22.58-.49.87-.47a1.2,1.2,0,0,1,.82.58c.16.31,0,.76.15,1.1.38,1-.6,3,1.64,2.85,1.95-.14,1-1.81,1.24-2.86.13-.66-.24-1.87.87-1.69C156.07,339.93,155,341.53,155.4,342.32Z"/><path class="cls-5" d="M141.94,343.28c0-1.35,0-2,0-2.64s.34-1.06,1-1.05a.86.86,0,0,1,.92,1.09c-.33,2.35.05,4.06,3,3.76.19,0,.51.46.62.76.05.14-.27.6-.42.6a15.8,15.8,0,0,1-4.68-.22C141.16,345.16,142,343.63,141.94,343.28Z"/><path class="cls-5" d="M191.19,322.81c-.72-.33,0-1.78-1.31-1.66-.14-1.89,1.05-2.33,2.69-2.42C193.18,320.46,191.41,321.39,191.19,322.81Z"/><path class="cls-6" d="M201.33,318.27h-.27c-1.18-.26-2.76,1.94-3.3.15-.45-1.46,1.83-1.5,3-2C200.86,317,201.56,317.51,201.33,318.27Z"/><path class="cls-6" d="M108.62,326.1a1.51,1.51,0,0,1,1.73.6.6.6,0,0,1-.39.89,2.6,2.6,0,0,1-2.82-.67Z"/><path class="cls-6" d="M172.68,332.3c.73-1,1.45-1.94,2.18-2.9C174.72,330.81,175.88,333.19,172.68,332.3Z"/><path class="cls-5" d="M192.7,323.71a1.41,1.41,0,0,1-1.4-.78A1.27,1.27,0,0,1,192.7,323.71Z"/><path class="cls-2" d="M128.71,204.27c3.61-.83,5.93-3.51,8.48-5.87.34.12.44-.08.47-.36l.06-.06.65-.46c.2-.1.39-.21.58-.32a1.21,1.21,0,0,0,1.13-.75h0a19.07,19.07,0,0,0,5.07-3.25l.68-.43a6,6,0,0,0,2.83-1.94l.53-.35a1.17,1.17,0,0,0,1-.83h0a1.43,1.43,0,0,0,1.18-1.11c.59-.7,1.2-1.38,1.76-2.1,2.79-3.59,6.16-4,9.78-1.28a3.76,3.76,0,0,0,1.88,1.08c.16.68.32,1.37.49,2.05-2,.78-2.37,2.43-2.4,4.34-.1,6.89-4.09,11.4-9.37,15.08a2.7,2.7,0,0,0-1.83,1h-.23l-.19.14c-1.3-.09-.78,1-1,1.58l-.77.24c-.72-.81-.84-2.49-2.6-1.79-.82.94-1.54.22-2.29-.12a1.22,1.22,0,0,1-.27-.36c0-.4-.21-.55-.6-.46l-1.44-.35c-.25-.45-.69-.48-1.14-.5a.4.4,0,0,0-.58-.34c-3.49-.8-6.85-.12-10.17.93-.75-.12-1.64.11-2-.85,1.34-1.43-1.11-.64-.85-1.44l.65-.58Z"/><path class="cls-6" d="M144.61,208.76c.75.34,1.47,1.06,2.28.13-.33,1.33.66,2.21,1.12,3.27.32.73,1,1.3,1.73,1,1.09-.41-.1-1.24.13-1.87a3.47,3.47,0,0,0,.29-.25l.78,0c.88.72,1,2.36,2.64,2.18l2,.78,0,.43L143,215l-.69-.65c4.63-.55,3-2.86,2.12-5Z"/><path class="cls-6" d="M158.32,218.1c2.24,1,1.05,3.25,2,4.61.32.45-.66,1.77-1.26,1.31-1.32-1-4,.67-4.07-1.43C155,221,156.62,219.26,158.32,218.1Z"/><path class="cls-6" d="M149.46,219.74c.14.68.27,1.37.41,2l-.39,1.65c-1,1.41-2.39,1.42-3.87,1.17-1.88-1.47-1.85-3.28-.92-5.24a4.13,4.13,0,0,1,3.19-.65Zm-1.36,1.85c-.09-.59-.07-1.5-1-1.58s-1.47.68-1.45,1.64.22,1.73,1.35,1.72S147.94,222.44,148.1,221.59Z"/><path class="cls-6" d="M139.35,220.18c-1,0-1.51-.5-.55-1.22a7.24,7.24,0,0,1,2.35-.7c2.79,1.79,2.69,2.58-.63,4.77.77.77,2.63-.49,2.73,1.47l-3.75,0-1.75-.37,0-1.38.36-.45.8-.63.65-.41h0c.81-.2,2.15-.09,1.77-1.33C141.11,219.26,140,219.4,139.35,220.18Z"/><path class="cls-4" d="M143.25,224.5c-.1-2-2-.7-2.73-1.47,3.32-2.19,3.42-3,.63-4.77,1.53-.77,2.61-.06,3.54,1.11-.93,2-1,3.77.92,5.24Z"/><path class="cls-6" d="M128.36,206.83c.41,1,1.3.73,2,.85-2.31,1.12-4.37,3-7.37,2.77.33-1.57,1.68-1.51,2.29-2.28Z"/><path class="cls-6" d="M151.23,220.89c-1-1.22,0-2.09.82-2.29s1,.9,1,1.68c.06,1.11.17,2.23.27,3.34.11,1.27-.75,1-1.49,1C151.57,223.36,152.27,222,151.23,220.89Z"/><path class="cls-6" d="M165.33,188.3c-.17-.68-.33-1.37-.49-2.05a7,7,0,0,1,6,1.35,6.91,6.91,0,0,1-3.69.3c-.17-.36-.36-.66-.81-.39,0,0,.14.29.21.45A1.22,1.22,0,0,1,165.33,188.3Z"/><path class="cls-4" d="M145.15,193.21a19.07,19.07,0,0,1-5.07,3.25C141,194,143.15,192.59,145.15,193.21Z"/><path class="cls-4" d="M153.58,213.2c-1.63.18-1.76-1.46-2.64-2.18-.15-.32-.25-.69-.74-.58h.07c.26-.58-.26-1.67,1-1.58C151.69,210.5,154.08,211.09,153.58,213.2Z"/><path class="cls-4" d="M128.36,206.83l-3,1.34a2.86,2.86,0,0,1,2.18-2.78C127.25,206.19,129.7,205.4,128.36,206.83Z"/><path class="cls-4" d="M139.35,220.18c.61-.78,1.76-.92,2-.21.38,1.24-1,1.13-1.77,1.33Z"/><path class="cls-4" d="M148.66,190.84a6,6,0,0,1-2.83,1.94C145.91,190.89,147.06,190.53,148.66,190.84Z"/><path class="cls-4" d="M144.61,208.76l-.17.63c-1.54.38-1.84-.71-2.14-1.8l1.44.35.6.46A1.22,1.22,0,0,0,144.61,208.76Z"/><path class="cls-4" d="M151.23,220.89c1,1.1.34,2.47.59,3.69C150.88,223.47,151,222.19,151.23,220.89Z"/><path class="cls-4" d="M149.46,219.74l-1.58-1c.12-.5.39-.9,1-.63A1.29,1.29,0,0,1,149.46,219.74Z"/><path class="cls-4" d="M146.08,189.39c.42-.52,1-1,1.4-.56.54.61-.22.67-.62.72A2.52,2.52,0,0,1,146.08,189.39Z"/><path class="cls-4" d="M151.73,208.72a2.7,2.7,0,0,1,1.83-1C153.41,208.9,152.61,208.87,151.73,208.72Z"/><path class="cls-4" d="M151.42,188.55a1.43,1.43,0,0,1-1.18,1.11l-.64-1.06Z"/><path class="cls-4" d="M138.46,191.65c-.15-.07-.39-.1-.43-.21s.11-.29.17-.44c.15.06.38.1.43.2S138.52,191.49,138.46,191.65Z"/><path class="cls-4" d="M149.48,223.44l.39-1.65C150.31,222.48,150.33,223.06,149.48,223.44Z"/><path class="cls-3" d="M137.75,224.16l1.75.37C138.87,224.62,138.24,224.75,137.75,224.16Z"/><path class="cls-3" d="M140.08,196.45a1.21,1.21,0,0,1-1.13.75C139.05,196.54,139.5,196.39,140.08,196.45Z"/><path class="cls-3" d="M146.06,217.47l.19-.07.06.29a.65.65,0,0,1-.21,0S146.07,217.53,146.06,217.47Z"/><path class="cls-4" d="M150.23,189.66a1.17,1.17,0,0,1-1,.83C149.18,189.78,149.63,189.63,150.23,189.66Z"/><path class="cls-2" d="M166.53,188c-.07-.16-.23-.45-.21-.45.45-.27.64,0,.81.39Z"/><path class="cls-3" d="M128.71,204.27l-.55.54Z"/><path class="cls-3" d="M139.53,221.29l-.65.41Z"/><path class="cls-3" d="M138.08,222.33l-.36.45Z"/><path class="cls-3" d="M138.37,197.52l-.65.46Z"/><path class="cls-3" d="M137.66,198c0,.28-.13.48-.47.36Z"/><path class="cls-3" d="M140.58,206.75a.4.4,0,0,1,.58.34Z"/><path class="cls-4" d="M193.65,146.75h-2c-6.2.06-6.33-.13-5.65-6.39.13-1.21.58-1.6,1.74-1.57,3.93.07,7.86,0,11.79.14,3,.13,4.43,1.56,4.45,4s-1.24,3.6-4.47,3.8c-1,.07-2.06,0-3.09.05h-2.81Z"/><path class="cls-2" d="M186.71,94.38c-1-.44-2.9.81-2.83-1.53.05-1.88,1.58-1.18,2.55-1.23,1.28-.07,3.1-.31,3.2,1.37S187.89,94.18,186.71,94.38Z"/><path class="cls-6" d="M101.26,92.58c.78,1.1,1.86,2,1.24,3.19-.31.61-1.84.61-2.23,0C99.46,94.63,100.56,93.71,101.26,92.58Z"/><path class="cls-6" d="M172.34,92.55c.92,1,1.93,2,1.3,3.21a1.64,1.64,0,0,1-2.28,0C170.41,94.54,171.64,93.67,172.34,92.55Z"/><path class="cls-6" d="M144.88,94.91c.17,1.22-.59,1.19-1.21,1.13s-1.78.38-1.64-.8c.1-.9.26-2.35,1.46-2.33C144.4,92.93,144.39,94.36,144.88,94.91Z"/><path class="cls-2" d="M143.2,331.84c-.25,1.1-1.13,1.16-2,1.13-1,0-1.95-.3-1.83-1.57.11-1.07.95-1.34,1.86-1.22S143.07,330.69,143.2,331.84Z"/><path class="cls-6" d="M141.61,326.55c.71,0,1.33.2,1.41,1s-.45,1.2-1.16,1.27-1.53-.26-1.58-1.16S141,326.68,141.61,326.55Z"/><path class="cls-2" d="M92.18,314.92c-.08.81-.55,1.22-1.12,1-1.27-.56-3-.54-3.38-2.36-.15-.76.58-1,1.09-.85C90.16,313.05,91.61,313.43,92.18,314.92Z"/><path class="cls-2" d="M120.69,329.52c-.22.85-.83,1.2-1.47.93-.83-.35-2.25,0-2.3-1.43,0-.85.65-1.06,1.37-.82S120.38,328.27,120.69,329.52Z"/><path class="cls-6" d="M118.81,325.25c.8.35,2.14,0,2.35,1.35.09.56-.61.72-1,.58-.9-.3-2.24.09-2.57-1.17C117.36,325.27,118.17,325.28,118.81,325.25Z"/><path class="cls-2" d="M170.33,331.25a2.42,2.42,0,0,1-2.57-2.3c-.12-1.59,1-2.33,2.44-2.41a2.12,2.12,0,0,1,2.57,2.21C172.84,330.37,171.88,331.06,170.33,331.25Z"/><path class="cls-6" d="M160.37,342.4c.61.07,1.48-.13,1.48.77s-.89,1-1.62,1-1.41.12-1.44-.79C158.76,342.34,159.69,342.5,160.37,342.4Z"/><path class="cls-4" d="M149.87,211.31c-.23.63,1,1.46-.13,1.87-.75.28-1.41-.29-1.73-1-.46-1.06-1.45-1.94-1.12-3.27,1.77-.71,1.89,1,2.61,1.78C149.62,210.89,149.75,211.1,149.87,211.31Z"/><path class="cls-6" d="M144.34,208.4l-.6-.46C144.13,207.85,144.33,208,144.34,208.4Z"/><path class="cls-6" d="M149.87,211.31c-.12-.21-.25-.42-.37-.64l.77-.24h-.07l0,.62A3.47,3.47,0,0,1,149.87,211.31Z"/><path class="cls-2" d="M150.16,211.06l0-.62c.49-.11.59.26.74.58Z"/><path class="cls-4" d="M148.1,221.59c-.16.85-.06,1.77-1.12,1.78s-1.34-.83-1.35-1.72.42-1.73,1.45-1.64S148,221,148.1,221.59Z"/></svg>